<svg width="51" height="34" viewBox="0 0 51 34" fill="none" xmlns="http://www.w3.org/2000/svg">
<path d="M1.41335 31.7905H0.24858L2.86577 24.5178H4.13352L6.75071 31.7905H5.58594L3.52983 25.8388H3.47301L1.41335 31.7905ZM1.60866 28.9425H5.38707V29.8658H1.60866V28.9425ZM13.4996 26.8829H12.3917C12.3491 26.6461 12.2698 26.4378 12.1538 26.2579C12.0378 26.0779 11.8957 25.9252 11.7276 25.7998C11.5595 25.6743 11.3713 25.5796 11.163 25.5157C10.957 25.4517 10.738 25.4198 10.506 25.4198C10.087 25.4198 9.71177 25.5251 9.38033 25.7358C9.05125 25.9465 8.79084 26.2555 8.59908 26.6627C8.40968 27.0699 8.31499 27.567 8.31499 28.1542C8.31499 28.746 8.40968 29.2455 8.59908 29.6527C8.79084 30.0599 9.05244 30.3677 9.38388 30.576C9.71532 30.7844 10.0882 30.8885 10.5025 30.8885C10.7321 30.8885 10.9499 30.8578 11.1559 30.7962C11.3642 30.7323 11.5524 30.6388 11.7205 30.5157C11.8886 30.3926 12.0307 30.2422 12.1467 30.0647C12.265 29.8848 12.3467 29.6788 12.3917 29.4468L13.4996 29.4503C13.4405 29.8078 13.3256 30.1369 13.1552 30.4375C12.9871 30.7358 12.7705 30.9939 12.5053 31.2117C12.2425 31.4271 11.9419 31.594 11.6033 31.7124C11.2648 31.8308 10.8955 31.89 10.4954 31.89C9.86565 31.89 9.30457 31.7408 8.81214 31.4425C8.31972 31.1419 7.93146 30.7122 7.64737 30.1535C7.36565 29.5947 7.22479 28.9283 7.22479 28.1542C7.22479 27.3776 7.36683 26.7112 7.65092 26.1549C7.93501 25.5962 8.32327 25.1677 8.8157 24.8694C9.30812 24.5687 9.86802 24.4184 10.4954 24.4184C10.8813 24.4184 11.2411 24.474 11.5749 24.5853C11.9111 24.6942 12.2129 24.8552 12.4805 25.0682C12.748 25.2789 12.9693 25.537 13.1445 25.8424C13.3197 26.1454 13.4381 26.4922 13.4996 26.8829ZM20.8532 26.8829H19.7452C19.7026 26.6461 19.6233 26.4378 19.5073 26.2579C19.3913 26.0779 19.2492 25.9252 19.0811 25.7998C18.9131 25.6743 18.7248 25.5796 18.5165 25.5157C18.3105 25.4517 18.0916 25.4198 17.8596 25.4198C17.4405 25.4198 17.0653 25.5251 16.7338 25.7358C16.4048 25.9465 16.1444 26.2555 15.9526 26.6627C15.7632 27.0699 15.6685 27.567 15.6685 28.1542C15.6685 28.746 15.7632 29.2455 15.9526 29.6527C16.1444 30.0599 16.406 30.3677 16.7374 30.576C17.0688 30.7844 17.4417 30.8885 17.856 30.8885C18.0856 30.8885 18.3034 30.8578 18.5094 30.7962C18.7177 30.7323 18.906 30.6388 19.074 30.5157C19.2421 30.3926 19.3842 30.2422 19.5002 30.0647C19.6185 29.8848 19.7002 29.6788 19.7452 29.4468L20.8532 29.4503C20.794 29.8078 20.6792 30.1369 20.5087 30.4375C20.3406 30.7358 20.124 30.9939 19.8588 31.2117C19.5961 31.4271 19.2954 31.594 18.9569 31.7124C18.6183 31.8308 18.249 31.89 17.8489 31.89C17.2192 31.89 16.6581 31.7408 16.1657 31.4425C15.6732 31.1419 15.285 30.7122 15.0009 30.1535C14.7192 29.5947 14.5783 28.9283 14.5783 28.1542C14.5783 27.3776 14.7203 26.7112 15.0044 26.1549C15.2885 25.5962 15.6768 25.1677 16.1692 24.8694C16.6616 24.5687 17.2215 24.4184 17.8489 24.4184C18.2348 24.4184 18.5946 24.474 18.9284 24.5853C19.2646 24.6942 19.5665 24.8552 19.834 25.0682C20.1015 25.2789 20.3229 25.537 20.498 25.8424C20.6732 26.1454 20.7916 26.4922 20.8532 26.8829ZM28.4837 28.1542C28.4837 28.9307 28.3416 29.5983 28.0575 30.157C27.7734 30.7133 27.384 31.1419 26.8892 31.4425C26.3968 31.7408 25.8369 31.89 25.2095 31.89C24.5798 31.89 24.0175 31.7408 23.5227 31.4425C23.0303 31.1419 22.642 30.7122 22.358 30.1535C22.0739 29.5947 21.9318 28.9283 21.9318 28.1542C21.9318 27.3776 22.0739 26.7112 22.358 26.1549C22.642 25.5962 23.0303 25.1677 23.5227 24.8694C24.0175 24.5687 24.5798 24.4184 25.2095 24.4184C25.8369 24.4184 26.3968 24.5687 26.8892 24.8694C27.384 25.1677 27.7734 25.5962 28.0575 26.1549C28.3416 26.7112 28.4837 27.3776 28.4837 28.1542ZM27.397 28.1542C27.397 27.5623 27.3011 27.064 27.1094 26.6591C26.92 26.2519 26.6596 25.9442 26.3281 25.7358C25.9991 25.5251 25.6262 25.4198 25.2095 25.4198C24.7905 25.4198 24.4164 25.5251 24.0874 25.7358C23.7583 25.9442 23.4979 26.2519 23.3061 26.6591C23.1167 27.064 23.022 27.5623 23.022 28.1542C23.022 28.746 23.1167 29.2455 23.3061 29.6527C23.4979 30.0576 23.7583 30.3653 24.0874 30.576C24.4164 30.7844 24.7905 30.8885 25.2095 30.8885C25.6262 30.8885 25.9991 30.7844 26.3281 30.576C26.6596 30.3653 26.92 30.0576 27.1094 29.6527C27.3011 29.2455 27.397 28.746 27.397 28.1542ZM34.5286 24.5178H35.6294V29.3012C35.6294 29.8102 35.5099 30.2612 35.2708 30.6542C35.0317 31.0448 34.6955 31.3526 34.2623 31.5775C33.829 31.8 33.3212 31.9113 32.7388 31.9113C32.1588 31.9113 31.6522 31.8 31.2189 31.5775C30.7857 31.3526 30.4495 31.0448 30.2104 30.6542C29.9713 30.2612 29.8517 29.8102 29.8517 29.3012V24.5178H30.949V29.2124C30.949 29.5415 31.0212 29.8339 31.1657 30.0895C31.3124 30.3452 31.5196 30.5464 31.7871 30.6932C32.0546 30.8376 32.3719 30.9098 32.7388 30.9098C33.1081 30.9098 33.4266 30.8376 33.6941 30.6932C33.964 30.5464 34.1699 30.3452 34.312 30.0895C34.4564 29.8339 34.5286 29.5415 34.5286 29.2124V24.5178ZM43.0948 24.5178V31.7905H42.0863L38.3896 26.4567H38.3221V31.7905H37.2248V24.5178H38.2404L41.9407 29.8587H42.0082V24.5178H43.0948ZM44.3368 25.4624V24.5178H49.9654V25.4624H47.6962V31.7905H46.6025V25.4624H44.3368Z" fill="white"/>
<path d="M28.4511 11.3187L29.134 10.7815C29.8912 10.1857 30.4439 9.36877 30.7152 8.44425C30.9865 7.51973 30.9629 6.53365 30.6476 5.62317C30.3324 4.7127 29.7412 3.92312 28.9564 3.36428C28.1715 2.80544 27.2319 2.50513 26.2684 2.50513C25.305 2.50513 24.3654 2.80544 23.5805 3.36428C22.7957 3.92312 22.2045 4.7127 21.8893 5.62317C21.574 6.53365 21.5504 7.51973 21.8217 8.44425C22.093 9.36877 22.6457 10.1857 23.4029 10.7815L24.0832 11.3167L23.2797 11.6386C21.9262 12.1809 20.7452 13.0803 19.8626 14.241C18.9801 15.4016 18.429 16.7801 18.2682 18.2293L17.7713 18.1741M28.4511 11.3187L19.4827 18.3624C19.6706 16.6897 20.4682 15.1448 21.7231 14.0229C22.978 12.9011 24.6023 12.2809 26.2856 12.2809C27.9688 12.2809 29.5931 12.9011 30.848 14.0229C32.1029 15.1448 32.9005 16.6897 33.0884 18.3624C33.1117 18.5727 33.212 18.7669 33.3701 18.9075C33.5281 19.0481 33.7326 19.1253 33.9441 19.124H34.0383M28.4511 11.3187L29.2587 11.6392C30.6178 12.1786 31.8046 13.0777 32.6917 14.2402C33.5785 15.4023 34.1324 16.7837 34.2942 18.2365M28.4511 11.3187L34.7913 18.1827M17.7713 18.1741L18.2683 18.2288C18.2631 18.2759 18.2672 18.3236 18.2805 18.3691C18.2937 18.4146 18.3158 18.457 18.3454 18.494L17.9553 18.8068L18.3454 18.494C18.4053 18.5687 18.4924 18.6165 18.5875 18.627C18.6827 18.6374 18.7781 18.6097 18.8527 18.5498C18.9274 18.4899 18.9752 18.4029 18.9857 18.3077L18.9858 18.3066C19.1874 16.5117 20.0433 14.854 21.3899 13.6502C22.7365 12.4464 24.4794 11.7809 26.2856 11.7809C28.0918 11.7809 29.8347 12.4464 31.1812 13.6502C32.5278 14.854 33.3837 16.5117 33.5853 18.3066L33.5854 18.3074C33.5951 18.3948 33.6368 18.4755 33.7025 18.534C33.7682 18.5925 33.8532 18.6245 33.9411 18.624L33.9441 18.624L34.0034 18.624M17.7713 18.1741C17.942 16.635 18.5273 15.171 19.4646 13.9383C20.2888 12.8545 21.3579 11.9852 22.5812 11.3995L17.7713 18.1741ZM34.0034 18.624C33.996 18.6253 33.9886 18.6264 33.9811 18.6273L34.0383 19.124M34.0034 18.624H34.0383V19.124M34.0034 18.624C34.0879 18.6088 34.1643 18.5635 34.2182 18.4961C34.2767 18.4229 34.304 18.3297 34.2942 18.2365M34.0383 19.124C34.2626 19.0982 34.4676 18.9848 34.6087 18.8084C34.7497 18.6321 34.8154 18.4072 34.7913 18.1827M34.7913 18.1827L34.2944 18.2379C34.2943 18.2375 34.2943 18.237 34.2942 18.2365M34.7913 18.1827L34.2941 18.236C34.2942 18.2362 34.2942 18.2363 34.2942 18.2365M29.5302 4.96467L29.1144 5.24245L29.5302 4.96467C29.0991 4.31956 28.4865 3.81676 27.7697 3.51985C27.0528 3.22294 26.2641 3.14526 25.5031 3.29662C24.7422 3.44798 24.0432 3.8216 23.4946 4.37021C22.946 4.91883 22.5724 5.61781 22.421 6.37877C22.2696 7.13972 22.3473 7.92847 22.6442 8.64528C22.9411 9.36208 23.4439 9.97474 24.089 10.4058C24.7341 10.8368 25.4926 11.0669 26.2684 11.0669C27.3088 11.0669 28.3066 10.6536 29.0423 9.91793C29.778 9.18226 30.1913 8.18447 30.1913 7.14407C30.1913 6.36821 29.9612 5.60977 29.5302 4.96467Z" fill="white" stroke="white"/>
</svg>
