<svg width="18" height="18" viewBox="0 0 18 18" fill="none" xmlns="http://www.w3.org/2000/svg">
<path d="M11.4512 9.31847L12.134 8.78125C12.8912 8.18549 13.4439 7.36852 13.7152 6.44401C13.9865 5.51949 13.9629 4.5334 13.6477 3.62293C13.3325 2.71246 12.7413 1.92288 11.9564 1.36403C11.1715 0.805193 10.232 0.504883 9.26849 0.504883C8.30499 0.504883 7.36545 0.805193 6.58057 1.36403C5.7957 1.92288 5.20452 2.71246 4.88929 3.62293C4.57406 4.5334 4.55045 5.51949 4.82175 6.44401C5.09304 7.36852 5.64575 8.18549 6.40298 8.78125L7.08323 9.31645L6.27977 9.63835C4.92624 10.1806 3.74524 11.08 2.86267 12.2407C1.98011 13.4014 1.42905 14.7798 1.26827 16.229L0.771315 16.1739M11.4512 9.31847L2.48273 16.3622C2.67063 14.6894 3.46824 13.1445 4.72316 12.0227C5.97808 10.9008 7.60234 10.2807 9.2856 10.2807C10.9689 10.2807 12.5931 10.9008 13.848 12.0227C15.103 13.1445 15.9006 14.6894 16.0885 16.3622C16.1117 16.5724 16.2121 16.7666 16.3701 16.9073C16.5281 17.0479 16.7326 17.125 16.9442 17.1237H17.0383M11.4512 9.31847L12.2587 9.63895C13.6179 10.1784 14.8046 11.0775 15.6917 12.2399C16.5785 13.402 17.1325 14.7835 17.2942 16.2363M11.4512 9.31847L17.7913 16.1825M0.771315 16.1739L1.26832 16.2286C1.26314 16.2757 1.26728 16.3233 1.28052 16.3688C1.29376 16.4143 1.31583 16.4568 1.34548 16.4938L0.955387 16.8065L1.34548 16.4938C1.40535 16.5684 1.49243 16.6163 1.58757 16.6267C1.6827 16.6372 1.77809 16.6094 1.85277 16.5496C1.92743 16.4897 1.97526 16.4026 1.98573 16.3075L1.98585 16.3063C2.18748 14.5114 3.04334 12.8537 4.38992 11.6499C5.7365 10.4461 7.4794 9.78067 9.2856 9.78067C11.0918 9.78067 12.8347 10.4461 14.1813 11.6499C15.5279 12.8537 16.3837 14.5114 16.5854 16.3063L16.5854 16.3072C16.5951 16.3946 16.6368 16.4753 16.7025 16.5338C16.7682 16.5922 16.8532 16.6243 16.9412 16.6237L16.9442 16.6237L17.0034 16.6237M0.771315 16.1739C0.942082 14.6347 1.52733 13.1708 2.46467 11.9381C3.28881 10.8542 4.35796 9.98491 5.58125 9.39929L0.771315 16.1739ZM17.0034 16.6237C16.9961 16.6251 16.9886 16.6262 16.9812 16.627L17.0383 17.1237M17.0034 16.6237H17.0383V17.1237M17.0034 16.6237C17.0879 16.6086 17.1643 16.5633 17.2183 16.4958C17.2768 16.4227 17.3041 16.3294 17.2942 16.2363M17.0383 17.1237C17.2626 17.0979 17.4676 16.9845 17.6087 16.8082C17.7497 16.6319 17.8154 16.407 17.7913 16.1825M17.7913 16.1825L17.2944 16.2377C17.2943 16.2372 17.2943 16.2367 17.2942 16.2363M17.7913 16.1825L17.2942 16.2357C17.2942 16.2359 17.2942 16.2361 17.2942 16.2363M12.5302 2.96442L12.1145 3.24221L12.5302 2.96442C12.0992 2.31932 11.4865 1.81652 10.7697 1.51961C10.0529 1.2227 9.26414 1.14501 8.50318 1.29638C7.74223 1.44774 7.04325 1.82135 6.49463 2.36997C5.94601 2.91859 5.5724 3.61757 5.42104 4.37852C5.26967 5.13948 5.34736 5.92823 5.64427 6.64503C5.94118 7.36184 6.44398 7.9745 7.08908 8.40554C7.73419 8.83659 8.49263 9.06666 9.26849 9.06666C10.3089 9.06666 11.3067 8.65336 12.0424 7.91769C12.778 7.18202 13.1913 6.18423 13.1913 5.14383C13.1913 4.36797 12.9613 3.60953 12.5302 2.96442Z" fill="white" stroke="white"/>
</svg>
