<svg width="22.5" height="25.5" viewBox="0 0 15 17" fill="none" xmlns="http://www.w3.org/2000/svg">
<path d="M14.9853 16.433L13.765 5.34272C13.7393 5.10861 13.5198 4.93033 13.2575 4.93033H10.9756V3.12088C10.9756 1.3998 9.41523 0 7.49751 0C5.57958 0 4.01939 1.39983 4.01939 3.12088V4.93036H1.73718C1.47501 4.93036 1.25565 5.10864 1.22972 5.34275L0.00248945 16.4974C-0.0117197 16.6261 0.0353553 16.7539 0.131993 16.8495C0.228593 16.9455 0.366011 17 0.509912 17H14.4851C14.4866 17 14.4883 17 14.4901 17C14.7717 17 15 16.795 15 16.5426C15 16.5046 14.995 16.468 14.9853 16.433ZM5.03921 3.12088C5.03921 1.90474 6.14199 0.915037 7.49748 0.915037C8.85296 0.915037 9.95574 1.90478 9.95574 3.12088V4.93036H5.03921V3.12088ZM2.19926 5.8454H4.01935V6.77115C4.01935 7.02356 4.24772 7.22862 4.5293 7.22862C4.81092 7.22862 5.03921 7.02356 5.03921 6.77115V5.8454H9.95574V6.77115C9.95574 7.02356 10.1841 7.22862 10.4656 7.22862C10.7472 7.22862 10.9755 7.02356 10.9755 6.77115V5.8454H12.7954L13.7234 14.2782H1.27133L2.19926 5.8454ZM1.07259 16.0851L1.1707 15.1933H13.8243L13.9224 16.0851H1.07259Z" fill="black"/>
</svg>
