<svg width="28" height="34" viewBox="0 0 28 34" fill="none" xmlns="http://www.w3.org/2000/svg">
<g clip-path="url(#clip0_139_201)">
<path d="M22.3819 20.1504L21.0593 6.75265C21.0314 6.46983 20.7934 6.25446 20.5092 6.25446H18.0358V4.06854C18.0358 1.98937 16.3445 0.29834 14.2659 0.29834C12.1871 0.29834 10.496 1.98941 10.496 4.06854V6.2545H8.02233C7.73816 6.2545 7.5004 6.46987 7.47229 6.75269L6.1421 20.2281C6.1267 20.3836 6.17773 20.538 6.28247 20.6535C6.38718 20.7695 6.53612 20.8353 6.6921 20.8353H21.8398C21.8414 20.8353 21.8432 20.8353 21.8452 20.8353C22.1505 20.8353 22.3979 20.5877 22.3979 20.2827C22.3978 20.2368 22.3924 20.1926 22.3819 20.1504ZM11.6014 4.06854C11.6014 2.59938 12.7967 1.40376 14.2659 1.40376C15.7351 1.40376 16.9304 2.59942 16.9304 4.06854V6.2545H11.6014V4.06854ZM8.52317 7.35992H10.496V8.47828C10.496 8.78321 10.7435 9.03093 11.0487 9.03093C11.3539 9.03093 11.6014 8.78321 11.6014 8.47828V7.35992H16.9304V8.47828C16.9304 8.78321 17.1779 9.03093 17.483 9.03093C17.7883 9.03093 18.0357 8.78321 18.0357 8.47828V7.35992H20.0083L21.0141 17.5472H7.51739L8.52317 7.35992ZM7.30198 19.7301L7.40832 18.6527H21.1235L21.2298 19.7301H7.30198Z" fill="white"/>
</g>
<path d="M6.83949 26.8829H5.73153C5.68892 26.6461 5.60961 26.4378 5.49361 26.2579C5.3776 26.0779 5.23556 25.9252 5.06747 25.7998C4.89938 25.6743 4.71117 25.5796 4.50284 25.5157C4.29688 25.4517 4.07789 25.4198 3.84588 25.4198C3.42685 25.4198 3.05161 25.5251 2.72017 25.7358C2.3911 25.9465 2.13068 26.2555 1.93892 26.6627C1.74953 27.0699 1.65483 27.567 1.65483 28.1542C1.65483 28.746 1.74953 29.2455 1.93892 29.6527C2.13068 30.0599 2.39228 30.3677 2.72372 30.576C3.05516 30.7844 3.42803 30.8885 3.84233 30.8885C4.07197 30.8885 4.28977 30.8578 4.49574 30.7962C4.70407 30.7323 4.89228 30.6388 5.06037 30.5157C5.22846 30.3926 5.3705 30.2422 5.48651 30.0647C5.60488 29.8848 5.68655 29.6788 5.73153 29.4468L6.83949 29.4503C6.7803 29.8078 6.66548 30.1369 6.49503 30.4375C6.32694 30.7358 6.11032 30.9939 5.84517 31.2117C5.58239 31.4271 5.28172 31.594 4.94318 31.7124C4.60464 31.8308 4.23532 31.89 3.83523 31.89C3.20549 31.89 2.64441 31.7408 2.15199 31.4425C1.65956 31.1419 1.27131 30.7122 0.987216 30.1535C0.705492 29.5947 0.564631 28.9283 0.564631 28.1542C0.564631 27.3776 0.706676 26.7112 0.990767 26.1549C1.27486 25.5962 1.66312 25.1677 2.15554 24.8694C2.64796 24.5687 3.20786 24.4184 3.83523 24.4184C4.22112 24.4184 4.58097 24.474 4.91477 24.5853C5.25095 24.6942 5.55279 24.8552 5.82031 25.0682C6.08783 25.2789 6.30919 25.537 6.48438 25.8424C6.65956 26.1454 6.77794 26.4922 6.83949 26.8829ZM8.71804 31.7905H7.55327L10.1705 24.5178H11.4382L14.0554 31.7905H12.8906L10.8345 25.8388H10.7777L8.71804 31.7905ZM8.91335 28.9425H12.6918V29.8658H8.91335V28.9425ZM15.1056 31.7905V24.5178H17.698C18.2614 24.5178 18.729 24.6149 19.1007 24.809C19.4747 25.0031 19.7541 25.2718 19.9387 25.6151C20.1234 25.956 20.2157 26.3502 20.2157 26.7976C20.2157 27.2427 20.1222 27.6345 19.9352 27.9731C19.7505 28.3092 19.4712 28.5708 19.0971 28.7579C18.7254 28.9449 18.2579 29.0384 17.6944 29.0384H15.7306V28.0938H17.595C17.9501 28.0938 18.2389 28.0429 18.4615 27.9411C18.6864 27.8393 18.8509 27.6913 18.9551 27.4972C19.0592 27.3031 19.1113 27.0699 19.1113 26.7976C19.1113 26.523 19.0581 26.2851 18.9515 26.0839C18.8474 25.8826 18.6828 25.7287 18.4579 25.6222C18.2354 25.5133 17.943 25.4589 17.5808 25.4589H16.2029V31.7905H15.1056ZM18.6958 28.5093L20.4927 31.7905H19.2427L17.4814 28.5093H18.6958ZM21.1923 25.4624V24.5178H26.8208V25.4624H24.5517V31.7905H23.4579V25.4624H21.1923Z" fill="white"/>
<defs>
<clipPath id="clip0_139_201">
<rect width="20.537" height="20.537" fill="white" transform="translate(4 0.29834)"/>
</clipPath>
</defs>
</svg>
