<svg width="17" height="21" viewBox="0 0 17 21" fill="white" xmlns="http://www.w3.org/2000/svg">
<path d="M16.3818 20.1504L15.0592 6.75265C15.0313 6.46983 14.7933 6.25446 14.5091 6.25446H12.0357V4.06854C12.0357 1.98937 10.3444 0.29834 8.26583 0.29834C6.18699 0.29834 4.49591 1.98941 4.49591 4.06854V6.2545H2.02223C1.73806 6.2545 1.5003 6.46987 1.47219 6.75269L0.142003 20.2281C0.126602 20.3836 0.177627 20.538 0.282372 20.6535C0.387076 20.7695 0.536023 20.8353 0.691997 20.8353H15.8397C15.8413 20.8353 15.8431 20.8353 15.8451 20.8353C16.1504 20.8353 16.3978 20.5877 16.3978 20.2827C16.3977 20.2368 16.3923 20.1926 16.3818 20.1504ZM5.60129 4.06854C5.60129 2.59938 6.79658 1.40376 8.26579 1.40376C9.735 1.40376 10.9303 2.59942 10.9303 4.06854V6.2545H5.60129V4.06854ZM2.52307 7.35992H4.49587V8.47828C4.49587 8.78321 4.74339 9.03093 5.0486 9.03093C5.35385 9.03093 5.60129 8.78321 5.60129 8.47828V7.35992H10.9303V8.47828C10.9303 8.78321 11.1778 9.03093 11.4829 9.03093C11.7882 9.03093 12.0356 8.78321 12.0356 8.47828V7.35992H14.0082L15.014 17.5472H1.51729L2.52307 7.35992ZM1.30188 19.7301L1.40822 18.6527H15.1234L15.2297 19.7301H1.30188Z" fill="white"/>
</svg>
