<svg width="8" height="8" viewBox="0 0 8 8" fill="none" xmlns="http://www.w3.org/2000/svg">
<path d="M7.68665 0.0741554C7.61487 0.00236927 7.50697 -0.0192097 7.41308 0.0194231L3.38463 1.6782C3.36871 1.68457 3.35335 1.69261 3.33873 1.70237C3.33799 1.70283 3.33731 1.70344 3.3366 1.70393C3.33057 1.70806 3.3246 1.71234 3.31887 1.71708C3.31518 1.7201 3.31176 1.72345 3.30828 1.72668C3.30567 1.72908 3.3029 1.7313 3.30034 1.73386C3.30019 1.73401 0.413965 4.62026 0.413965 4.62026C0.315767 4.71846 0.315767 4.8777 0.413965 4.9759C0.512133 5.07407 0.671374 5.07407 0.769603 4.9759L3.47814 2.26736L5.49348 4.28269L2.78494 6.99124C2.68674 7.08943 2.68674 7.24868 2.78494 7.34687C2.83404 7.39597 2.89841 7.42054 2.96274 7.42054C3.02708 7.42054 3.09148 7.396 3.14055 7.34687L6.02695 4.46047C6.03289 4.45453 6.0385 4.44834 6.04379 4.44184C6.04804 4.43664 6.05192 4.43122 6.0557 4.42577C6.0566 4.42448 6.05761 4.42328 6.05847 4.42199C6.06823 4.40737 6.07627 4.39201 6.08264 4.37609L7.74139 0.347725C7.78005 0.253867 7.75844 0.145942 7.68665 0.0741554ZM5.76025 3.83813L3.92271 2.00059L5.7701 1.23988L6.52093 1.99071L5.76025 3.83813ZM6.72838 1.48688L6.27393 1.03243L7.04649 0.71432L6.72838 1.48688Z" fill="white"/>
</svg>
