<svg width="39" height="29" viewBox="0 0 39 29" fill="white" xmlns="http://www.w3.org/2000/svg">
<path d="M6.83949 21.8829H5.73153C5.68892 21.6461 5.60961 21.4378 5.49361 21.2579C5.3776 21.0779 5.23556 20.9252 5.06747 20.7998C4.89938 20.6743 4.71117 20.5796 4.50284 20.5157C4.29688 20.4517 4.07789 20.4198 3.84588 20.4198C3.42685 20.4198 3.05161 20.5251 2.72017 20.7358C2.3911 20.9465 2.13068 21.2555 1.93892 21.6627C1.74953 22.0699 1.65483 22.567 1.65483 23.1542C1.65483 23.746 1.74953 24.2455 1.93892 24.6527C2.13068 25.0599 2.39228 25.3677 2.72372 25.576C3.05516 25.7844 3.42803 25.8885 3.84233 25.8885C4.07197 25.8885 4.28977 25.8578 4.49574 25.7962C4.70407 25.7323 4.89228 25.6388 5.06037 25.5157C5.22846 25.3926 5.3705 25.2422 5.48651 25.0647C5.60488 24.8848 5.68655 24.6788 5.73153 24.4468L6.83949 24.4503C6.7803 24.8078 6.66548 25.1369 6.49503 25.4375C6.32694 25.7358 6.11032 25.9939 5.84517 26.2117C5.58239 26.4271 5.28172 26.594 4.94318 26.7124C4.60464 26.8308 4.23532 26.89 3.83523 26.89C3.20549 26.89 2.64441 26.7408 2.15199 26.4425C1.65956 26.1419 1.27131 25.7122 0.987216 25.1535C0.705492 24.5947 0.564631 23.9283 0.564631 23.1542C0.564631 22.3776 0.706676 21.7112 0.990767 21.1549C1.27486 20.5962 1.66312 20.1677 2.15554 19.8694C2.64796 19.5687 3.20786 19.4184 3.83523 19.4184C4.22112 19.4184 4.58097 19.474 4.91477 19.5853C5.25095 19.6942 5.55279 19.8552 5.82031 20.0682C6.08783 20.2789 6.30919 20.537 6.48438 20.8424C6.65956 21.1454 6.77794 21.4922 6.83949 21.8829ZM8.15252 26.7905V19.5178H10.7449C11.3083 19.5178 11.7759 19.6149 12.1475 19.809C12.5216 20.0031 12.801 20.2718 12.9856 20.6151C13.1703 20.956 13.2626 21.3502 13.2626 21.7976C13.2626 22.2427 13.1691 22.6345 12.9821 22.9731C12.7974 23.3092 12.5181 23.5708 12.144 23.7579C11.7723 23.9449 11.3047 24.0384 10.7413 24.0384H8.77752V23.0938H10.6419C10.997 23.0938 11.2858 23.0429 11.5083 22.9411C11.7333 22.8393 11.8978 22.6913 12.002 22.4972C12.1061 22.3031 12.1582 22.0699 12.1582 21.7976C12.1582 21.523 12.1049 21.2851 11.9984 21.0839C11.8942 20.8826 11.7297 20.7287 11.5048 20.6222C11.2823 20.5133 10.9899 20.4589 10.6277 20.4589H9.24982V26.7905H8.15252ZM11.7427 23.5093L13.5396 26.7905H12.2896L10.5282 23.5093H11.7427ZM14.5978 26.7905V19.5178H19.1575V20.4624H15.6951V22.6783H18.9196V23.6194H15.6951V25.8459H19.2001V26.7905H14.5978ZM21.2376 26.7905H20.0728L22.69 19.5178H23.9577L26.5749 26.7905H25.4102L23.354 20.8388H23.2972L21.2376 26.7905ZM21.4329 23.9425H25.2113V24.8658H21.4329V23.9425ZM26.4071 20.4624V19.5178H32.0357V20.4624H29.7665V26.7905H28.6728V20.4624H26.4071ZM33.2795 26.7905V19.5178H37.8391V20.4624H34.3768V22.6783H37.6012V23.6194H34.3768V25.8459H37.8817V26.7905H33.2795Z" fill="white"/>
<g clip-path="url(#clip0_139_206)">
<path d="M27.6867 0.0739113C27.6149 0.00212513 27.507 -0.0194538 27.4131 0.019179L23.3846 1.67796C23.3687 1.68433 23.3534 1.69236 23.3387 1.70212C23.338 1.70258 23.3373 1.7032 23.3366 1.70369C23.3306 1.70782 23.3246 1.71209 23.3189 1.71684C23.3152 1.71985 23.3118 1.72321 23.3083 1.72644C23.3057 1.72884 23.3029 1.73106 23.3004 1.73361C23.3002 1.73377 20.414 4.62002 20.414 4.62002C20.3158 4.71822 20.3158 4.87746 20.414 4.97566C20.5121 5.07382 20.6714 5.07382 20.7696 4.97566L23.4782 2.26711L25.4935 4.28245L22.785 6.99099C22.6868 7.08919 22.6868 7.24843 22.785 7.34663C22.8341 7.39573 22.8984 7.42029 22.9628 7.42029C23.0271 7.42029 23.0915 7.39576 23.1406 7.34663L26.027 4.46022C26.0329 4.45428 26.0385 4.44809 26.0438 4.4416C26.0481 4.4364 26.0519 4.43098 26.0557 4.42553C26.0566 4.42424 26.0576 4.42304 26.0585 4.42174C26.0682 4.40712 26.0763 4.39176 26.0827 4.37585L27.7414 0.347481C27.7801 0.253623 27.7585 0.145697 27.6867 0.0739113ZM25.7603 3.83788L23.9227 2.00035L25.7701 1.23964L26.5209 1.99047L25.7603 3.83788ZM26.7284 1.48664L26.2739 1.03219L27.0465 0.714076L26.7284 1.48664Z" fill="white"/>
<path d="M19.347 10.7847C19.2488 10.6865 19.0895 10.6865 18.9913 10.7847L15.6278 14.1483L13.6124 12.1329L16.976 8.76937C17.0742 8.67117 17.0742 8.51193 16.976 8.41374C16.8778 8.31554 16.7185 8.31554 16.6203 8.41374L12.3677 12.6664C11.8774 13.1566 11.8774 13.9544 12.3677 14.4446L13.3161 15.393C13.5612 15.6382 13.8832 15.7607 14.2052 15.7607C14.5272 15.7607 14.8492 15.6382 15.0944 15.393L19.347 11.1403C19.4452 11.0421 19.4452 10.8829 19.347 10.7847ZM14.7387 15.0374C14.4445 15.3315 13.9659 15.3315 13.6717 15.0374L12.7233 14.089C12.4292 13.7948 12.4292 13.3162 12.7233 13.022L13.2568 12.4886L15.2721 14.5039L14.7387 15.0374Z" fill="white"/>
<path d="M27.3936 12.6665L16.461 1.73387C16.455 1.72793 16.4488 1.72233 16.4424 1.71703C16.4373 1.71291 16.4321 1.70918 16.4268 1.70549C16.4253 1.70447 16.424 1.7033 16.4225 1.70235C16.4159 1.69792 16.409 1.69385 16.4021 1.69016C16.3934 1.68542 16.3852 1.6816 16.3768 1.67828L12.3482 0.0194368C12.2544 -0.0192268 12.1465 0.00238295 12.0746 0.0741691C12.0028 0.145955 11.9813 0.25385 12.0199 0.347738L13.6787 4.37617C13.6851 4.39205 13.6931 4.40744 13.7028 4.42203C13.7037 4.42333 13.7048 4.42456 13.7056 4.42582C13.7094 4.43124 13.7132 4.43669 13.7175 4.44189C13.7228 4.44835 13.7284 4.45457 13.7344 4.46048L24.667 15.3931C24.9037 15.6298 25.2195 15.7602 25.5561 15.7602C25.8928 15.7602 26.2086 15.6298 26.4453 15.3931L27.3937 14.4447C27.8839 13.9545 27.8839 13.1568 27.3936 12.6665ZM12.7148 0.714334L13.4874 1.03245L13.0329 1.4869L12.7148 0.714334ZM13.2404 1.99072L13.9912 1.23989L15.8386 2.00057L14.0011 3.83814L13.2404 1.99072ZM14.2678 4.28268L16.2832 2.26734L26.1488 12.133L24.1335 14.1483L14.2678 4.28268ZM27.038 14.0891L26.0896 15.0375C25.9479 15.1792 25.7584 15.2572 25.5561 15.2572C25.3538 15.2572 25.1643 15.1792 25.0226 15.0375L24.4892 14.504L26.5045 12.4887L27.038 13.0222C27.3321 13.3163 27.3321 13.7949 27.038 14.0891Z" fill="white"/>
</g>
<defs>
<clipPath id="clip0_139_206">
<rect width="15.7609" height="15.7609" fill="white" transform="translate(12)"/>
</clipPath>
</defs>
</svg>
