<svg width="8" height="8" viewBox="0 0 8 8" fill="white" xmlns="http://www.w3.org/2000/svg">
<path d="M7.34703 2.78444C7.24877 2.68624 7.08956 2.68624 6.99133 2.78444L3.62779 6.14801L1.61245 4.13267L4.97599 0.769129C5.07419 0.670931 5.07419 0.51169 4.97599 0.413492C4.8778 0.315294 4.71855 0.315294 4.62036 0.413492L0.367704 4.66614C-0.122548 5.15639 -0.122548 5.95414 0.367704 6.44439L1.3161 7.39279C1.56126 7.63794 1.88325 7.76049 2.20524 7.76049C2.52723 7.76049 2.84922 7.63794 3.09438 7.39279L7.34706 3.1401C7.44526 3.04187 7.44526 2.88263 7.34703 2.78444ZM2.73868 7.03712C2.44455 7.33122 1.96587 7.33125 1.67174 7.03712L0.723341 6.08872C0.429208 5.79456 0.429208 5.31594 0.723341 5.02178L1.25681 4.48831L3.27215 6.50365L2.73868 7.03712Z" fill="white"/>
</svg>
