<svg width="16" height="16" viewBox="0 0 16 16" fill="white" xmlns="http://www.w3.org/2000/svg">
<path d="M15.3936 12.6665L4.46095 1.73387C4.45501 1.72793 4.44882 1.72233 4.44232 1.71703C4.43731 1.71291 4.43204 1.70918 4.42678 1.70549C4.4253 1.70447 4.42398 1.7033 4.4225 1.70235C4.41585 1.69792 4.40902 1.69385 4.40209 1.69016C4.39335 1.68542 4.38513 1.6816 4.37679 1.67828L0.348204 0.0194368C0.254346 -0.0192268 0.146421 0.00238295 0.0746039 0.0741691C0.00281777 0.145955 -0.0187612 0.25385 0.0199024 0.347738L1.67868 4.37617C1.68505 4.39205 1.69309 4.40744 1.70281 4.42203C1.70368 4.42333 1.70472 4.42456 1.70558 4.42582C1.70937 4.43124 1.71319 4.43669 1.7175 4.44189C1.72279 4.44835 1.72839 4.45457 1.73434 4.46048L12.667 15.3931C12.9037 15.6298 13.2195 15.7602 13.5561 15.7602C13.8928 15.7602 14.2085 15.6298 14.4453 15.3931L15.3937 14.4447C15.8838 13.9545 15.8838 13.1568 15.3936 12.6665ZM0.7148 0.714334L1.48736 1.03245L1.03288 1.4869L0.7148 0.714334ZM1.24036 1.99072L1.99119 1.23989L3.83861 2.00057L2.00107 3.83814L1.24036 1.99072ZM2.26781 4.28268L4.28314 2.26734L14.1488 12.133L12.1335 14.1483L2.26781 4.28268ZM15.038 14.0891L14.0896 15.0375C13.9478 15.1792 13.7584 15.2572 13.5561 15.2572C13.3538 15.2572 13.1643 15.1792 13.0226 15.0375L12.4891 14.504L14.5045 12.4887L15.038 13.0222C15.3321 13.3163 15.3321 13.7949 15.038 14.0891Z" fill="white"/>
</svg>
