<svg width="30" height="30" viewBox="0 0 30 30" fill="white" xmlns="http://www.w3.org/2000/svg">
<path d="M0.799006 20.7273H2.13068L4.44602 26.3807H4.53125L6.84659 20.7273H8.17827V28H7.13423V22.7372H7.06676L4.92188 27.9893H4.0554L1.91051 22.7337H1.84304V28H0.799006V20.7273ZM9.77362 28V20.7273H14.3333V21.6719H10.8709V23.8878H14.0953V24.8288H10.8709V27.0554H14.3759V28H9.77362ZM21.669 20.7273V28H20.6605L16.9638 22.6662H16.8963V28H15.799V20.7273H16.8146L20.5149 26.0682H20.5824V20.7273H21.669ZM27.9466 20.7273H29.0474V25.5107C29.0474 26.0196 28.9279 26.4706 28.6887 26.8636C28.4496 27.2543 28.1135 27.562 27.6802 27.7869C27.247 28.0095 26.7392 28.1207 26.1568 28.1207C25.5768 28.1207 25.0701 28.0095 24.6369 27.7869C24.2037 27.562 23.8675 27.2543 23.6284 26.8636C23.3893 26.4706 23.2697 26.0196 23.2697 25.5107V20.7273H24.367V25.4219C24.367 25.7509 24.4392 26.0433 24.5836 26.299C24.7304 26.5547 24.9376 26.7559 25.2051 26.9027C25.4726 27.0471 25.7898 27.1193 26.1568 27.1193C26.5261 27.1193 26.8445 27.0471 27.112 26.9027C27.3819 26.7559 27.5879 26.5547 27.7299 26.299C27.8743 26.0433 27.9466 25.7509 27.9466 25.4219V20.7273Z" fill="white"/>
<path d="M6 1.07422H23.6714" stroke="white"/>
<path d="M6.23877 6.56665H23.9101" stroke="white"/>
<path d="M6.23877 12.2983H23.9101" stroke="white"/>
</svg>
