<svg width="18" height="17" viewBox="0 0 18 17" fill="none" xmlns="http://www.w3.org/2000/svg">
<path d="M5.1005 0.980057C4.85964 1.12267 4.35742 1.41778 3.98755 1.62824C2.57932 2.44607 1.79207 3.1789 0.933591 4.47174C0.631587 4.93314 0.268441 5.57125 0.197225 5.77483C0.139617 5.94783 0.20394 6.09379 0.390727 6.20919C0.468834 6.25672 1.26952 6.67076 2.17218 7.12545C3.55319 7.82453 3.82816 7.95335 3.90945 7.93303C3.97059 7.91607 4.04181 7.84485 4.12663 7.72256C4.19449 7.61742 4.25209 7.53931 4.25899 7.54267C4.29963 7.58685 3.92305 11.6113 3.57351 14.8689C3.50566 15.5135 3.45812 16.0802 3.47173 16.1311C3.52262 16.3347 3.20365 16.3246 8.85018 16.3246H14.0081L14.1032 16.2432L14.1949 16.1617L14.1032 14.93C13.8588 11.703 13.6043 8.04171 13.6043 7.74306V7.60399L13.7672 7.77363C13.8623 7.87206 13.9607 7.94328 14.0014 7.94328C14.0692 7.94328 14.7886 7.55981 16.6007 6.55537C17.2861 6.1719 17.4761 6.05315 17.4931 5.98865C17.5167 5.89358 17.3132 5.49668 16.9094 4.84849C16.2647 3.81348 15.7828 3.18915 15.2704 2.71751C14.7545 2.23897 14.4831 2.06261 13.6043 1.61464C13.1463 1.38385 12.6372 1.11577 12.4709 1.02088C12.0095 0.752805 12.0604 0.756163 11.626 0.969986C11.1814 1.18381 10.5809 1.39074 10.0753 1.50278C9.76308 1.57063 9.62401 1.58088 8.93854 1.58088C8.25642 1.58088 8.11063 1.57063 7.7747 1.50278C7.12652 1.37378 6.39369 1.1057 5.92875 0.830912C5.81672 0.766412 5.68789 0.715517 5.637 0.718875C5.58575 0.718875 5.34471 0.837626 5.1005 0.980057ZM5.60943 1.5876C5.87751 2.14071 6.4239 2.81593 6.8853 3.16547C7.18059 3.38937 7.71321 3.64401 8.08996 3.73891C8.48014 3.83734 9.18594 3.84741 9.54237 3.75923C10.4823 3.52509 11.3307 2.8329 11.9584 1.78428C12.0501 1.63496 12.1247 1.50949 12.128 1.50596C12.1383 1.48899 13.7229 2.34411 13.7331 2.37468C13.7398 2.39165 13.6958 2.48672 13.6347 2.58515C13.3802 3.01615 13.1767 3.59294 13.0544 4.23424C12.9832 4.59385 12.9763 4.7331 12.9798 5.61861C12.9798 6.15812 13.0001 6.88423 13.0204 7.23042C13.0441 7.5766 13.1019 8.43843 13.1493 9.14758C13.2885 11.3022 13.6176 15.5678 13.6515 15.7204C13.6651 15.7781 13.4173 15.7816 8.85 15.7816C6.20319 15.7816 4.03491 15.7749 4.03491 15.768C4.03491 15.7613 4.10949 15.0519 4.20456 14.1968C4.76439 9.03554 4.96814 6.3108 4.88314 5.18425C4.80167 4.07802 4.54721 3.16176 4.15013 2.52736C4.06531 2.38829 4.00417 2.26264 4.01777 2.24904C4.04499 2.21847 5.47018 1.39728 5.49386 1.39728C5.50429 1.3941 5.55518 1.48228 5.60943 1.5876ZM6.58683 1.73339C7.34688 2.02868 8.18839 2.1575 9.2234 2.13046C9.99705 2.1135 10.3024 2.0626 10.9676 1.84878C11.1711 1.78092 11.3441 1.73339 11.351 1.74028C11.3749 1.76749 10.9303 2.29675 10.7233 2.49025C10.1466 3.01968 9.52558 3.29112 8.88075 3.29447C8.14103 3.29447 7.45892 2.99583 6.88884 2.41568C6.64444 2.16775 6.24065 1.6316 6.29826 1.6316C6.31187 1.6316 6.44423 1.67914 6.58683 1.73339ZM3.68891 2.71751C3.94002 3.10097 4.17752 3.82373 4.28956 4.54985C4.32349 4.76367 4.35406 5.23196 4.36431 5.72393L4.38463 6.54176L4.08598 6.94555C3.92305 7.16609 3.78398 7.35624 3.77727 7.35959C3.76702 7.3732 0.913269 5.84958 0.865909 5.80204C0.848945 5.78843 0.927052 5.61879 1.04916 5.4085C1.5581 4.53306 2.08753 3.81366 2.58639 3.32169C2.86807 3.04336 3.48215 2.54804 3.5433 2.54804C3.56326 2.54786 3.62777 2.62243 3.68891 2.71751ZM14.4896 2.81594C15.0394 3.22997 15.5789 3.82709 16.1117 4.61771C16.3662 4.99428 16.8753 5.83933 16.8548 5.85629C16.8378 5.86654 14.2385 7.2882 14.1571 7.32902C14.0892 7.36295 14.0654 7.33927 13.8178 7.00334L13.5531 6.64019L13.5124 6.0429C13.4309 4.87553 13.5836 3.88823 13.9671 3.10769C14.0892 2.85658 14.2182 2.64965 14.2521 2.64965C14.2624 2.64965 14.3709 2.72422 14.4896 2.81594Z" fill="white"/>
</svg>
