<svg width="33" height="31" viewBox="0 0 33 31" fill="white" xmlns="http://www.w3.org/2000/svg">
<g clip-path="url(#clip0_139_195)">
<path d="M13.1004 1.98006C12.8596 2.12267 12.3574 2.41778 11.9875 2.62824C10.5793 3.44607 9.792 4.1789 8.93353 5.47174C8.63153 5.93314 8.26838 6.57125 8.19716 6.77483C8.13956 6.94783 8.20388 7.09379 8.39067 7.20919C8.46877 7.25672 9.26946 7.67076 10.1721 8.12545C11.5531 8.82453 11.8281 8.95335 11.9094 8.93303C11.9705 8.91607 12.0417 8.84485 12.1266 8.72256C12.1944 8.61742 12.252 8.53931 12.2589 8.54267C12.2996 8.58685 11.923 12.6113 11.5735 15.8689C11.5056 16.5135 11.4581 17.0802 11.4717 17.1311C11.5226 17.3347 11.2036 17.3246 16.8501 17.3246H22.008L22.1031 17.2432L22.1948 17.1617L22.1031 15.93C21.8587 12.703 21.6042 9.04171 21.6042 8.74306V8.60399L21.7672 8.77363C21.8622 8.87206 21.9607 8.94328 22.0013 8.94328C22.0692 8.94328 22.7886 8.55981 24.6006 7.55537C25.2861 7.1719 25.476 7.05315 25.493 6.98865C25.5167 6.89358 25.3131 6.49668 24.9093 5.84849C24.2647 4.81348 23.7828 4.18915 23.2703 3.71751C22.7545 3.23897 22.483 3.06261 21.6042 2.61464C21.1462 2.38385 20.6371 2.11577 20.4708 2.02088C20.0094 1.7528 20.0603 1.75616 19.6259 1.96999C19.1813 2.18381 18.5809 2.39074 18.0753 2.50278C17.763 2.57063 17.6239 2.58088 16.9385 2.58088C16.2564 2.58088 16.1106 2.57063 15.7746 2.50278C15.1265 2.37378 14.3936 2.1057 13.9287 1.83091C13.8167 1.76641 13.6878 1.71552 13.6369 1.71887C13.5857 1.71887 13.3447 1.83763 13.1004 1.98006ZM13.6094 2.5876C13.8774 3.14071 14.4238 3.81593 14.8852 4.16547C15.1805 4.38937 15.7131 4.64401 16.0899 4.73891C16.4801 4.83734 17.1859 4.84741 17.5423 4.75923C18.4822 4.52509 19.3306 3.8329 19.9583 2.78428C20.05 2.63496 20.1246 2.50949 20.128 2.50596C20.1382 2.48899 21.7228 3.34411 21.7331 3.37468C21.7398 3.39165 21.6958 3.48672 21.6346 3.58515C21.3802 4.01615 21.1766 4.59294 21.0543 5.23424C20.9831 5.59385 20.9762 5.7331 20.9797 6.61861C20.9797 7.15812 21.0001 7.88423 21.0204 8.23042C21.0441 8.5766 21.1018 9.43843 21.1492 10.1476C21.2885 12.3022 21.6175 16.5678 21.6514 16.7204C21.665 16.7781 21.4173 16.7816 16.8499 16.7816C14.2031 16.7816 12.0349 16.7749 12.0349 16.768C12.0349 16.7613 12.1094 16.0519 12.2045 15.1968C12.7643 10.0355 12.9681 7.3108 12.8831 6.18425C12.8016 5.07802 12.5471 4.16176 12.1501 3.52736C12.0652 3.38829 12.0041 3.26264 12.0177 3.24904C12.0449 3.21847 13.4701 2.39728 13.4938 2.39728C13.5042 2.3941 13.5551 2.48228 13.6094 2.5876ZM14.5868 2.73339C15.3468 3.02868 16.1883 3.1575 17.2233 3.13046C17.997 3.1135 18.3024 3.0626 18.9675 2.84878C19.1711 2.78092 19.3441 2.73339 19.351 2.74028C19.3748 2.76749 18.9302 3.29675 18.7233 3.49025C18.1465 4.01968 17.5255 4.29112 16.8807 4.29447C16.141 4.29447 15.4589 3.99583 14.8888 3.41568C14.6444 3.16775 14.2406 2.6316 14.2982 2.6316C14.3118 2.6316 14.4442 2.67914 14.5868 2.73339ZM11.6888 3.71751C11.94 4.10097 12.1775 4.82373 12.2895 5.54985C12.3234 5.76367 12.354 6.23196 12.3642 6.72393L12.3846 7.54176L12.0859 7.94555C11.923 8.16609 11.7839 8.35624 11.7772 8.35959C11.767 8.3732 8.91321 6.84958 8.86585 6.80204C8.84888 6.78843 8.92699 6.61879 9.0491 6.4085C9.55804 5.53306 10.0875 4.81366 10.5863 4.32169C10.868 4.04336 11.4821 3.54804 11.5432 3.54804C11.5632 3.54786 11.6277 3.62243 11.6888 3.71751ZM22.4896 3.81594C23.0393 4.22997 23.5788 4.82709 24.1116 5.61771C24.3661 5.99428 24.8752 6.83933 24.8547 6.85629C24.8377 6.86654 22.2385 8.2882 22.157 8.32902C22.0891 8.36295 22.0653 8.33927 21.8177 8.00334L21.553 7.64019L21.5124 7.0429C21.4309 5.87553 21.5836 4.88823 21.967 4.10769C22.0891 3.85658 22.2181 3.64965 22.2521 3.64965C22.2623 3.64965 22.3708 3.72422 22.4896 3.81594Z" fill="white"/>
</g>
<path d="M4.76562 23.6378C4.72775 23.3016 4.5715 23.0412 4.29688 22.8565C4.02225 22.6695 3.67661 22.576 3.25994 22.576C2.96165 22.576 2.7036 22.6233 2.4858 22.718C2.26799 22.8104 2.09872 22.9382 1.97798 23.1016C1.85961 23.2625 1.80043 23.446 1.80043 23.652C1.80043 23.8248 1.84067 23.974 1.92116 24.0994C2.00402 24.2249 2.11174 24.3303 2.24432 24.4155C2.37926 24.4983 2.52367 24.5682 2.67756 24.625C2.83144 24.6795 2.9794 24.7244 3.12145 24.7599L3.83168 24.9446C4.06368 25.0014 4.30161 25.0784 4.54545 25.1754C4.7893 25.2725 5.01539 25.4003 5.22372 25.5589C5.43206 25.7176 5.60014 25.9141 5.72798 26.1484C5.85819 26.3828 5.9233 26.6634 5.9233 26.9901C5.9233 27.402 5.81676 27.7678 5.60369 28.0874C5.39299 28.407 5.08641 28.6591 4.68395 28.8438C4.28385 29.0284 3.79972 29.1207 3.23153 29.1207C2.68703 29.1207 2.21591 29.0343 1.81818 28.8615C1.42045 28.6887 1.10914 28.4437 0.884233 28.1264C0.659328 27.8068 0.535038 27.428 0.511364 26.9901H1.61222C1.63352 27.2528 1.71875 27.4718 1.8679 27.647C2.01941 27.8198 2.21236 27.9489 2.44673 28.0341C2.68348 28.117 2.94271 28.1584 3.22443 28.1584C3.53456 28.1584 3.81037 28.1098 4.05185 28.0128C4.29569 27.9134 4.48745 27.776 4.62713 27.6009C4.76681 27.4233 4.83665 27.2161 4.83665 26.9794C4.83665 26.764 4.77509 26.5876 4.65199 26.4503C4.53125 26.313 4.36671 26.1993 4.15838 26.1094C3.95241 26.0194 3.71922 25.9401 3.45881 25.8714L2.59943 25.6371C2.01705 25.4785 1.5554 25.2453 1.21449 24.9375C0.875947 24.6297 0.706676 24.2225 0.706676 23.7159C0.706676 23.2969 0.820313 22.9311 1.04759 22.6186C1.27486 22.3061 1.58262 22.0634 1.97088 21.8906C2.35914 21.7154 2.79711 21.6278 3.2848 21.6278C3.77723 21.6278 4.21165 21.7143 4.58807 21.8871C4.96686 22.0599 5.26515 22.2978 5.48295 22.6009C5.70076 22.9015 5.81439 23.2472 5.82386 23.6378H4.76562ZM6.87589 22.6719V21.7273H12.5044V22.6719H10.2353V29H9.14151V22.6719H6.87589ZM19.7532 25.3636C19.7532 26.1402 19.6112 26.8078 19.3271 27.3665C19.043 27.9228 18.6535 28.3513 18.1587 28.652C17.6663 28.9503 17.1064 29.0994 16.479 29.0994C15.8493 29.0994 15.2871 28.9503 14.7923 28.652C14.2998 28.3513 13.9116 27.9216 13.6275 27.3629C13.3434 26.8042 13.2013 26.1378 13.2013 25.3636C13.2013 24.5871 13.3434 23.9207 13.6275 23.3643C13.9116 22.8056 14.2998 22.3771 14.7923 22.0788C15.2871 21.7782 15.8493 21.6278 16.479 21.6278C17.1064 21.6278 17.6663 21.7782 18.1587 22.0788C18.6535 22.3771 19.043 22.8056 19.3271 23.3643C19.6112 23.9207 19.7532 24.5871 19.7532 25.3636ZM18.6665 25.3636C18.6665 24.7718 18.5707 24.2734 18.3789 23.8686C18.1895 23.4614 17.9291 23.1536 17.5977 22.9453C17.2686 22.7346 16.8957 22.6293 16.479 22.6293C16.06 22.6293 15.686 22.7346 15.3569 22.9453C15.0278 23.1536 14.7674 23.4614 14.5756 23.8686C14.3862 24.2734 14.2915 24.7718 14.2915 25.3636C14.2915 25.9555 14.3862 26.455 14.5756 26.8622C14.7674 27.267 15.0278 27.5748 15.3569 27.7855C15.686 27.9938 16.06 28.098 16.479 28.098C16.8957 28.098 17.2686 27.9938 17.5977 27.7855C17.9291 27.5748 18.1895 27.267 18.3789 26.8622C18.5707 26.455 18.6665 25.9555 18.6665 25.3636ZM21.1213 29V21.7273H23.7136C24.277 21.7273 24.7446 21.8243 25.1163 22.0185C25.4904 22.2126 25.7697 22.4813 25.9544 22.8246C26.139 23.1655 26.2314 23.5597 26.2314 24.0071C26.2314 24.4522 26.1378 24.844 25.9508 25.1825C25.7662 25.5187 25.4868 25.7803 25.1127 25.9673C24.7411 26.1544 24.2735 26.2479 23.71 26.2479H21.7463V25.3033H23.6106C23.9657 25.3033 24.2546 25.2524 24.4771 25.1506C24.702 25.0488 24.8665 24.9008 24.9707 24.7067C25.0749 24.5125 25.127 24.2794 25.127 24.0071C25.127 23.7325 25.0737 23.4946 24.9672 23.2933C24.863 23.0921 24.6984 22.9382 24.4735 22.8317C24.251 22.7228 23.9586 22.6683 23.5964 22.6683H22.2186V29H21.1213ZM24.7115 25.7188L26.5083 29H25.2583L23.497 25.7188H24.7115ZM27.5666 29V21.7273H32.1262V22.6719H28.6639V24.8878H31.8883V25.8288H28.6639V28.0554H32.1689V29H27.5666Z" fill="white"/>
<defs>
<clipPath id="clip0_139_195">
<rect width="17.6714" height="17.6714" fill="white" transform="translate(8 0.686035)"/>
</clipPath>
</defs>
</svg>
