<svg width="268" height="40" viewBox="0 0 268 40" fill="none" xmlns="http://www.w3.org/2000/svg">
<rect x="125" y="4" width="143" height="31" fill="#E34D4D"/>
<path d="M15.373 27.9824V32H5.3291V27.9824H15.373ZM6.82324 7.82812V32H1.95898V7.82812H6.82324ZM32.0762 18.0381V22.0723C32.0762 23.7767 31.8659 25.2708 31.4454 26.5547C31.0358 27.8275 30.4493 28.8955 29.6856 29.7588C28.933 30.611 28.0199 31.2529 26.9463 31.6846C25.8838 32.1162 24.7051 32.332 23.4102 32.332C22.1153 32.332 20.931 32.1162 19.8575 31.6846C18.795 31.2529 17.8763 30.611 17.1016 29.7588C16.3379 28.8955 15.7458 27.8275 15.3252 26.5547C14.9047 25.2708 14.6944 23.7767 14.6944 22.0723V18.0381C14.6944 16.2894 14.8991 14.762 15.3086 13.4561C15.7181 12.139 16.3103 11.0433 17.085 10.1689C17.8597 9.28353 18.7784 8.61947 19.8409 8.17676C20.9034 7.72298 22.0821 7.49609 23.377 7.49609C24.6719 7.49609 25.8506 7.72298 26.9131 8.17676C27.9756 8.61947 28.8942 9.28353 29.669 10.1689C30.4437 11.0433 31.0358 12.139 31.4454 13.4561C31.8659 14.762 32.0762 16.2894 32.0762 18.0381ZM27.2452 22.0723V18.0049C27.2452 16.8538 27.1621 15.8743 26.9961 15.0664C26.8301 14.2474 26.5811 13.5778 26.2491 13.0576C25.917 12.5374 25.5131 12.1556 25.0371 11.9121C24.5612 11.6686 24.0079 11.5469 23.377 11.5469C22.7461 11.5469 22.1872 11.6686 21.7002 11.9121C21.2243 12.1556 20.8204 12.5374 20.4883 13.0576C20.1674 13.5778 19.9239 14.2474 19.7579 15.0664C19.6029 15.8743 19.5254 16.8538 19.5254 18.0049V22.0723C19.5254 23.179 19.6084 24.1253 19.7745 24.9111C19.9405 25.6969 20.1895 26.3389 20.5215 26.8369C20.8536 27.335 21.2575 27.7057 21.7334 27.9492C22.2204 28.1816 22.7793 28.2979 23.4102 28.2979C24.03 28.2979 24.5778 28.1816 25.0538 27.9492C25.5407 27.7057 25.9447 27.335 26.2657 26.8369C26.5866 26.3389 26.8301 25.6969 26.9961 24.9111C27.1621 24.1253 27.2452 23.179 27.2452 22.0723ZM41.7403 21.458H36.7764L36.7598 17.9385H40.9766C41.6407 17.9385 42.183 17.8278 42.6036 17.6064C43.0352 17.374 43.3507 17.0365 43.5499 16.5938C43.7602 16.14 43.8653 15.5866 43.8653 14.9336C43.8653 14.2031 43.7657 13.6165 43.5665 13.1738C43.3783 12.7201 43.074 12.388 42.6534 12.1777C42.2439 11.9674 41.7016 11.8623 41.0264 11.8623H38.4366V32H33.5723V7.82812H41.0264C42.2328 7.82812 43.3119 7.96094 44.2638 8.22656C45.2156 8.49219 46.018 8.89616 46.671 9.43848C47.335 9.98079 47.8442 10.667 48.1983 11.4971C48.5525 12.3271 48.7296 13.3066 48.7296 14.4355C48.7296 15.4316 48.5304 16.3503 48.1319 17.1914C47.7335 18.0326 47.1082 18.7243 46.2559 19.2666C45.4148 19.7979 44.3136 20.0911 42.9522 20.1465L41.7403 21.458ZM41.5577 32H35.3985L37.3409 27.9824H41.5577C42.2107 27.9824 42.7309 27.8441 43.1182 27.5674C43.5056 27.2907 43.7878 26.9199 43.9649 26.4551C44.1531 25.9792 44.2471 25.4368 44.2471 24.8281C44.2471 24.1419 44.1641 23.5443 43.9981 23.0352C43.8432 22.526 43.5831 22.1387 43.2179 21.873C42.8526 21.5964 42.3601 21.458 41.7403 21.458H37.5567L37.5899 17.9385H42.67L43.8155 19.333C45.1104 19.2887 46.1453 19.5378 46.92 20.0801C47.6947 20.6113 48.2481 21.3086 48.5802 22.1719C48.9233 23.0241 49.0948 23.9316 49.0948 24.8945C49.0948 26.444 48.8015 27.75 48.2149 28.8125C47.6394 29.8639 46.7927 30.6608 45.6749 31.2031C44.557 31.7344 43.1846 32 41.5577 32ZM59.3732 12.1445L54.1769 32H49.047L56.6007 7.82812H59.8048L59.3732 12.1445ZM63.4738 32L58.2443 12.1445L57.7628 7.82812H61.0167L68.6368 32H63.4738ZM63.6564 22.9854V27.0195H52.7491V22.9854H63.6564ZM85.8048 7.82812V32H81.1066L73.5197 16.876V32H68.9044V7.82812H73.5363L81.1896 23.1182V7.82812H85.8048ZM104.666 18.0381V22.0723C104.666 23.7767 104.456 25.2708 104.035 26.5547C103.626 27.8275 103.039 28.8955 102.276 29.7588C101.523 30.611 100.61 31.2529 99.5363 31.6846C98.4738 32.1162 97.2951 32.332 96.0002 32.332C94.7053 32.332 93.521 32.1162 92.4475 31.6846C91.385 31.2529 90.4663 30.611 89.6916 29.7588C88.9279 28.8955 88.3358 27.8275 87.9152 26.5547C87.4947 25.2708 87.2844 23.7767 87.2844 22.0723V18.0381C87.2844 16.2894 87.4891 14.762 87.8986 13.4561C88.3081 12.139 88.9003 11.0433 89.675 10.1689C90.4497 9.28353 91.3684 8.61947 92.4309 8.17676C93.4934 7.72298 94.6721 7.49609 95.967 7.49609C97.2619 7.49609 98.4406 7.72298 99.5031 8.17676C100.566 8.61947 101.484 9.28353 102.259 10.1689C103.034 11.0433 103.626 12.139 104.035 13.4561C104.456 14.762 104.666 16.2894 104.666 18.0381ZM99.8352 22.0723V18.0049C99.8352 16.8538 99.7522 15.8743 99.5861 15.0664C99.4201 14.2474 99.1711 13.5778 98.8391 13.0576C98.507 12.5374 98.1031 12.1556 97.6272 11.9121C97.1512 11.6686 96.5979 11.5469 95.967 11.5469C95.3361 11.5469 94.7772 11.6686 94.2902 11.9121C93.8143 12.1556 93.4104 12.5374 93.0783 13.0576C92.7574 13.5778 92.5139 14.2474 92.3479 15.0664C92.1929 15.8743 92.1154 16.8538 92.1154 18.0049V22.0723C92.1154 23.179 92.1984 24.1253 92.3645 24.9111C92.5305 25.6969 92.7795 26.3389 93.1115 26.8369C93.4436 27.335 93.8475 27.7057 94.3234 27.9492C94.8104 28.1816 95.3693 28.2979 96.0002 28.2979C96.62 28.2979 97.1678 28.1816 97.6438 27.9492C98.1307 27.7057 98.5347 27.335 98.8557 26.8369C99.1766 26.3389 99.4201 25.6969 99.5861 24.9111C99.7522 24.1253 99.8352 23.179 99.8352 22.0723ZM113.318 26.8369L117.9 7.82812H123.146L116.14 32H112.604L113.318 26.8369ZM109.4 7.82812L113.965 26.8369L114.712 32H111.159L104.203 7.82812H109.4ZM143.072 27.9824V32H132.563V27.9824H143.072ZM134.074 7.82812V32H129.209V7.82812H134.074ZM141.66 17.623V21.5244H132.563V17.623H141.66ZM143.038 7.82812V11.8623H132.563V7.82812H143.038ZM148.154 7.82812L151.607 15.8965L154.894 7.82812H160.256L154.429 19.7979L160.372 32H154.794L151.358 23.749L147.921 32H142.459L148.502 19.6982L142.592 7.82812H148.154ZM171.946 23.9482H176.777C176.71 25.7633 176.345 27.2962 175.681 28.5469C175.017 29.7865 174.071 30.7272 172.842 31.3691C171.625 32.0111 170.153 32.332 168.426 32.332C167.087 32.332 165.897 32.1107 164.857 31.668C163.816 31.2142 162.931 30.5501 162.201 29.6758C161.47 28.8014 160.917 27.7223 160.54 26.4385C160.175 25.1436 159.993 23.6549 159.993 21.9727V17.8721C159.993 16.1898 160.186 14.7012 160.574 13.4062C160.972 12.1113 161.537 11.0267 162.267 10.1523C163.009 9.26693 163.899 8.60286 164.94 8.16016C165.991 7.70638 167.176 7.47949 168.493 7.47949C170.252 7.47949 171.724 7.81152 172.909 8.47559C174.093 9.13965 175.006 10.1081 175.648 11.3809C176.301 12.6426 176.694 14.1865 176.827 16.0127H171.962C171.94 14.8617 171.813 13.9596 171.58 13.3066C171.359 12.6426 171.005 12.1777 170.518 11.9121C170.031 11.6354 169.356 11.4971 168.493 11.4971C167.851 11.4971 167.297 11.6133 166.832 11.8457C166.368 12.0671 165.986 12.4268 165.687 12.9248C165.388 13.4229 165.167 14.0758 165.023 14.8838C164.89 15.6917 164.824 16.6768 164.824 17.8389V21.9727C164.824 23.1126 164.885 24.0866 165.006 24.8945C165.128 25.6914 165.322 26.3444 165.587 26.8535C165.853 27.3626 166.213 27.7334 166.666 27.9658C167.131 28.1982 167.718 28.3145 168.426 28.3145C169.245 28.3145 169.904 28.1927 170.402 27.9492C170.911 27.7057 171.287 27.2686 171.531 26.6377C171.774 26.0068 171.913 25.1104 171.946 23.9482ZM191.189 27.9824V32H181.145V27.9824H191.189ZM182.639 7.82812V32H177.775V7.82812H182.639ZM202.463 7.82812H207.311V24.4297C207.311 26.2891 206.968 27.8053 206.282 28.9785C205.607 30.1406 204.671 30.9928 203.476 31.5352C202.281 32.0664 200.914 32.332 199.375 32.332C197.826 32.332 196.448 32.0664 195.242 31.5352C194.035 30.9928 193.095 30.1406 192.419 28.9785C191.755 27.8053 191.423 26.2891 191.423 24.4297V7.82812H196.271V24.4297C196.271 25.4811 196.387 26.2891 196.62 26.8535C196.863 27.418 197.212 27.8053 197.666 28.0156C198.13 28.2148 198.7 28.3145 199.375 28.3145C200.062 28.3145 200.626 28.2148 201.069 28.0156C201.523 27.8053 201.866 27.418 202.098 26.8535C202.342 26.2891 202.463 25.4811 202.463 24.4297V7.82812ZM219.216 25.6416C219.216 25.21 219.178 24.8171 219.1 24.4629C219.023 24.1087 218.857 23.7822 218.602 23.4834C218.359 23.1846 217.999 22.8857 217.523 22.5869C217.058 22.2881 216.449 21.9782 215.697 21.6572C214.8 21.2809 213.931 20.8825 213.09 20.4619C212.249 20.0303 211.491 19.5322 210.816 18.9678C210.141 18.4033 209.604 17.7393 209.206 16.9756C208.818 16.2008 208.625 15.2933 208.625 14.2529C208.625 13.2347 208.807 12.3105 209.172 11.4805C209.549 10.6504 210.08 9.94206 210.766 9.35547C211.452 8.75781 212.255 8.2985 213.173 7.97754C214.103 7.65658 215.138 7.49609 216.278 7.49609C217.827 7.49609 219.167 7.81706 220.295 8.45898C221.435 9.10091 222.315 9.98079 222.935 11.0986C223.566 12.2165 223.881 13.5003 223.881 14.9502H219.034C219.034 14.264 218.934 13.6608 218.735 13.1406C218.547 12.6094 218.242 12.1943 217.822 11.8955C217.401 11.5967 216.859 11.4473 216.195 11.4473C215.575 11.4473 215.06 11.5745 214.651 11.8291C214.252 12.0726 213.954 12.4102 213.754 12.8418C213.566 13.2624 213.472 13.7383 213.472 14.2695C213.472 14.668 213.566 15.0277 213.754 15.3486C213.954 15.6585 214.225 15.9408 214.568 16.1953C214.911 16.4388 215.315 16.6768 215.78 16.9092C216.256 17.1416 216.776 17.3685 217.34 17.5898C218.436 18.0215 219.404 18.4974 220.246 19.0176C221.087 19.5267 221.79 20.1022 222.354 20.7441C222.918 21.375 223.345 22.0889 223.632 22.8857C223.92 23.6826 224.064 24.5902 224.064 25.6084C224.064 26.6156 223.887 27.5342 223.533 28.3643C223.19 29.1833 222.686 29.8916 222.022 30.4893C221.358 31.0758 220.556 31.5296 219.615 31.8506C218.685 32.1715 217.645 32.332 216.494 32.332C215.376 32.332 214.319 32.1771 213.323 31.8672C212.327 31.5462 211.447 31.0648 210.683 30.4229C209.931 29.7699 209.338 28.9453 208.907 27.9492C208.475 26.9421 208.259 25.7523 208.259 24.3799H213.124C213.124 25.1104 213.195 25.7357 213.339 26.2559C213.483 26.765 213.705 27.1745 214.003 27.4844C214.302 27.7832 214.667 28.0101 215.099 28.165C215.542 28.3089 216.045 28.3809 216.61 28.3809C217.252 28.3809 217.761 28.2591 218.137 28.0156C218.525 27.7721 218.801 27.4456 218.967 27.0361C219.133 26.6266 219.216 26.1618 219.216 25.6416ZM230.358 7.82812V32H225.527V7.82812H230.358ZM239.989 26.8369L244.571 7.82812H249.817L242.811 32H239.275L239.989 26.8369ZM236.071 7.82812L240.636 26.8369L241.383 32H237.831L230.875 7.82812H236.071ZM263.947 27.9824V32H253.438V27.9824H263.947ZM254.949 7.82812V32H250.085V7.82812H254.949ZM262.536 17.623V21.5244H253.438V17.623H262.536ZM263.914 7.82812V11.8623H253.438V7.82812H263.914Z" fill="black"/>
</svg>
