<svg width="177" height="41" viewBox="0 0 177 41" fill="none" xmlns="http://www.w3.org/2000/svg">
<path d="M19.4141 7.11719V32H14.5776L6.76758 16.4312V32H2.0166V7.11719H6.78467L14.6631 22.8569V7.11719H19.4141ZM37.7173 27.8643V32H26.8994V27.8643H37.7173ZM28.4546 7.11719V32H23.4473V7.11719H28.4546ZM36.2646 17.2002V21.2163H26.8994V17.2002H36.2646ZM37.6831 7.11719V11.27H26.8994V7.11719H37.6831ZM45.7153 28.2744L49.6973 7.11719H52.3291L53.1152 10.3984L48.8428 32H45.9888L45.7153 28.2744ZM44.3481 7.11719L47.561 28.3257L47.0142 32H43.8696L39.4092 7.11719H44.3481ZM56.0034 28.2402L59.1992 7.11719H64.1211L59.6948 32H56.5332L56.0034 28.2402ZM53.8501 7.11719L57.8662 28.394L57.5415 32H54.6875L50.4321 10.3643L51.2354 7.11719H53.8501Z" fill="black"/>
<path d="M80.5879 7.82812H81.5879V6.82812H80.5879V7.82812ZM80.5879 32V33H81.5879V32H80.5879ZM75.7568 32H74.7568V33H75.7568V32ZM75.7568 7.82812V6.82812H74.7568V7.82812H75.7568ZM86.5977 7.82812H87.5977V6.82812H86.5977V7.82812ZM86.5977 11.8623V12.8623H87.5977V11.8623H86.5977ZM69.8633 11.8623H68.8633V12.8623H69.8633V11.8623ZM69.8633 7.82812V6.82812H68.8633V7.82812H69.8633ZM79.5879 7.82812V32H81.5879V7.82812H79.5879ZM80.5879 31H75.7568V33H80.5879V31ZM76.7568 32V7.82812H74.7568V32H76.7568ZM75.7568 8.82812H80.5879V6.82812H75.7568V8.82812ZM85.5977 7.82812V11.8623H87.5977V7.82812H85.5977ZM86.5977 10.8623H69.8633V12.8623H86.5977V10.8623ZM70.8633 11.8623V7.82812H68.8633V11.8623H70.8633ZM69.8633 8.82812H86.5977V6.82812H69.8633V8.82812ZM102.817 17.623H103.817V16.623H102.817V17.623ZM102.817 21.6406V22.6406H103.817V21.6406H102.817ZM92.9062 21.6406H91.9062V22.6406H92.9062V21.6406ZM92.9062 17.623V16.623H91.9062V17.623H92.9062ZM94.2842 7.82812H95.2842V6.82812H94.2842V7.82812ZM94.2842 32V33H95.2842V32H94.2842ZM89.4199 32H88.4199V33H89.4199V32ZM89.4199 7.82812V6.82812H88.4199V7.82812H89.4199ZM106.337 7.82812H107.337V6.82812H106.337V7.82812ZM106.337 32V33H107.337V32H106.337ZM101.522 32H100.522V33H101.522V32ZM101.522 7.82812V6.82812H100.522V7.82812H101.522ZM101.817 17.623V21.6406H103.817V17.623H101.817ZM102.817 20.6406H92.9062V22.6406H102.817V20.6406ZM93.9062 21.6406V17.623H91.9062V21.6406H93.9062ZM92.9062 18.623H102.817V16.623H92.9062V18.623ZM93.2842 7.82812V32H95.2842V7.82812H93.2842ZM94.2842 31H89.4199V33H94.2842V31ZM90.4199 32V7.82812H88.4199V32H90.4199ZM89.4199 8.82812H94.2842V6.82812H89.4199V8.82812ZM105.337 7.82812V32H107.337V7.82812H105.337ZM106.337 31H101.522V33H106.337V31ZM102.522 32V7.82812H100.522V32H102.522ZM101.522 8.82812H106.337V6.82812H101.522V8.82812ZM115.352 7.82812H116.352V6.82812H115.352V7.82812ZM115.352 32V33H116.352V32H115.352ZM110.521 32H109.521V33H110.521V32ZM110.521 7.82812V6.82812H109.521V7.82812H110.521ZM114.352 7.82812V32H116.352V7.82812H114.352ZM115.352 31H110.521V33H115.352V31ZM111.521 32V7.82812H109.521V32H111.521ZM110.521 8.82812H115.352V6.82812H110.521V8.82812ZM136.402 7.82812H137.402V6.82812H136.402V7.82812ZM136.402 32V33H137.402V32H136.402ZM131.704 32L130.81 32.4484L131.087 33H131.704V32ZM124.117 16.876L125.011 16.4276L123.117 16.876H124.117ZM124.117 32V33H125.117V32H124.117ZM119.502 32H118.502V33H119.502V32ZM119.502 7.82812V6.82812H118.502V7.82812H119.502ZM124.134 7.82812L125.028 7.38052L124.752 6.82812H124.134V7.82812ZM131.787 23.1182L130.893 23.5658L132.787 23.1182H131.787ZM131.787 7.82812V6.82812H130.787V7.82812H131.787ZM135.402 7.82812V32H137.402V7.82812H135.402ZM136.402 31H131.704V33H136.402V31ZM132.598 31.5516L125.011 16.4276L123.223 17.3244L130.81 32.4484L132.598 31.5516ZM123.117 16.876V32H125.117V16.876H123.117ZM124.117 31H119.502V33H124.117V31ZM120.502 32V7.82812H118.502V32H120.502ZM119.502 8.82812H124.134V6.82812H119.502V8.82812ZM123.24 8.27573L130.893 23.5658L132.681 22.6706L125.028 7.38052L123.24 8.27573ZM132.787 23.1182V7.82812H130.787V23.1182H132.787ZM131.787 8.82812H136.402V6.82812H131.787V8.82812ZM156.739 19.2998H157.739V18.2998H156.739V19.2998ZM156.739 29.2607L157.468 29.9454L157.739 29.6568V29.2607H156.739ZM155.229 30.5391L155.818 31.3472L155.82 31.3455L155.229 30.5391ZM152.655 31.8008L152.974 32.7485L152.98 32.7465L152.655 31.8008ZM145.151 31.7012L144.79 32.6335L144.793 32.6348L145.151 31.7012ZM142.346 29.792L141.601 30.46L141.611 30.4699L142.346 29.792ZM140.569 26.5713L139.616 26.8728L139.617 26.8752L140.569 26.5713ZM140.536 13.29L139.58 12.9982L139.578 13.0034L140.536 13.29ZM142.263 10.0361L143.016 10.6933L142.263 10.0361ZM144.952 8.11035L144.581 7.18187L144.577 7.18324L144.952 8.11035ZM152.971 8.39258L152.507 9.27842L152.51 9.28021L152.971 8.39258ZM155.627 11.0986L154.732 11.5459L154.736 11.5524L155.627 11.0986ZM156.723 15.498V16.498H157.795L157.72 15.4282L156.723 15.498ZM152.024 15.498L151.027 15.5739L151.098 16.498H152.024V15.498ZM151.51 13.1074L150.595 13.5119L150.598 13.5192L150.602 13.5265L151.51 13.1074ZM150.431 11.8789L149.95 12.756L149.958 12.7604L149.967 12.7647L150.431 11.8789ZM146.944 11.8457L147.366 12.7524L147.375 12.7484L147.383 12.7443L146.944 11.8457ZM145.849 26.8701L145.019 27.429L145.023 27.4351L145.028 27.4412L145.849 26.8701ZM147.177 27.9824L146.776 28.8986L146.787 28.9036L146.799 28.9083L147.177 27.9824ZM151.344 27.75L151.878 28.5956L151.889 28.5884L151.344 27.75ZM151.892 27.418L152.366 28.2984L152.892 28.0153V27.418H151.892ZM151.892 22.9688H152.892V21.9688H151.892V22.9688ZM148.422 22.9688H147.422V23.9688H148.422V22.9688ZM148.422 19.2998V18.2998H147.422V19.2998H148.422ZM155.739 19.2998V29.2607H157.739V19.2998H155.739ZM156.01 28.5761C155.727 28.8774 155.279 29.262 154.637 29.7327L155.82 31.3455C156.506 30.8421 157.065 30.3746 157.468 29.9454L156.01 28.5761ZM154.64 29.7309C154.092 30.1302 153.332 30.5106 152.33 30.8551L152.98 32.7465C154.103 32.3605 155.059 31.8998 155.818 31.3472L154.64 29.7309ZM152.336 30.8531C151.417 31.1625 150.248 31.332 148.804 31.332V33.332C150.392 33.332 151.79 33.1474 152.974 32.7485L152.336 30.8531ZM148.804 31.332C147.57 31.332 146.476 31.1385 145.51 30.7676L144.793 32.6348C146.018 33.105 147.359 33.332 148.804 33.332V31.332ZM145.513 30.7688C144.57 30.4032 143.763 29.8537 143.081 29.1141L141.611 30.4699C142.5 31.4347 143.563 32.158 144.79 32.6335L145.513 30.7688ZM143.09 29.1241C142.424 28.3817 141.895 27.4382 141.522 26.2674L139.617 26.8752C140.062 28.2721 140.718 29.4757 141.601 30.4599L143.09 29.1241ZM141.523 26.2698C141.152 25.0968 140.955 23.6705 140.955 21.9727H138.955C138.955 23.8165 139.168 25.4559 139.616 26.8728L141.523 26.2698ZM140.955 21.9727V17.8555H138.955V21.9727H140.955ZM140.955 17.8555C140.955 16.177 141.141 14.7559 141.494 13.5766L139.578 13.0034C139.156 14.414 138.955 16.0366 138.955 17.8555H140.955ZM141.493 13.5818C141.858 12.3851 142.372 11.432 143.016 10.6933L141.509 9.379C140.648 10.3668 140.011 11.583 139.58 12.9982L141.493 13.5818ZM143.016 10.6933C143.668 9.94599 144.435 9.39785 145.327 9.03746L144.577 7.18324C143.388 7.664 142.363 8.39971 141.509 9.379L143.016 10.6933ZM145.324 9.03883C146.239 8.67255 147.295 8.47949 148.505 8.47949V6.47949C147.081 6.47949 145.768 6.70701 144.581 7.18187L145.324 9.03883ZM148.505 8.47949C150.217 8.47949 151.532 8.76786 152.507 9.27841L153.435 7.50675C152.085 6.79985 150.423 6.47949 148.505 6.47949V8.47949ZM152.51 9.28021C153.494 9.79048 154.228 10.5372 154.733 11.5458L156.521 10.6514C155.83 9.26942 154.794 8.21212 153.431 7.50495L152.51 9.28021ZM154.736 11.5524C155.268 12.5983 155.61 13.926 155.725 15.5679L157.72 15.4282C157.592 13.5949 157.203 11.9896 156.518 10.6448L154.736 11.5524ZM156.723 14.498H152.024V16.498H156.723V14.498ZM153.022 15.4222C152.94 14.3487 152.754 13.4178 152.418 12.6884L150.602 13.5265C150.796 13.9481 150.954 14.6109 151.027 15.5739L153.022 15.4222ZM152.424 12.7029C152.097 11.9633 151.598 11.3612 150.895 10.9931L149.967 12.7647C150.193 12.8835 150.413 13.1005 150.595 13.5119L152.424 12.7029ZM150.911 11.0018C150.252 10.6408 149.467 10.4971 148.621 10.4971V12.4971C149.258 12.4971 149.68 12.6079 149.95 12.756L150.911 11.0018ZM148.621 10.4971C147.859 10.4971 147.144 10.6353 146.506 10.9471L147.383 12.7443C147.696 12.5913 148.099 12.4971 148.621 12.4971V10.4971ZM146.523 10.939C145.848 11.2528 145.311 11.7608 144.903 12.4081L146.595 13.4747C146.829 13.1038 147.089 12.8813 147.366 12.7524L146.523 10.939ZM144.903 12.4081C144.497 13.0515 144.224 13.8309 144.054 14.7095L146.017 15.0913C146.156 14.3762 146.359 13.8495 146.595 13.4747L144.903 12.4081ZM144.054 14.7095C143.882 15.5893 143.803 16.6314 143.803 17.8223H145.803C145.803 16.7111 145.878 15.8053 146.017 15.0913L144.054 14.7095ZM143.803 17.8223V21.9727H145.803V17.8223H143.803ZM143.803 21.9727C143.803 23.1597 143.895 24.2096 144.092 25.1086L146.045 24.6804C145.888 23.9636 145.803 23.0656 145.803 21.9727H143.803ZM144.092 25.1086C144.287 25.9996 144.586 26.7858 145.019 27.429L146.678 26.3113C146.425 25.9362 146.204 25.4054 146.045 24.6804L144.092 25.1086ZM145.028 27.4412C145.48 28.0909 146.064 28.5869 146.776 28.8986L147.578 27.0663C147.227 26.9131 146.926 26.6675 146.67 26.2991L145.028 27.4412ZM146.799 28.9083C147.487 29.1891 148.257 29.3145 149.086 29.3145V27.3145C148.454 27.3145 147.951 27.2185 147.555 27.0566L146.799 28.9083ZM149.086 29.3145C149.728 29.3145 150.321 29.2496 150.822 29.0775L150.172 27.1861C149.964 27.2575 149.617 27.3145 149.086 27.3145V29.3145ZM150.822 29.0775C151.217 28.9419 151.578 28.7849 151.878 28.5955L150.81 26.9045C150.689 26.9808 150.486 27.0783 150.172 27.1861L150.822 29.0775ZM151.889 28.5884C152.099 28.4517 152.256 28.3575 152.366 28.2984L151.418 26.5375C151.239 26.6334 151.031 26.7606 150.799 26.9116L151.889 28.5884ZM152.892 27.418V22.9688H150.892V27.418H152.892ZM151.892 21.9688H148.422V23.9688H151.892V21.9688ZM149.422 22.9688V19.2998H147.422V22.9688H149.422ZM148.422 20.2998H156.739V18.2998H148.422V20.2998ZM169.854 23.4834L169.079 24.1151L169.086 24.1235L169.093 24.1319L169.854 23.4834ZM168.775 22.5869L168.235 23.4281L168.244 23.4338L168.775 22.5869ZM166.949 21.6572L167.342 20.7374L167.336 20.7352L166.949 21.6572ZM164.343 20.4619L163.886 21.3517L163.896 21.3563L164.343 20.4619ZM162.068 18.9678L161.427 19.735L162.068 18.9678ZM160.458 16.9756L159.564 17.4228L159.567 17.4305L159.571 17.4382L160.458 16.9756ZM160.425 11.4805L159.514 11.0676L159.509 11.0777L160.425 11.4805ZM162.019 9.35547L162.668 10.1156L162.675 10.1096L162.019 9.35547ZM164.426 7.97754L164.099 7.03228L164.096 7.0335L164.426 7.97754ZM171.548 8.45898L171.054 9.32828L171.057 9.33033L171.548 8.45898ZM174.188 11.0986L173.313 11.5836L173.317 11.5901L174.188 11.0986ZM175.134 14.9502V15.9502H176.134V14.9502H175.134ZM170.286 14.9502H169.286V15.9502H170.286V14.9502ZM169.987 13.1406L169.045 13.4745L169.049 13.4864L169.053 13.4983L169.987 13.1406ZM165.903 11.8291L166.425 12.6824L166.431 12.6784L165.903 11.8291ZM165.007 12.8418L164.099 12.4227L164.094 12.4334L165.007 12.8418ZM165.007 15.3486L164.144 15.8544L164.155 15.8721L164.166 15.8894L165.007 15.3486ZM165.82 16.1953L165.224 16.9984L165.233 17.0047L165.242 17.0108L165.82 16.1953ZM167.032 16.9092L166.585 17.8036L166.593 17.8077L167.032 16.9092ZM168.593 17.5898L168.959 16.6594L168.958 16.6589L168.593 17.5898ZM171.498 19.0176L170.972 19.8681L170.98 19.8731L171.498 19.0176ZM173.606 20.7441L172.855 21.4045L172.861 21.4109L173.606 20.7441ZM174.785 28.3643L173.865 27.9718L173.863 27.9779L174.785 28.3643ZM173.274 30.4893L173.936 31.2388L173.943 31.2326L173.274 30.4893ZM170.867 31.8506L170.544 30.9041L170.541 30.9053L170.867 31.8506ZM164.575 31.8672L164.268 32.819L164.278 32.822L164.575 31.8672ZM161.936 30.4229L161.28 31.1782L161.286 31.1833L161.292 31.1883L161.936 30.4229ZM160.159 27.9492L159.24 28.3431L159.242 28.3468L160.159 27.9492ZM159.512 24.3799V23.3799H158.512V24.3799H159.512ZM164.376 24.3799H165.376V23.3799H164.376V24.3799ZM164.592 26.2559L163.628 26.5224L163.629 26.5278L164.592 26.2559ZM165.256 27.4844L164.536 28.1785L164.542 28.1851L164.549 28.1915L165.256 27.4844ZM166.352 28.165L166.014 29.1062L166.028 29.1114L166.042 29.1161L166.352 28.165ZM169.39 28.0156L168.857 27.1689L168.846 27.1761L169.39 28.0156ZM171.469 25.6416C171.469 25.1513 171.425 24.6853 171.329 24.2492L169.376 24.6766C169.435 24.9488 169.469 25.2687 169.469 25.6416H171.469ZM171.329 24.2492C171.214 23.7215 170.968 23.2482 170.616 22.8349L169.093 24.1319C169.25 24.3163 169.336 24.4959 169.376 24.6766L171.329 24.2492ZM170.63 22.8517C170.294 22.4392 169.837 22.0728 169.307 21.74L168.244 23.4338C168.666 23.6987 168.928 23.9299 169.079 24.1151L170.63 22.8517ZM169.316 21.7457C168.788 21.4059 168.124 21.071 167.342 20.7374L166.557 22.5771C167.28 22.8854 167.834 23.1703 168.235 23.4281L169.316 21.7457ZM167.336 20.7352C166.459 20.3671 165.611 19.9779 164.79 19.5675L163.896 21.3563C164.757 21.7871 165.646 22.1947 166.562 22.5793L167.336 20.7352ZM164.799 19.5722C164.019 19.1719 163.324 18.7141 162.71 18.2006L161.427 19.735C162.163 20.3504 162.984 20.8886 163.886 21.3516L164.799 19.5722ZM162.71 18.2006C162.133 17.7187 161.681 17.1574 161.345 16.513L159.571 17.4382C160.032 18.3211 160.653 19.088 161.427 19.735L162.71 18.2006ZM161.352 16.5284C161.047 15.9177 160.877 15.1689 160.877 14.2529H158.877C158.877 15.4177 159.094 16.484 159.564 17.4228L161.352 16.5284ZM160.877 14.2529C160.877 13.3563 161.037 12.5716 161.34 11.8832L159.509 11.0777C159.082 12.0495 158.877 13.1131 158.877 14.2529H160.877ZM161.336 11.8934C161.652 11.1954 162.095 10.606 162.668 10.1156L161.369 8.59535C160.57 9.2781 159.95 10.1054 159.514 11.0676L161.336 11.8934ZM162.675 10.1096C163.259 9.60108 163.949 9.20352 164.756 8.92157L164.096 7.0335C163.066 7.39348 162.15 7.91454 161.362 8.60139L162.675 10.1096ZM164.752 8.92279C165.562 8.64332 166.484 8.49609 167.53 8.49609V6.49609C166.297 6.49609 165.149 6.66983 164.099 7.03229L164.752 8.92279ZM167.53 8.49609C168.94 8.49609 170.102 8.78719 171.054 9.32827L172.042 7.58969C170.736 6.84693 169.22 6.49609 167.53 6.49609V8.49609ZM171.057 9.33033C172.04 9.88371 172.785 10.6315 173.313 11.5835L175.062 10.6137C174.35 9.33006 173.336 8.31812 172.039 7.58764L171.057 9.33033ZM173.317 11.5901C173.852 12.5394 174.134 13.6498 174.134 14.9502H176.134C176.134 13.3508 175.784 11.8936 175.058 10.6071L173.317 11.5901ZM175.134 13.9502H170.286V15.9502H175.134V13.9502ZM171.286 14.9502C171.286 14.1691 171.173 13.4404 170.921 12.783L169.053 13.4983C169.2 13.8812 169.286 14.3589 169.286 14.9502H171.286ZM170.93 12.8068C170.68 12.1003 170.257 11.5094 169.653 11.0803L168.495 12.7107C168.732 12.8792 168.919 13.1184 169.045 13.4745L170.93 12.8068ZM169.653 11.0803C169.021 10.6309 168.259 10.4473 167.447 10.4473V12.4473C167.963 12.4473 168.286 12.5625 168.495 12.7107L169.653 11.0803ZM167.447 10.4473C166.693 10.4473 165.983 10.6023 165.375 10.9798L166.431 12.6784C166.643 12.5468 166.962 12.4473 167.447 12.4473V10.4473ZM165.382 10.9758C164.811 11.3246 164.379 11.8147 164.099 12.4227L165.915 13.2609C166.033 13.0056 166.199 12.8206 166.425 12.6824L165.382 10.9758ZM164.094 12.4334C163.84 13.0007 163.725 13.619 163.725 14.2695H165.725C165.725 13.8576 165.797 13.5241 165.92 13.2502L164.094 12.4334ZM163.725 14.2695C163.725 14.8327 163.86 15.3691 164.144 15.8544L165.87 14.8429C165.778 14.6862 165.725 14.5033 165.725 14.2695H163.725ZM164.166 15.8894C164.44 16.3156 164.8 16.6832 165.224 16.9984L166.416 15.3922C166.155 15.1983 165.972 15.0014 165.848 14.8079L164.166 15.8894ZM165.242 17.0108C165.635 17.2899 166.085 17.5534 166.585 17.8036L167.479 16.0148C167.05 15.8001 166.692 15.5877 166.399 15.3798L165.242 17.0108ZM166.593 17.8077C167.097 18.0535 167.642 18.291 168.228 18.5208L168.958 16.6589C168.415 16.446 167.92 16.2297 167.471 16.0106L166.593 17.8077ZM168.226 18.5203C169.277 18.9341 170.19 19.3845 170.972 19.8681L172.024 18.1671C171.124 17.6103 170.1 17.1089 168.959 16.6594L168.226 18.5203ZM170.98 19.8731C171.747 20.3372 172.368 20.8496 172.855 21.4045L174.357 20.0838C173.716 19.3548 172.931 18.7162 172.016 18.1621L170.98 19.8731ZM172.861 21.4109C173.34 21.9462 173.7 22.549 173.944 23.2254L175.825 22.5461C175.494 21.6288 175.002 20.8038 174.352 20.0773L172.861 21.4109ZM173.944 23.2254C174.186 23.8939 174.316 24.6833 174.316 25.6084H176.316C176.316 24.4971 176.159 23.4714 175.825 22.5461L173.944 23.2254ZM174.316 25.6084C174.316 26.4963 174.161 27.2794 173.865 27.9718L175.705 28.7567C176.118 27.7889 176.316 26.7348 176.316 25.6084H174.316ZM173.863 27.9779C173.577 28.6598 173.16 29.2465 172.605 29.746L173.943 31.2326C174.717 30.5367 175.307 29.7067 175.707 28.7506L173.863 27.9779ZM172.612 29.7398C172.059 30.2289 171.375 30.6206 170.544 30.9042L171.19 32.797C172.241 32.4386 173.162 31.9228 173.936 31.2387L172.612 29.7398ZM170.541 30.9053C169.732 31.1845 168.805 31.332 167.746 31.332V33.332C168.99 33.332 170.143 33.1586 171.194 32.7958L170.541 30.9053ZM167.746 31.332C166.722 31.332 165.766 31.1902 164.872 30.9123L164.278 32.822C165.377 33.1639 166.535 33.332 167.746 33.332V31.332ZM164.882 30.9154C164.003 30.6322 163.239 30.2119 162.579 29.6574L161.292 31.1883C162.16 31.9176 163.155 32.4603 164.269 32.819L164.882 30.9154ZM162.591 29.6675C161.961 29.1212 161.454 28.4228 161.077 27.5516L159.242 28.3468C159.727 29.4678 160.405 30.4185 161.28 31.1782L162.591 29.6675ZM161.078 27.5553C160.712 26.6998 160.512 25.6499 160.512 24.3799H158.512C158.512 25.8546 158.743 27.1843 159.24 28.3431L161.078 27.5553ZM159.512 25.3799H164.376V23.3799H159.512V25.3799ZM163.376 24.3799C163.376 25.171 163.453 25.891 163.628 26.5224L165.556 25.9893C165.443 25.5804 165.376 25.0497 165.376 24.3799H163.376ZM163.629 26.5278C163.808 27.1596 164.099 27.7258 164.536 28.1785L165.976 26.7902C165.815 26.6231 165.663 26.3703 165.554 25.9839L163.629 26.5278ZM164.549 28.1915C164.961 28.6033 165.455 28.9058 166.014 29.1062L166.689 27.2238C166.385 27.1144 166.149 26.9631 165.963 26.7773L164.549 28.1915ZM166.042 29.1161C166.604 29.2984 167.214 29.3809 167.862 29.3809V27.3809C167.381 27.3809 166.985 27.3194 166.661 27.214L166.042 29.1161ZM167.862 29.3809C168.618 29.3809 169.339 29.2395 169.933 28.8552L168.846 27.1761C168.688 27.2788 168.391 27.3809 167.862 27.3809V29.3809ZM169.922 28.8623C170.48 28.5113 170.899 28.0231 171.146 27.4118L169.293 26.6604C169.209 26.8682 169.074 27.033 168.857 27.169L169.922 28.8623ZM171.146 27.4118C171.369 26.8638 171.469 26.2681 171.469 25.6416H169.469C169.469 26.0554 169.403 26.3894 169.293 26.6604L171.146 27.4118Z" fill="black"/>
</svg>
