<svg width="21" height="21" viewBox="0 0 21 21" fill="none" xmlns="http://www.w3.org/2000/svg">
<path d="M20.8863 5.38143L15.6186 0.113594C15.5458 0.0408369 15.4472 0 15.3444 0C15.2416 0 15.143 0.0408369 15.0703 0.113594L0.113594 15.0702C-0.0378646 15.2216 -0.0378646 15.4671 0.113594 15.6184L5.3813 20.8863C5.45406 20.9591 5.55259 20.9999 5.65546 20.9999C5.75826 20.9999 5.85687 20.9591 5.92956 20.8863L7.5076 19.3083L7.50766 19.3082C7.50766 19.3082 7.50766 19.3082 7.50773 19.3082L9.44541 17.3705L9.44548 17.3704L9.44554 17.3704L11.3828 15.4331C11.3831 15.4329 11.3834 15.4327 11.3837 15.4324C11.3839 15.4322 11.3841 15.4318 11.3844 15.4316L13.3207 13.4952C13.321 13.4949 13.3214 13.4947 13.3216 13.4945C13.3219 13.4942 13.3221 13.4939 13.3223 13.4936L15.2594 11.5566C15.2594 11.5566 15.2595 11.5565 15.2596 11.5564C15.2596 11.5563 15.2597 11.5563 15.2598 11.5562L17.1972 9.61871C17.1973 9.61865 17.1974 9.61858 17.1974 9.61852C17.1974 9.61852 17.1976 9.61832 17.1976 9.61826L20.8864 5.9295C21.0377 5.7783 21.0377 5.53282 20.8863 5.38143ZM16.9232 8.79629L16.0591 7.93225C15.9077 7.78092 15.6622 7.78086 15.5108 7.93231C15.3594 8.08371 15.3594 8.32918 15.5109 8.48057L16.3749 9.34455L14.9853 10.7342L14.1212 9.87013C13.9698 9.7188 13.7243 9.71874 13.5729 9.87019C13.4215 10.0216 13.4215 10.2671 13.573 10.4185L14.437 11.2824L13.0473 12.6721L12.1832 11.808C12.0318 11.6567 11.7863 11.6566 11.6349 11.8081C11.4835 11.9595 11.4835 12.2049 11.635 12.3563L12.4991 13.2204L11.1095 14.6101L10.2452 13.746C10.0938 13.5946 9.84835 13.5946 9.69696 13.746C9.54557 13.8974 9.54557 14.143 9.69702 14.2943L10.5612 15.1583L9.17151 16.548L8.30741 15.6839C8.15595 15.5325 7.91041 15.5324 7.75914 15.6838C7.60769 15.8353 7.60769 16.0808 7.75908 16.2321L8.62318 17.0963L7.23356 18.4859L6.36927 17.6219C6.21781 17.4706 5.9724 17.4705 5.82101 17.622C5.66961 17.7734 5.66961 18.0189 5.82107 18.1702L6.68524 19.0343L5.65546 20.064L0.935954 15.3443L15.3444 0.935954L20.0639 5.65553L16.9232 8.79629Z" fill="black"/>
</svg>
