<svg width="12" height="374" viewBox="0 0 12 374" fill="none" xmlns="http://www.w3.org/2000/svg">
<line x1="6.5" y1="159.5" x2="6.5" y2="26" stroke="white"/>
<line x1="6.5" y1="213" x2="6.5" y2="346.5" stroke="white"/>
<circle cx="7" cy="361" r="1" fill="#D9D9D9"/>
<circle cx="7" cy="366.74" r="1" fill="#D9D9D9"/>
<circle cx="7" cy="372.479" r="1" fill="#D9D9D9"/>
<circle cx="6" cy="1" r="1" fill="#D9D9D9"/>
<circle cx="6" cy="6.7395" r="1" fill="#D9D9D9"/>
<circle cx="6" cy="12.4795" r="1" fill="#D9D9D9"/>
<path d="M9.47949 171.071L3 169.128L3 168.21L10.1094 170.5L10.1094 171.076L9.47949 171.071ZM3 172.644L9.47949 170.7L10.1094 170.69L10.1094 171.271L3 173.562L3 172.644ZM5.63184 172.644L4.86035 172.644L4.86035 169.216L5.63184 169.216L5.63184 172.644ZM5.26074 177.589L5.26074 178.487C4.77246 178.465 4.35091 178.365 3.99609 178.19C3.64453 178.017 3.37435 177.765 3.18555 177.433C2.99674 177.104 2.90234 176.692 2.90234 176.197C2.90234 175.843 2.97233 175.522 3.1123 175.236C3.25228 174.949 3.45247 174.703 3.71289 174.498C3.97656 174.296 4.29232 174.142 4.66016 174.034C5.02799 173.927 5.44141 173.873 5.90039 173.873L7.21387 173.873C7.6696 173.873 8.08138 173.927 8.44922 174.034C8.81706 174.145 9.13118 174.303 9.3916 174.508C9.65527 174.716 9.8571 174.969 9.99707 175.265C10.137 175.564 10.207 175.903 10.207 176.28C10.207 176.743 10.1143 177.133 9.92871 177.452C9.74642 177.775 9.47786 178.022 9.12305 178.195C8.77148 178.37 8.34017 178.468 7.8291 178.487L7.8291 177.589C8.20345 177.566 8.50781 177.508 8.74219 177.413C8.97982 177.319 9.15397 177.179 9.26465 176.993C9.37858 176.811 9.43555 176.573 9.43555 176.28C9.43555 176.02 9.38346 175.794 9.2793 175.602C9.17513 175.413 9.02539 175.257 8.83008 175.133C8.63802 175.013 8.40527 174.921 8.13184 174.86C7.86165 174.801 7.55892 174.772 7.22363 174.772L5.90039 174.772C5.58789 174.772 5.29655 174.796 5.02637 174.845C4.75618 174.897 4.51855 174.978 4.31348 175.089C4.11165 175.203 3.95378 175.351 3.83984 175.533C3.72591 175.716 3.66895 175.937 3.66895 176.197C3.66895 176.526 3.72266 176.787 3.83008 176.979C3.9375 177.171 4.1084 177.312 4.34277 177.404C4.57715 177.498 4.88314 177.56 5.26074 177.589ZM5.26074 182.813L5.26074 183.711C4.77246 183.689 4.35091 183.589 3.99609 183.413C3.64453 183.241 3.37435 182.989 3.18555 182.657C2.99674 182.328 2.90234 181.916 2.90234 181.421C2.90234 181.066 2.97233 180.746 3.1123 180.459C3.25228 180.173 3.45247 179.927 3.71289 179.722C3.97656 179.52 4.29232 179.366 4.66016 179.258C5.02799 179.151 5.44141 179.097 5.90039 179.097L7.21387 179.097C7.6696 179.097 8.08138 179.151 8.44922 179.258C8.81706 179.369 9.13118 179.527 9.3916 179.732C9.65527 179.94 9.8571 180.192 9.99707 180.489C10.137 180.788 10.207 181.127 10.207 181.504C10.207 181.967 10.1143 182.357 9.92871 182.676C9.74642 182.998 9.47786 183.246 9.12305 183.418C8.77148 183.594 8.34017 183.692 7.8291 183.711L7.8291 182.813C8.20345 182.79 8.50781 182.732 8.74219 182.637C8.97982 182.543 9.15397 182.403 9.26465 182.217C9.37858 182.035 9.43555 181.797 9.43555 181.504C9.43555 181.244 9.38346 181.018 9.2793 180.826C9.17513 180.637 9.02539 180.481 8.83008 180.357C8.63802 180.236 8.40527 180.145 8.13184 180.083C7.86165 180.025 7.55892 179.996 7.22363 179.996L5.90039 179.996C5.58789 179.996 5.29655 180.02 5.02637 180.069C4.75618 180.121 4.51855 180.202 4.31348 180.313C4.11165 180.427 3.95378 180.575 3.83984 180.757C3.72591 180.94 3.66894 181.161 3.66894 181.421C3.66894 181.75 3.72266 182.01 3.83008 182.203C3.9375 182.395 4.1084 182.536 4.34277 182.627C4.57715 182.722 4.88314 182.784 5.26074 182.813ZM7.16992 189.101L5.93457 189.101C5.43327 189.101 4.99219 189.046 4.61133 188.935C4.23372 188.828 3.91797 188.67 3.66406 188.462C3.41016 188.253 3.21973 188.003 3.09277 187.71C2.96582 187.417 2.90234 187.086 2.90234 186.718C2.90234 186.364 2.96582 186.04 3.09277 185.747C3.21973 185.454 3.41016 185.201 3.66406 184.99C3.91797 184.778 4.23372 184.614 4.61133 184.497C4.99219 184.383 5.43327 184.326 5.93457 184.326L7.16992 184.326C7.67122 184.326 8.11068 184.383 8.48828 184.497C8.86914 184.611 9.18652 184.773 9.44043 184.985C9.69434 185.197 9.88477 185.449 10.0117 185.742C10.1419 186.035 10.207 186.359 10.207 186.713C10.207 187.081 10.1419 187.412 10.0117 187.705C9.88476 188.001 9.69434 188.252 9.44043 188.457C9.18652 188.665 8.86914 188.824 8.48828 188.935C8.11068 189.046 7.67122 189.101 7.16992 189.101ZM5.93457 188.212L7.17969 188.212C7.57031 188.212 7.9056 188.18 8.18555 188.115C8.46875 188.05 8.69987 187.954 8.87891 187.827C9.05794 187.7 9.18978 187.544 9.27441 187.358C9.3623 187.172 9.40625 186.958 9.40625 186.713C9.40625 186.482 9.3623 186.274 9.27441 186.088C9.18978 185.906 9.05794 185.75 8.87891 185.62C8.69987 185.49 8.46875 185.389 8.18555 185.317C7.9056 185.249 7.57031 185.214 7.17969 185.214L5.93457 185.214C5.54069 185.214 5.20215 185.249 4.91894 185.317C4.639 185.389 4.40788 185.49 4.22559 185.62C4.04655 185.753 3.91309 185.913 3.82519 186.098C3.74056 186.284 3.69824 186.49 3.69824 186.718C3.69824 186.962 3.74056 187.177 3.82519 187.363C3.91309 187.552 4.04655 187.708 4.22559 187.832C4.40788 187.959 4.639 188.053 4.91894 188.115C5.20215 188.18 5.54069 188.212 5.93457 188.212ZM10.1094 193.388L10.1094 194.286L5.10449 194.286C4.57064 194.286 4.14258 194.183 3.82031 193.978C3.49805 193.773 3.26367 193.503 3.11719 193.168C2.97396 192.836 2.90234 192.478 2.90234 192.094C2.90234 191.683 2.97396 191.314 3.11719 190.985C3.26367 190.656 3.49805 190.394 3.82031 190.199C4.14258 190.007 4.57064 189.911 5.10449 189.911L10.1094 189.911L10.1094 190.804L5.10449 190.804C4.7334 190.804 4.44368 190.857 4.23535 190.961C4.02702 191.068 3.88053 191.218 3.7959 191.41C3.71126 191.605 3.66894 191.833 3.66894 192.094C3.66894 192.357 3.71126 192.585 3.7959 192.777C3.88053 192.972 4.02702 193.122 4.23535 193.226C4.44368 193.334 4.7334 193.388 5.10449 193.388L10.1094 193.388ZM10.1094 199.856L3 199.856L3 198.953L8.4834 196.106L3 196.106L3 195.208L10.1094 195.208L10.1094 196.106L4.61133 198.968L10.1094 198.968L10.1094 199.856ZM10.1094 203.098L3 203.098L3 202.209L10.1094 202.209L10.1094 203.098ZM10.1094 204.968L9.33789 204.968L9.33789 200.344L10.1094 200.344L10.1094 204.968Z" fill="white"/>
</svg>
