<svg width="26" height="26" viewBox="0 0 26 26" fill="none" xmlns="http://www.w3.org/2000/svg">
<g clip-path="url(#clip0_1471_381)">
<path d="M25.9204 24.3526L20.9166 16.4046C20.8218 16.254 20.6563 16.1626 20.4782 16.1626H18.3677C18.3743 16.1491 18.381 16.1361 18.3877 16.1226C19.6386 13.5606 20.4791 10.4301 20.4791 8.33258C20.4791 4.20863 17.124 0.853516 12.9999 0.853516C8.8759 0.853516 5.52094 4.20858 5.52094 8.33253C5.52094 10.43 6.36142 13.5606 7.61231 16.1225C7.61896 16.1361 7.62567 16.1491 7.63232 16.1626H5.52175C5.34376 16.1626 5.17826 16.254 5.0834 16.4046L0.0796233 24.3526C-0.0208221 24.5122 -0.0266619 24.7138 0.0645412 24.8789C0.155694 25.044 0.329365 25.1465 0.517916 25.1465H25.4821C25.6707 25.1465 25.8443 25.044 25.9355 24.8789C26.0267 24.7138 26.0208 24.5122 25.9204 24.3526ZM6.55677 8.33253C6.55677 4.77967 9.44724 1.88935 13 1.88935C16.5528 1.88935 19.4432 4.77977 19.4432 8.33253C19.4432 10.2563 18.6264 13.2728 17.4568 15.668C16.095 18.4571 14.4705 20.0566 12.9999 20.0566C11.5293 20.0566 9.90488 18.457 8.54308 15.668C7.37354 13.2728 6.55677 10.2563 6.55677 8.33253ZM5.26551 24.1107L7.09998 19.9848C7.21617 19.7235 7.09851 19.4174 6.83714 19.3012C6.57566 19.185 6.26971 19.3026 6.15347 19.564L4.13187 24.1107H1.456L5.80775 17.1985H8.18203C9.6301 19.7198 11.3165 21.0925 13 21.0925C14.6491 21.0925 16.301 19.7749 17.729 17.3512L20.7344 24.1107H5.26551ZM21.868 24.1107L18.7947 17.1985H20.1923L24.544 24.1107H21.868Z" fill="#919191"/>
<path d="M13 3.41382C10.2878 3.41382 8.0813 5.62037 8.0813 8.33249C8.0813 11.0447 10.2878 13.2512 13 13.2512C15.7121 13.2512 17.9186 11.0447 17.9186 8.33249C17.9186 5.62037 15.7121 3.41382 13 3.41382ZM13 12.2153C10.859 12.2153 9.11719 10.4735 9.11719 8.33249C9.11719 6.19155 10.859 4.44971 13 4.44971C15.1409 4.44971 16.8828 6.19155 16.8828 8.33249C16.8828 10.4735 15.141 12.2153 13 12.2153Z" fill="#919191"/>
<path d="M7.56431 17.7008C7.30289 17.5846 6.99693 17.7023 6.88064 17.9636L6.78579 18.177C6.66955 18.4384 6.78721 18.7445 7.04858 18.8607C7.11693 18.8911 7.18838 18.9055 7.25871 18.9055C7.45711 18.9055 7.64643 18.7908 7.7323 18.5979L7.82716 18.3845C7.94334 18.1232 7.82573 17.8171 7.56431 17.7008Z" fill="#919191"/>
</g>
<defs>
<clipPath id="clip0_1471_381">
<rect width="26" height="26" fill="white"/>
</clipPath>
</defs>
</svg>
