<svg width="51" height="198" viewBox="0 0 51 198" fill="none" xmlns="http://www.w3.org/2000/svg">
<path d="M24.5159 174.434C24.4226 174.481 24.3056 174.405 24.1649 174.205C24.0243 174.005 23.8901 173.779 23.7623 173.528C23.6163 173.24 23.4917 172.976 23.3887 172.734C23.2856 172.492 23.2158 172.336 23.1793 172.264C23.0762 172.022 22.9458 171.727 22.7879 171.377C22.6054 171.018 22.4293 170.632 22.2597 170.221C22.0653 169.799 21.8957 169.388 21.7507 168.987C21.5811 168.576 21.4485 168.18 21.3529 167.798C20.8602 167.483 20.3518 167.176 19.828 166.877C19.2859 166.542 18.7437 166.206 18.2016 165.871C17.7765 165.612 17.3267 165.343 16.8522 165.064C16.3595 164.749 15.8603 164.46 15.3547 164.196C14.8555 163.907 14.359 163.662 13.8652 163.46C13.3532 163.223 12.8497 163.06 12.3549 162.972C12.4268 163.23 12.4681 163.446 12.4789 163.621C12.4961 163.771 12.4494 163.795 12.3388 163.693C12.2712 163.636 12.21 163.554 12.1552 163.447C12.0758 163.329 11.9964 163.211 11.9169 163.093C11.8439 162.949 11.7891 162.841 11.7526 162.769C11.6979 162.661 11.6614 162.589 11.6431 162.553C11.5701 162.41 11.5062 162.284 11.4515 162.176C11.3785 162.032 11.3178 161.893 11.2695 161.76C11.0934 161.374 10.8593 160.894 10.5673 160.319C10.257 159.707 9.96228 159.088 9.68312 158.461C9.4104 157.808 9.18384 157.189 9.00344 156.602C8.80478 155.979 8.7167 155.459 8.7392 155.04C9.24694 155.077 9.7724 155.205 10.3156 155.427C10.8652 155.623 11.4143 155.875 11.9628 156.185C12.4867 156.484 13.0074 156.796 13.5248 157.121C14.0422 157.447 14.5258 157.744 14.9756 158.013C16.208 158.744 17.434 159.501 18.6535 160.283C19.8483 161.056 21.027 161.893 22.1896 162.795C22.4063 161.487 22.543 160.117 22.5998 158.687C22.6565 157.256 22.6853 155.829 22.6862 154.404C22.6625 152.969 22.6355 151.547 22.6053 150.138C22.5504 148.718 22.5352 147.358 22.5597 146.057C22.5747 145.778 22.674 145.762 22.8576 146.008C23.0229 146.218 23.206 146.52 23.4068 146.916C23.5829 147.301 23.7589 147.687 23.935 148.072C24.0864 148.447 24.1621 148.635 24.1621 148.635C24.5079 149.432 24.8504 150.241 25.1897 151.064C25.529 151.887 25.7657 152.739 25.9 153.62C25.8755 155.577 25.909 157.629 26.0005 159.775C26.0673 161.912 26.0536 164.044 25.9594 166.172C26.7388 166.975 27.465 167.827 28.1382 168.729C28.9949 169.877 29.8076 171.092 30.5763 172.375C31.345 173.658 32.0891 174.93 32.8084 176.193C33.5277 177.456 34.2347 178.713 34.9294 179.966C35.6487 181.229 36.3461 182.525 37.0214 183.856L38.0344 185.851C38.1599 185.019 38.3949 184.074 38.7393 183.017C39.0774 181.987 39.4401 180.966 39.8275 179.955C40.2396 178.955 40.6388 178.006 41.0251 177.109C41.4114 176.212 41.7157 175.481 41.9378 174.916C43.0624 171.926 44.1436 168.946 45.1813 165.978C46.219 163.009 47.2969 160.043 48.4151 157.078C47.7571 157.209 47.0927 157.365 46.4218 157.548C45.7574 157.704 45.1047 157.922 44.4639 158.202C44.4392 158.192 44.4113 158.195 44.3802 158.211C44.129 157.909 43.8209 157.398 43.4558 156.679C43.0908 155.96 42.7354 155.202 42.3896 154.406C42.0439 153.609 41.7443 152.845 41.4909 152.115C41.2686 151.368 41.1623 150.812 41.1719 150.445C41.1784 150.419 41.1692 150.402 41.1446 150.391C41.1446 150.391 41.1478 150.379 41.1542 150.353C41.3528 150.32 41.4558 150.233 41.4633 150.094C41.502 149.939 41.5808 149.786 41.7 149.635C41.7429 149.681 41.795 149.745 41.8562 149.827C41.9238 149.883 41.9882 149.952 42.0494 150.034C42.8824 149.747 43.7271 149.521 44.5837 149.358C45.465 149.204 46.3339 149.046 47.1905 148.882C48.0535 148.693 48.9074 148.485 49.7522 148.26C50.6034 148.009 51.4213 147.673 52.2059 147.252C52.5441 147.532 52.8866 148.014 53.2334 148.697C53.6113 149.364 53.9452 150.099 54.2351 150.902C54.5562 151.688 54.8246 152.468 55.0405 153.24C55.2874 153.996 55.449 154.604 55.5253 155.063C55.2945 155.225 55.0455 155.351 54.7782 155.442C54.8931 155.745 54.9769 156.065 55.0295 156.4C55.0478 156.436 55.0537 156.466 55.0473 156.492C55.0655 156.528 55.0961 156.569 55.139 156.615C55.1079 156.631 55.0891 156.652 55.0827 156.678C54.3346 157.826 53.7278 159.118 53.262 160.553C52.7963 161.987 52.3188 163.36 51.8295 164.671C50.7048 167.662 49.6049 170.662 48.5296 173.672C47.4791 176.693 46.3883 179.711 45.2572 182.727C44.7614 184.064 44.2442 185.378 43.7054 186.669C43.1914 187.97 42.6988 189.294 42.2277 190.641C42.0056 191.206 41.8393 191.765 41.7288 192.318C41.6118 192.898 41.504 193.495 41.4053 194.11C41.5074 194.466 41.5847 194.811 41.6373 195.146C41.7146 195.491 41.7764 195.844 41.8226 196.205C41.7979 196.195 41.7544 196.206 41.6922 196.237C41.1157 195.603 40.6427 194.825 40.2734 193.905C39.9287 192.995 39.5959 192.146 39.2748 191.36C39.0934 190.887 38.8936 190.378 38.6757 189.833C38.4513 189.313 38.2703 188.783 38.1329 188.243C37.3717 186.82 36.5949 185.406 35.8025 184C35.0037 182.619 34.1771 181.241 33.3224 179.866C32.1017 177.886 30.866 176.184 29.6153 174.762C28.3464 173.303 26.9647 171.97 25.4704 170.761C25.2655 172.132 24.9474 173.356 24.5159 174.434ZM11.9393 131.846C12.3881 132.229 12.7579 132.764 13.0489 133.453C13.3216 134.106 13.5729 134.736 13.8027 135.343C13.9132 135.445 14.0115 135.542 14.0973 135.634C14.1832 135.726 14.2815 135.823 14.392 135.925C14.9879 136.482 15.6212 136.997 16.2922 137.47C16.9696 137.918 17.6437 138.378 18.3147 138.851C19.7371 139.802 21.1756 140.689 22.6302 141.51C24.0665 142.296 25.534 143.066 27.0326 143.82C27.0754 142.555 27.0903 141.292 27.0772 140.033C27.0642 138.773 26.9707 137.509 26.7967 136.241C26.4907 135.831 26.1917 135.339 25.8996 134.763C25.5894 134.152 25.2463 133.399 24.8705 132.505C24.7857 132.299 24.6311 131.937 24.4067 131.418C24.1823 130.899 23.9643 130.354 23.7528 129.783C23.5477 129.186 23.4011 128.627 23.313 128.107C23.2249 127.586 23.2657 127.204 23.4353 126.959C23.8002 127.023 24.0922 127.27 24.3113 127.702C24.5056 128.123 24.6881 128.483 24.8588 128.78C24.993 129.006 25.1149 129.227 25.2244 129.443C25.3339 129.658 25.4434 129.874 25.553 130.09C25.8245 130.2 26.0994 130.298 26.3774 130.383C26.6554 130.468 26.9367 130.54 27.2211 130.599C28.4577 130.876 29.6638 131.112 30.8392 131.306C31.9899 131.491 33.1643 131.799 34.3623 132.231C36.7583 133.094 38.8001 134.07 40.4876 135.158C42.1816 136.22 43.6073 137.486 44.7646 138.956C45.9531 140.41 46.9226 142.088 47.6731 143.991C48.4548 145.877 49.1468 148.07 49.7493 150.567C49.7965 150.815 49.7982 150.972 49.7542 151.04C49.7349 151.117 49.6275 151.002 49.4321 150.694C48.9683 149.935 48.5421 149.134 48.1534 148.291C47.7647 147.449 47.4195 146.595 47.1178 145.731C46.1548 144.682 45.0695 143.798 43.8618 143.077C42.6852 142.34 41.4985 141.699 40.3015 141.154C37.8647 140.017 35.4306 139.251 32.9992 138.858C32.0095 138.682 31.1776 138.528 30.5035 138.395C29.8046 138.253 29.1992 138.062 28.6871 137.825C29.4206 140.234 29.9178 142.717 30.179 145.275L30.6974 145.487C31.1172 145.658 31.691 145.92 32.4188 146.275C33.1284 146.593 33.8599 146.877 34.6135 147.127C35.3671 147.378 36.0874 147.544 36.7744 147.624C37.4614 147.705 37.9707 147.571 38.3024 147.222L38.3071 146.711C38.3221 146.432 38.4214 146.415 38.605 146.661C38.7704 146.871 38.9534 147.174 39.1542 147.569C39.3303 147.955 39.5064 148.34 39.6824 148.726C39.8338 149.101 39.9095 149.289 39.9095 149.289C40.2553 150.085 40.5978 150.895 40.9371 151.717C41.2764 152.54 41.5131 153.392 41.6474 154.273C41.6464 154.387 41.6576 154.506 41.6813 154.629C41.7049 154.753 41.7006 154.88 41.6684 155.009C41.5729 155.283 41.3422 155.446 40.9761 155.496C40.6165 155.52 40.177 155.483 39.6574 155.385C39.1378 155.287 38.5877 155.148 38.007 154.969C37.4015 154.778 36.8272 154.573 36.284 154.351C35.7408 154.129 35.2594 153.933 34.8397 153.762C34.4017 153.554 34.0839 153.41 33.8864 153.33C33.5407 153.189 33.1827 153.043 32.8124 152.892C32.4485 152.715 32.0969 152.543 31.7577 152.376C31.5355 152.285 31.3133 152.194 31.091 152.104C30.8753 151.987 30.6595 151.87 30.4437 151.754L30.3182 152.259C30.2248 152.306 30.1078 152.23 29.9672 152.03C29.8265 151.83 29.6923 151.604 29.5645 151.352C28.2077 150.685 26.8636 149.965 25.5325 149.194C23.8933 148.24 22.4607 147.385 21.2347 146.628C19.9905 145.835 18.8832 144.984 17.9127 144.075C16.9422 143.166 16.0753 142.114 15.312 140.918C14.5239 139.713 13.782 138.213 13.0863 136.419C12.9467 136.105 12.8012 135.761 12.6498 135.385C12.4801 134.974 12.3352 134.573 12.2149 134.182C12.0764 133.755 11.9749 133.343 11.9105 132.946C11.846 132.549 11.8556 132.182 11.9393 131.846ZM32.796 129.672C32.2087 128.862 31.6875 127.951 31.2322 126.939C30.777 125.926 30.3899 124.913 30.071 123.899C29.9915 123.781 29.9244 123.668 29.8697 123.561C29.7967 123.417 29.7145 123.255 29.6233 123.075C29.1122 122.069 28.6446 121.051 28.2205 120.023C27.8028 118.969 27.4377 117.922 27.1253 116.882C27.0834 116.723 27.0538 116.568 27.0366 116.418C26.9948 116.259 26.9776 116.109 26.9851 115.97C27.2824 115.977 27.6377 116.079 28.051 116.277C28.4643 116.474 28.8959 116.707 29.3457 116.976C29.8019 117.219 30.2426 117.47 30.6677 117.729C31.0681 117.978 31.4288 118.168 31.7498 118.299C31.7079 118.139 31.6596 118.006 31.6048 117.898C31.5565 117.764 31.5205 117.635 31.4969 117.512C30.8677 116.542 30.2198 115.594 29.5531 114.666C28.8682 113.703 28.1956 112.744 27.5353 111.79C27.3281 111.421 27.0634 110.899 26.7413 110.226C26.3945 109.543 26.0542 108.834 25.7202 108.099C25.3928 107.339 25.1238 106.616 24.9133 105.932C24.6782 105.237 24.581 104.698 24.6217 104.316C24.6346 104.264 24.6657 104.248 24.7151 104.269C25.4784 104.808 26.2572 105.34 27.0516 105.863C27.846 106.387 28.6817 106.799 29.5587 107.1C29.9355 107.226 30.4454 107.362 31.0884 107.511C31.7314 107.659 32.3782 107.738 33.0287 107.747C33.6609 107.72 34.2229 107.593 34.7145 107.366C35.1878 107.103 35.4647 106.646 35.5452 105.994C35.8833 106.275 36.2381 106.762 36.6096 107.455C36.9629 108.112 37.2968 108.847 37.6114 109.66C37.9077 110.436 38.1762 111.215 38.4167 111.998C38.639 112.744 38.7883 113.347 38.8645 113.805C38.7841 114.457 38.4948 114.909 37.9968 115.162C37.4988 115.414 36.9213 115.549 36.2643 115.566C35.6074 115.583 34.9574 115.517 34.3144 115.369C33.6467 115.211 33.1245 115.069 32.7477 114.944C32.3151 114.824 31.92 114.663 31.5626 114.46C32.0264 115.219 32.459 115.994 32.8606 116.785C33.2621 117.576 33.6358 118.37 33.9815 119.167C35.26 119.603 36.5423 119.97 37.8283 120.266C39.0896 120.553 40.3606 120.801 41.6412 121.01C41.7711 121.034 42.0309 121.083 42.4205 121.157C42.8102 121.23 43.2401 121.306 43.7103 121.384C44.1869 121.436 44.6544 121.47 45.1127 121.486C45.5464 121.492 45.8969 121.45 46.1642 121.359C46.0997 120.962 46.1689 120.848 46.3718 121.016C46.3901 121.052 46.4115 121.075 46.4362 121.085C46.4362 121.085 46.4454 121.103 46.4636 121.139L46.4733 121.1C46.4668 121.126 46.476 121.144 46.5007 121.154C46.5865 121.246 46.6418 121.298 46.6665 121.308C47.344 122.411 47.9769 123.638 48.5653 124.99C49.1784 126.352 49.5843 127.672 49.783 128.95C49.651 129.153 49.3494 129.272 48.8781 129.308C48.4069 129.344 47.8927 129.333 47.3356 129.277C46.8096 129.205 46.2992 129.125 45.8043 129.037C45.3095 128.949 44.9847 128.888 44.8302 128.853C43.1599 128.571 41.5057 128.223 39.8676 127.811C38.2048 127.389 36.5742 126.838 34.9757 126.157C34.4819 125.956 33.9146 125.667 33.2737 125.292C32.6393 124.89 32.0322 124.543 31.4525 124.249C31.8466 125.18 32.2127 126.113 32.551 127.049C32.8581 128.001 33.0111 128.862 33.0101 129.631C32.9479 129.663 32.9168 129.678 32.9168 129.678C32.8674 129.658 32.8271 129.656 32.796 129.672ZM45.1491 108.549C45.0869 108.581 44.9946 108.514 44.8722 108.35C44.7251 108.176 44.5785 107.946 44.4325 107.658C43.037 107.145 41.6791 106.591 40.3587 105.995C39.0136 105.39 37.6562 104.779 36.2864 104.163C35.1388 103.637 33.9784 103.164 32.8051 102.742C31.6382 102.294 30.5095 101.748 29.4188 101.104C29.1923 100.812 28.8932 100.319 28.5218 99.6259C28.1567 98.9068 27.8013 98.1489 27.4556 97.3522C27.1163 96.5297 26.8323 95.7581 26.6036 95.0377C26.3502 94.3072 26.2315 93.7457 26.2476 93.3532C26.2476 93.3532 26.2293 93.3172 26.1928 93.2453L26.2298 93.2604C26.2491 93.1828 26.2744 93.1361 26.3055 93.1202C26.4665 93.1289 26.6485 93.2174 26.8514 93.3858C27.036 93.5181 27.2153 93.5628 27.3892 93.5197C28.0847 93.3475 28.7717 93.1005 29.4501 92.7787C30.1349 92.431 30.7982 92.0604 31.4401 91.6667C32.082 91.273 32.7271 90.8664 33.3754 90.4468C33.999 90.0172 34.6038 89.6084 35.1899 89.2204C35.4893 89.0005 35.8258 88.7958 36.1994 88.6062C36.5546 88.3806 36.9008 88.137 37.2378 87.8755C37.5502 87.6039 37.841 87.3092 38.1104 86.9916C38.3551 86.6639 38.5043 86.2829 38.5579 85.8487C38.8961 86.1293 39.2418 86.5981 39.595 87.2554C39.93 87.8766 40.2365 88.5576 40.5146 89.2982C40.7992 90.0129 41.0558 90.7305 41.2845 91.4509C41.5132 92.1714 41.6936 92.7581 41.8257 93.211C41.8429 93.3606 41.8725 93.5152 41.9143 93.6748C41.9562 93.8344 41.9981 93.994 42.04 94.1536C42.0582 94.1896 42.0641 94.2205 42.0577 94.2464C42.0813 94.37 42.1232 94.5296 42.1833 94.7252C42.1769 94.7511 42.1828 94.782 42.2011 94.818L42.1914 94.8568C42.2097 94.8927 42.2279 94.9287 42.2462 94.9646C42.2397 94.9905 42.2456 95.0214 42.2639 95.0574C42.3895 95.5362 42.5275 96.0201 42.6779 96.509C42.8035 96.9879 42.9259 97.4797 43.0451 97.9844C43.1654 98.3755 43.2884 98.8105 43.414 99.2894C43.5214 99.7323 43.647 100.211 43.7909 100.726C44.2235 100.845 44.6561 100.965 45.0888 101.084C45.5031 101.168 45.9207 101.239 46.3415 101.296C46.787 101.364 47.2389 101.406 47.6972 101.422C48.1309 101.428 48.5372 101.38 48.9161 101.278C49.2703 101.166 49.6004 100.987 49.9063 100.741C50.1939 100.46 50.4145 100.065 50.5679 99.5577C50.6881 99.2932 50.7375 98.9855 50.716 98.6347C50.7009 98.258 50.667 97.9021 50.6144 97.5671C50.4566 97.2176 50.2805 96.8322 50.0861 96.4109C49.8736 95.9535 49.6701 95.5142 49.4758 95.0928C49.2814 94.6715 49.1145 94.304 48.9749 93.9905C48.817 93.6411 48.6925 93.3765 48.6012 93.1967C48.3221 92.5697 48.0553 91.9477 47.8008 91.3308C47.5463 90.7139 47.3074 90.089 47.0841 89.4563C47.0357 89.3226 46.9756 89.127 46.9037 88.8696C46.8317 88.6122 46.778 88.3907 46.7426 88.2052C46.6889 87.9838 46.6749 87.8213 46.7007 87.7178C46.7017 87.6042 46.742 87.6064 46.8214 87.7243C46.9073 87.8164 47.0233 88.0062 47.1693 88.2939C47.267 88.4477 47.3523 88.5966 47.4253 88.7404C47.4984 88.8842 47.5805 89.046 47.6717 89.2258C47.9509 89.8528 48.3369 90.6517 48.8297 91.6224C49.3043 92.5572 49.8089 93.5897 50.3436 94.7201C50.8783 95.8504 51.4033 97.0196 51.9187 98.2276C52.4094 99.4255 52.8383 100.598 53.2056 101.746C53.5728 102.893 53.8263 103.952 53.9659 104.921C54.1303 105.9 54.1041 106.716 53.8873 107.369C53.6512 108.099 53.253 108.606 52.6927 108.891C52.1636 109.159 51.5582 109.297 50.8765 109.304C50.226 109.295 49.5546 109.206 48.8622 109.038C48.1698 108.869 47.5456 108.7 46.9895 108.53L45.1829 107.921L45.1491 108.549ZM41.3449 98.9154C41.3535 98.6623 41.4528 98.6458 41.6428 98.8659C41.5655 98.5208 41.4881 98.1757 41.4108 97.8306C41.3335 97.4855 41.2562 97.1403 41.1788 96.7952C41.1316 96.5479 41.0935 96.3186 41.0644 96.1072C41.0107 95.8857 40.9479 95.6463 40.876 95.3889C40.5196 95.7281 40.1327 96.0263 39.7152 96.2835C39.2729 96.5306 38.871 96.7799 38.5092 97.0313C38.2473 97.2095 37.9854 97.3877 37.7235 97.5659C37.4681 97.7182 37.2062 97.8963 36.9378 98.1004C37.7215 98.4487 38.4928 98.7919 39.2517 99.1301C39.9924 99.4324 40.7487 99.7268 41.5205 100.013C41.4851 99.8277 41.462 99.6473 41.4512 99.4718C41.4158 99.2864 41.3804 99.1009 41.3449 98.9154ZM42.1833 94.7252C42.1952 94.787 42.2011 94.818 42.2011 94.818L42.1914 94.8568C42.1979 94.8309 42.2011 94.818 42.2011 94.818C42.1828 94.782 42.1769 94.7511 42.1833 94.7252ZM50.395 87.462C50.3328 87.4936 50.2405 87.4274 50.1181 87.2634C49.971 87.0894 49.8245 86.8586 49.6784 86.5709C48.2829 86.0585 46.925 85.5043 45.6046 84.9085C44.2595 84.3026 42.9021 83.6917 41.5323 83.0757C40.3847 82.5504 39.2243 82.0769 38.051 81.6551C36.8841 81.2074 35.7554 80.6613 34.6647 80.0167C34.4382 79.7247 34.1392 79.2321 33.7677 78.5389C33.4026 77.8199 33.0472 77.062 32.7015 76.2653C32.3622 75.4427 32.0782 74.6712 31.8495 73.9508C31.5961 73.2202 31.4774 72.6587 31.4935 72.2662C31.4935 72.2662 31.4752 72.2302 31.4387 72.1583L31.4757 72.1735C31.495 72.0958 31.5203 72.0491 31.5514 72.0333C31.7124 72.042 31.8944 72.1305 32.0973 72.2988C32.2819 72.4312 32.4612 72.4758 32.6351 72.4328C33.3306 72.2605 34.0176 72.0135 34.696 71.6917C35.3808 71.3441 36.0441 70.9734 36.686 70.5797C37.3279 70.186 37.973 69.7794 38.6213 69.3598C39.2449 68.9302 39.8497 68.5214 40.4358 68.1335C40.7352 67.9136 41.0717 67.7088 41.4453 67.5192C41.8006 67.2936 42.1467 67.0501 42.4837 66.7885C42.7961 66.5169 43.0869 66.2223 43.3563 65.9047C43.601 65.5769 43.7502 65.196 43.8038 64.7618C44.142 65.0423 44.4877 65.5112 44.8409 66.1684C45.1759 66.7897 45.4824 67.4706 45.7605 68.2112C46.0451 68.9259 46.3017 69.6435 46.5304 70.364C46.7592 71.0844 46.9396 71.6711 47.0716 72.1241C47.0888 72.2736 47.1184 72.4282 47.1602 72.5878C47.2021 72.7474 47.244 72.9071 47.2859 73.0667C47.3041 73.1026 47.31 73.1335 47.3036 73.1594C47.3272 73.2831 47.3691 73.4427 47.4293 73.6383C47.4228 73.6641 47.4287 73.6951 47.447 73.731L47.4373 73.7698C47.4556 73.8058 47.4738 73.8417 47.4921 73.8777C47.4856 73.9036 47.4915 73.9345 47.5098 73.9704C47.6354 74.4493 47.7734 74.9332 47.9238 75.4221C48.0494 75.9009 48.1718 76.3927 48.291 76.8974C48.4113 77.2886 48.5343 77.7236 48.6599 78.2024C48.7673 78.6453 48.8929 79.1242 49.0368 79.639C49.4694 79.7585 49.902 79.878 50.3347 79.9975C50.749 80.0811 51.1666 80.1517 51.5874 80.2094C52.0329 80.2772 52.4848 80.3191 52.9431 80.3351C53.3768 80.341 53.7831 80.293 54.162 80.1911C54.5162 80.0791 54.8463 79.9003 55.1522 79.6545C55.4398 79.3728 55.6604 78.9783 55.8138 78.4708C55.934 78.2063 55.9834 77.8986 55.9619 77.5478C55.9468 77.171 55.9129 76.8152 55.8603 76.4801C55.7025 76.1307 55.5264 75.7453 55.332 75.3239C55.1195 74.8666 54.916 74.4272 54.7217 74.0059C54.5273 73.5845 54.3604 73.2171 54.2208 72.9036C54.0629 72.5541 53.9384 72.2895 53.8471 72.1097C53.568 71.4827 53.3012 70.8608 53.0467 70.2438C52.7922 69.6269 52.5533 69.0021 52.33 68.3693C52.2817 68.2356 52.2215 68.04 52.1496 67.7826C52.0776 67.5252 52.0239 67.3038 51.9885 67.1183C51.9348 66.8968 51.9208 66.7344 51.9466 66.6309C51.9476 66.5173 51.9879 66.5194 52.0673 66.6374C52.1532 66.7294 52.2692 66.9193 52.4152 67.2069C52.5129 67.3608 52.5982 67.5096 52.6712 67.6535C52.7443 67.7973 52.8264 67.9591 52.9177 68.1388C53.1968 68.7658 53.5828 69.5647 54.0756 70.5354C54.5502 71.4702 55.0548 72.5028 55.5895 73.6331C56.1242 74.7635 56.6492 75.9327 57.1646 77.1407C57.6553 78.3386 58.0843 79.5113 58.4515 80.6588C58.8187 81.8064 59.0722 82.8647 59.2118 83.8338C59.3762 84.8131 59.35 85.629 59.1332 86.2817C58.8971 87.012 58.4989 87.5194 57.9386 87.8038C57.4095 88.0725 56.8041 88.2102 56.1224 88.2171C55.4719 88.2082 54.8005 88.1195 54.1081 87.951C53.4157 87.7825 52.7915 87.6133 52.2354 87.4434L50.4288 86.8344L50.395 87.462ZM46.5908 77.8284C46.5994 77.5754 46.6987 77.5589 46.8887 77.7789C46.8114 77.4338 46.734 77.0887 46.6567 76.7436C46.5794 76.3985 46.5021 76.0534 46.4247 75.7083C46.3775 75.461 46.3394 75.2316 46.3104 75.0202C46.2567 74.7988 46.1938 74.5594 46.1219 74.302C45.7655 74.6411 45.3786 74.9393 44.9611 75.1965C44.5188 75.4436 44.1169 75.6929 43.7551 75.9444C43.4932 76.1225 43.2313 76.3007 42.9694 76.4789C42.714 76.6312 42.4521 76.8094 42.1838 77.0134C42.9674 77.3617 43.7387 77.705 44.4977 78.0432C45.2384 78.3454 45.9946 78.6398 46.7664 78.9263C46.731 78.7408 46.7079 78.5603 46.6972 78.3849C46.6617 78.1994 46.6263 78.0139 46.5908 77.8284ZM47.4293 73.6383C47.4411 73.7001 47.447 73.731 47.447 73.731L47.4373 73.7698C47.4438 73.7439 47.447 73.731 47.447 73.731C47.4287 73.6951 47.4228 73.6641 47.4293 73.6383ZM48.0899 12.1129C48.3604 12.3373 48.6267 12.6883 48.8886 13.1657C49.1323 13.6073 49.3755 14.1056 49.6182 14.6607C49.8426 15.1798 50.0514 15.7069 50.2447 16.2418C50.4197 16.7408 50.5738 17.16 50.707 17.4994C50.7188 17.5612 50.773 17.7259 50.8696 17.9933C50.9727 18.2349 51.0693 18.5024 51.1595 18.7958C51.2562 19.0632 51.3281 19.3206 51.3754 19.568C51.4044 19.7793 51.3722 19.9087 51.2788 19.9561C50.6734 19.7661 50.1957 19.8277 49.8458 20.141C49.4712 20.4442 49.1884 20.8704 48.9974 21.4196C48.8064 21.9687 48.6862 22.5611 48.6369 23.1966C48.5876 23.832 48.5732 24.382 48.5936 24.8464C48.627 25.2591 48.722 25.697 48.8788 26.16C48.8723 26.1859 48.8815 26.2039 48.9061 26.2139C49.6631 27.435 50.5686 28.6596 51.6229 29.888C52.4259 30.8143 53.3003 31.727 54.2461 32.626C55.1983 33.4992 56.2133 34.2839 57.2912 34.9803C57.1451 34.6927 57.0115 34.4101 56.8901 34.1325C56.7688 33.855 56.6899 33.6803 56.6534 33.6084C56.2529 32.7038 55.8771 31.8093 55.526 30.9249C55.1749 30.0405 54.8828 29.1374 54.6498 28.2157C54.7258 26.7074 54.8786 25.2733 55.1082 23.9132C55.3378 22.5531 55.7004 21.2046 56.1962 19.8677C56.8326 18.075 57.6203 16.3298 58.5593 14.6322C59.4737 12.9244 60.5228 11.3857 61.7067 10.016C61.8258 9.86505 61.9949 9.67749 62.2138 9.45329C62.4081 9.21901 62.6362 9.01278 62.8981 8.8346C63.1353 8.64635 63.3875 8.50699 63.6548 8.41652C63.9038 8.2901 64.155 8.26433 64.4083 8.33921C64.8162 8.44866 65.2145 8.59692 65.6031 8.784C65.9981 8.94521 66.3932 9.10642 66.7882 9.26762C67.1586 9.41875 67.5789 9.86106 68.0491 10.5945C68.5011 11.2921 68.9553 12.0903 69.4116 12.9891C69.8432 13.8779 70.2378 14.7515 70.5953 15.61C70.9593 16.4427 71.2105 17.0725 71.3491 17.4996C71.7302 18.4818 72.1205 19.482 72.52 20.5001C72.9012 21.4823 73.1954 22.4861 73.4027 23.5113C73.6669 25.0729 73.9027 26.6941 74.1101 28.375C74.3238 30.03 74.4013 31.6864 74.3425 33.3442C74.3147 34.9862 74.1109 36.5706 73.7311 38.0974C73.3824 39.6084 72.7653 40.9956 71.8799 42.259C71.5161 42.7377 71.0878 43.1473 70.5951 43.4878C70.1336 43.8126 69.678 44.1682 69.2282 44.5548C68.5789 45.088 67.7405 45.2875 66.7132 45.1533C65.6795 45.045 64.635 44.7613 63.5798 44.3022C62.4934 43.8589 61.4699 43.3272 60.5091 42.7071C59.5236 42.0769 58.7603 41.5374 58.2193 41.0885C57.1125 40.1808 56.1237 39.2357 55.2531 38.2533C54.3641 37.235 53.5498 36.1901 52.8101 35.1186C52.0457 34.037 51.3344 32.9058 50.6763 31.7251C50.0182 30.5444 49.3729 29.3119 48.7405 28.0277C48.2359 26.9951 47.7624 25.9467 47.32 24.8825C46.8594 23.7824 46.4948 22.6787 46.2264 21.5715C46.0535 20.8453 45.8865 20.1501 45.7254 19.4857C45.546 18.7854 45.3946 18.0823 45.2711 17.3763C45.1519 16.8715 45.1234 16.2756 45.1855 15.5883C45.223 14.891 45.3529 14.2598 45.575 13.6949C45.8036 13.104 46.1207 12.6491 46.5264 12.3301C46.9386 11.9852 47.4597 11.9128 48.0899 12.1129ZM63.9812 19.2391C62.3413 21.6769 61.0041 24.2098 59.9696 26.8377C58.9168 29.4296 58.2704 32.3014 58.0303 35.4529C58.7635 35.8947 59.516 36.2588 60.2878 36.5452C61.0349 36.8216 61.7923 37.0024 62.5598 37.0875C63.8533 37.2448 64.9729 37.1173 65.9185 36.7051C66.8395 36.2828 67.6321 35.6656 68.2965 34.8535C68.9426 34.0054 69.4599 33.0193 69.8484 31.8951C70.2368 30.7709 70.5297 29.5935 70.7271 28.3628C70.8998 27.122 71.0011 25.8949 71.031 24.6814C71.0427 23.4319 71.0007 22.2889 70.9051 21.2521C70.8428 20.6281 70.7616 20.0249 70.6617 19.4426C70.5436 18.8242 70.4255 18.2059 70.3073 17.5876C69.6578 16.8095 69.0362 16.3563 68.4426 16.2281C67.8243 16.0898 67.2506 16.155 66.7214 16.4236C66.1922 16.6922 65.6958 17.1025 65.2321 17.6544C64.7502 18.1704 64.3332 18.6986 63.9812 19.2391Z" fill="#1A1A1A"/>
</svg>
