<svg width="29" height="150" viewBox="0 0 29 150" fill="none" xmlns="http://www.w3.org/2000/svg">
<path d="M24.15 1.65L20.67 1.65L20.67 28.35L24.15 28.35L24.15 1.65ZM4.2 3L0.54 4.05C1.35 8.07 2.43 13.53 3.51 18.57L7.05 18.24C5.94 12.81 4.83 6.87 4.2 3ZM19.2 25.47C17.07 23.52 14.46 20.28 12.96 17.85L10.8 20.52C12.33 22.95 14.7 26.1 16.98 28.53L19.2 25.47ZM28.47 13.05L21.96 13.05L21.96 16.8L28.47 16.8L28.47 13.05ZM22.08 17.91L21.45 14.37C12.54 15.72 6.06 18.06 0.389999 26.82C1.56 27.3 2.94 28.5 3.69 29.46C8.19 21.39 13.92 19.11 22.08 17.91ZM22.92 13.2C19.2 10.89 15.33 5.88 13.26 0.719999C12.51 1.32 11.04 2.28 10.14 2.7C12.6 8.4 16.86 13.56 21.48 16.83L22.92 13.2ZM14.22 7.26L3.66 7.26L3.66 10.92L16.92 10.92L17.16 10.23L14.22 7.26ZM28.32 35.67L0.359999 35.67L0.359999 39L28.32 39L28.32 35.67ZM18.48 31.14L15.12 31.14L15.12 43.44L18.48 43.44L18.48 31.14ZM16.68 35.04C13.71 34.2 9.54 32.37 7.32 30.57C6.3 31.11 4.71 31.89 3.6 32.22C6.48 34.2 11.7 36.06 15.72 37.02L16.68 35.04ZM14.94 38.94L13.53 37.29C12.06 38.37 8.73 40.38 7.02 41.16L9.84 43.38C10.68 42.72 14.16 39.81 14.94 38.94ZM26.01 31.08C23.82 31.8 20.91 32.37 19.02 32.43L19.74 35.13C21.63 34.98 24.48 34.38 26.67 33.6L26.01 31.08ZM26.82 40.98C24.69 40.65 21.66 39.93 19.74 39.33L19.11 41.58C20.88 42.33 23.73 43.23 26.16 44.01L26.82 40.98ZM28.5 52.32L0.329999 52.32L0.329999 55.71L28.5 55.71L28.5 52.32ZM9.72 43.35L6.36 43.92L9.15 59.31L12.48 58.77L9.72 43.35ZM24.39 45.06C23.31 46.74 21.66 48.84 20.49 49.74L23.22 51.63C24.33 50.64 25.83 48.51 26.85 46.83L24.39 45.06ZM16.83 43.71C15.81 45.45 14.19 47.64 13.08 48.66L15.93 50.46C17.04 49.38 18.48 47.13 19.41 45.39L16.83 43.71ZM23.85 69.69L23.85 80.25L19.8 80.25L19.8 69.69L23.85 69.69ZM27.27 66.21L16.38 66.21L16.38 83.94L27.27 83.94L27.27 66.21ZM13.86 62.1L0.299998 62.1L0.299998 65.49L10.44 65.49L10.44 69.96L0.479998 69.96L0.479998 73.56L13.86 73.56L13.86 62.1ZM13.86 76.11L0.299998 76.11L0.299998 79.56L10.44 79.56L10.44 84.36L0.449998 84.36L0.449998 87.99L13.86 87.99L13.86 76.11ZM5.25 63.6L1.8 63.6L1.8 71.46L5.25 71.46L5.25 63.6ZM5.25 77.76L1.8 77.76L1.8 86.16L5.25 86.16L5.25 77.76ZM4.71 92.76L1.2 93.24C1.41 98.64 1.77 106.56 2.19 113.91L5.49 114.03C5.16 106.47 4.86 98.13 4.71 92.76ZM13.65 92.61L10.29 92.61L10.29 117.57L13.65 117.57L13.65 92.61ZM19.41 97.95L16.11 97.95L16.11 112.02L19.41 112.02L19.41 97.95ZM11.46 99.96C8.94 99.21 5.61 97.77 3.42 96.54L2.37 99.69C4.38 101.04 7.5 102.66 10.32 104.07L11.46 99.96ZM8.37 107.4C5.97 109.98 2.55 112.86 0.269997 114.12L2.28 117.45C4.56 116.07 7.71 113.28 10.02 110.58L8.37 107.4ZM24.96 104.97C21.48 107.52 17.7 112.59 15.6 117.09C16.68 117.75 17.97 118.56 18.87 119.43C20.58 114.66 24 109.89 28.41 106.71L28.41 102.9C24.87 100.68 20.58 95.88 18.33 90.75C17.55 91.5 16.2 92.46 15.33 92.88C17.7 97.86 21.54 102.54 24.96 104.97ZM4.68 132.27L1.14 132.27L1.14 149.37L4.68 149.37L4.68 132.27ZM19.17 133.5L15.72 133.5L15.72 148.65L19.17 148.65L19.17 133.5ZM28.17 139.23L2.97 139.23L2.97 142.92L28.17 142.92L28.17 139.23ZM22.92 121.5L19.65 121.5L19.65 131.34L22.92 131.34L22.92 121.5ZM12.66 125.79L0.269997 125.79L0.269997 129.36L16.92 129.36L12.66 125.79ZM28.44 125.79L21.39 125.79L21.39 129.36L28.44 129.36L28.44 125.79ZM15.9 129L14.16 127.02C12.84 128.37 10.08 130.89 8.52 132.06L11.43 134.25C12.18 133.44 15.18 130.05 15.9 129ZM22.92 130.02L22.26 130.02C17.85 128.43 13.44 124.47 11.22 120.39C10.53 120.93 8.76 121.77 7.8 122.1C10.62 126.57 15.87 131.1 21.72 133.38L23.04 131.37L22.92 130.74L22.92 130.02Z" fill="white"/>
</svg>
