<svg width="349" height="799" viewBox="0 0 349 799" fill="none" xmlns="http://www.w3.org/2000/svg">
<line x1="192.698" y1="744.718" x2="147.663" y2="744.718" stroke="white" stroke-width="2"/>
<ellipse cx="197.888" cy="744.5" rx="1.37008" ry="1" transform="rotate(-90 197.888 744.5)" fill="#D9D9D9"/>
<ellipse cx="202.077" cy="744.5" rx="1.37008" ry="1" transform="rotate(-90 202.077 744.5)" fill="#D9D9D9"/>
<ellipse cx="206.266" cy="744.5" rx="1.37008" ry="1" transform="rotate(-90 206.266 744.5)" fill="#D9D9D9"/>
<ellipse cx="134" cy="744.5" rx="1.37008" ry="1" transform="rotate(-90 134 744.5)" fill="#D9D9D9"/>
<ellipse cx="138.189" cy="744.5" rx="1.37008" ry="1" transform="rotate(-90 138.189 744.5)" fill="#D9D9D9"/>
<ellipse cx="142.379" cy="744.5" rx="1.37008" ry="1" transform="rotate(-90 142.379 744.5)" fill="#D9D9D9"/>
<path d="M331.476 4.424L330.076 4.424L330.076 9.604L331.476 9.604L331.476 4.424ZM323.72 0.98L322.348 0.98L322.348 13.076L323.72 13.076L323.72 0.98ZM334.696 1.792L333.338 1.792L333.338 5.712L334.696 5.712L334.696 1.792ZM334.696 5.18L334.416 5.18C332.344 4.41 330.44 2.324 329.558 0.238C329.264 0.574 328.69 1.022 328.34 1.246C329.474 3.598 331.476 5.81 334.22 6.846L334.766 5.754L334.696 5.46L334.696 5.18ZM335.172 8.372L334.724 6.944C331.952 8.106 329.712 10.024 328.536 12.6C328.97 12.852 329.6 13.342 329.936 13.734C330.86 11.298 332.89 9.338 335.172 8.372ZM332.176 1.12C331.784 1.722 331.182 2.478 330.762 2.842L331.784 3.78C332.204 3.416 332.75 2.646 333.1 2.016L332.176 1.12ZM335.088 10.528C334.472 9.996 333.66 9.072 333.184 8.4L332.4 9.408C332.848 10.108 333.534 11.018 334.192 11.788L335.088 10.528ZM333.45 12.11C332.806 11.536 331.98 10.556 331.476 9.828L330.692 10.836C331.154 11.578 331.882 12.544 332.582 13.342L333.45 12.11ZM327.934 4.55L327.934 9.338L326.702 9.338L326.702 4.55L327.934 4.55ZM329.278 2.912L325.372 2.912L325.372 11.074L329.278 11.074L329.278 2.912ZM325.19 3.724C324.644 4.046 323.902 4.354 323.426 4.452L323.888 6.062C324.364 5.936 325.078 5.628 325.582 5.264L325.19 3.724ZM325.596 8.722C325.064 8.554 324.308 8.204 323.818 7.924L323.482 9.394C323.93 9.674 324.56 9.996 325.246 10.346L325.596 8.722ZM328.914 26.264C328.34 25.914 327.542 25.284 327.052 24.822L326.352 25.872C326.8 26.376 327.472 26.992 328.116 27.58L328.914 26.264ZM328.004 20.034C327.458 20.58 326.688 21.182 326.156 21.406L326.94 22.582C327.472 22.316 328.2 21.7 328.718 21.126L328.004 20.034ZM334.738 20.636L333.366 20.636L333.366 24.864L329.824 24.864L329.824 26.418L334.738 26.418L334.738 20.636ZM332.624 20.944L331.336 20.944L331.336 25.746L332.624 25.746L332.624 20.944ZM330.622 19.964L329.194 19.964L329.194 27.468L330.622 27.468L330.622 19.964ZM329.894 22.848L323.692 22.848C323.538 22.848 323.496 22.806 323.496 22.666C323.496 22.526 323.496 22.106 323.51 21.714C323.09 21.896 322.488 22.078 322.068 22.12C322.068 22.89 322.082 23.45 322.32 23.87C322.558 24.318 322.964 24.402 323.65 24.402L329.894 24.402L329.894 22.848ZM324.364 19.558L323.02 20.328C323.552 21.126 324.21 22.036 324.84 22.862L326.1 22.358C325.428 21.322 324.77 20.272 324.364 19.558ZM328.9 24.36L328.004 23.436C326.38 23.87 323.972 24.878 322.796 26.712C323.216 26.95 323.874 27.454 324.168 27.79C325.148 25.872 327.234 24.808 328.9 24.36ZM331.728 15.4L330.328 15.4L330.328 19.544L331.728 19.544L331.728 15.4ZM329.306 14.728L327.878 14.728L327.878 19.838L329.306 19.838L329.306 14.728ZM327.094 14.868C326.31 15.078 325.302 15.274 324.63 15.302L324.924 16.436C325.596 16.366 326.576 16.17 327.36 15.932L327.094 14.868ZM323.888 14.574L322.362 14.896C322.642 16.31 323.034 18.158 323.398 19.908L324.784 19.782C324.448 17.892 324.084 15.904 323.888 14.574ZM327.472 18.746C326.8 18.648 325.82 18.438 325.19 18.256L324.91 19.264C325.498 19.474 326.38 19.698 327.178 19.95L327.472 18.746ZM331.168 16.646L323.37 16.646L323.622 18.088L331.168 18.088L331.168 16.646ZM335.214 16.576C334.122 16.142 332.806 15.316 331.798 14.14C331.574 14.448 331.042 14.924 330.706 15.148C331.966 16.534 333.408 17.388 334.472 17.934L334.906 17.934L334.906 17.458L335.214 17.458L335.214 16.576ZM335.214 16.786L334.024 16.786L334.024 17.08C333.394 17.836 332.218 18.788 331.504 19.236L332.792 20.314C333.506 19.81 334.514 18.774 335.214 17.962L335.214 16.786Z" fill="white"/>
<path d="M243.242 687.729C243.325 687.591 243.625 687.16 244.142 686.435C244.649 685.658 245.27 684.761 246.003 683.744C246.728 682.674 247.498 681.561 248.315 680.405C249.131 679.249 249.865 678.232 250.515 677.353C251.217 676.457 251.772 675.803 252.183 675.391C252.635 674.91 252.812 674.852 252.715 675.217C252.683 675.339 252.65 675.46 252.618 675.582C252.586 675.704 252.579 675.817 252.597 675.922C252.596 676.533 252.642 677.101 252.733 677.627C252.825 678.152 252.921 678.704 253.022 679.282C253.287 680.806 253.548 682.303 253.805 683.774C254.061 685.245 254.373 686.726 254.74 688.217C255.473 691.809 256.328 695.333 257.306 698.79C258.334 702.23 259.459 705.611 260.68 708.932C261.068 708.695 261.459 708.483 261.856 708.298C262.243 708.06 262.63 707.822 263.017 707.585C263.497 706.65 264.137 705.552 264.935 704.292C265.775 702.962 266.649 701.676 267.558 700.435C268.467 699.193 269.348 698.1 270.201 697.154C271.045 696.156 271.737 695.513 272.276 695.226C272.607 695.895 272.887 696.581 273.117 697.283C273.397 697.969 273.728 698.638 274.11 699.291C274.717 700.314 275.361 701.242 276.041 702.074C276.387 701.906 276.737 701.763 277.092 701.647C277.438 701.479 277.83 701.267 278.268 701.013C279.558 700.424 280.874 699.827 282.215 699.222C283.547 698.564 284.879 697.906 286.211 697.248C284.019 696.355 281.881 695.305 279.795 694.099C277.701 692.84 275.68 691.391 273.733 689.751C272.67 688.877 271.521 687.975 270.288 687.046C269.105 686.1 267.989 685.076 266.94 683.976C265.891 682.875 265.035 681.655 264.373 680.317C263.702 678.926 263.407 677.384 263.487 675.692C263.497 675.133 263.767 674.378 264.298 673.427C264.87 672.407 265.569 671.345 266.395 670.242C267.212 669.086 268.109 667.932 269.087 666.779C270.106 665.557 271.088 664.43 272.034 663.399C272.242 663.053 272.454 662.734 272.671 662.441C272.887 662.148 273.1 661.828 273.307 661.483C273.344 661.693 273.346 661.859 273.314 661.981C273.766 661.499 274.176 661.088 274.545 660.745C274.905 660.349 275.223 660.023 275.5 659.766C275.896 659.581 276.041 659.644 275.935 659.957C275.879 660.253 275.711 660.669 275.429 661.205C275.147 661.742 274.794 662.329 274.37 662.968C273.987 663.538 273.645 664.038 273.346 664.469C273.401 664.785 273.462 664.986 273.531 665.075C273.894 666.234 274.46 667.326 275.228 668.352C275.996 669.378 276.861 670.345 277.823 671.252C278.785 672.159 279.763 673.005 280.757 673.791C281.802 674.56 282.757 675.275 283.622 675.936C286.038 677.811 288.379 679.406 290.644 680.72C292.9 681.981 295.2 683.034 297.544 683.877C299.887 684.721 302.335 685.392 304.887 685.89C307.429 686.336 310.199 686.707 313.198 687.004L313.212 687.082L313.516 686.983C313.391 687.19 313.237 687.38 313.052 687.551C312.784 688.472 312.281 689.581 311.542 690.877C310.795 692.122 309.946 693.399 308.995 694.71C308.036 695.968 307.067 697.173 306.089 698.326C305.102 699.426 304.286 700.277 303.641 700.876L303.489 700.926C299.816 701.683 296.224 702.747 292.713 704.118C289.192 705.437 285.669 706.895 282.143 708.492C284.384 710.592 286.782 712.667 289.336 714.72C291.941 716.755 294.553 718.678 297.173 720.487C299.842 722.279 302.464 723.948 305.038 725.494C307.602 726.988 309.943 728.277 312.061 729.361C311.945 730.233 311.492 731.325 310.703 732.638C309.974 733.987 309.083 735.334 308.031 736.678C307.039 738.057 306.004 739.34 304.925 740.526C303.905 741.748 303.047 742.668 302.351 743.284C299.704 741.929 296.73 740.236 293.429 738.206C290.179 736.159 286.897 733.928 283.583 731.513C280.269 729.099 277.093 726.555 274.056 723.884C271.018 721.212 268.444 718.583 266.332 715.997C265.945 716.235 265.553 716.446 265.157 716.632C264.751 716.764 264.35 716.923 263.954 717.108C266.468 722.617 269.318 727.905 272.505 732.971C272.412 733.668 272.1 734.492 271.569 735.443C271.08 736.325 270.49 737.241 269.798 738.189C269.165 739.173 268.494 740.087 267.784 740.93C267.133 741.81 266.591 742.542 266.158 743.128C266.065 743.214 265.844 743.481 265.493 743.929C265.194 744.36 264.843 744.808 264.442 745.273C264.091 745.72 263.727 746.09 263.349 746.38C263.031 746.706 262.782 746.815 262.602 746.707C260.386 743.212 258.342 739.632 256.471 735.967C254.642 732.234 252.96 728.425 251.425 724.539C251.241 724.711 251.077 724.847 250.934 724.95C250.731 725.016 250.57 725.013 250.45 724.941L249.829 724.145L250.162 723.286C250.245 723.148 250.324 722.983 250.398 722.793C250.471 722.602 250.55 722.437 250.633 722.299C249.471 719.014 248.411 715.695 247.451 712.344C246.492 708.992 245.625 705.555 244.851 702.032C244.768 701.559 244.566 700.708 244.245 699.48C243.915 698.2 243.622 696.824 243.365 695.353C243.049 693.846 242.848 692.385 242.762 690.969C242.676 689.553 242.836 688.473 243.242 687.729ZM350.432 639.168C350.316 640.039 349.905 641.062 349.199 642.238C348.492 643.413 347.706 644.586 346.838 645.759C346.769 646.281 346.699 646.804 346.63 647.327C346.56 647.849 346.525 648.416 346.524 649.027C346.48 651.541 346.521 654.082 346.647 656.651C346.764 659.167 346.902 661.649 347.061 664.097C348.398 663.159 349.684 662.239 350.919 661.335C352.146 660.378 353.351 659.456 354.536 658.569C355.025 658.298 355.158 658.449 354.936 659.021C354.756 659.524 354.438 660.156 353.981 660.916C353.515 661.624 353.049 662.332 352.583 663.04C352.108 663.695 351.87 664.023 351.87 664.023C351.187 665.024 350.504 666.025 349.821 667.025C349.139 668.026 348.396 668.991 347.593 669.92C348.072 674.206 348.727 678.269 349.556 682.107C350.386 685.945 351.481 689.614 352.841 693.112C354.2 696.61 355.86 699.983 357.819 703.23C359.778 706.476 362.156 709.669 364.953 712.808C364.86 713.505 364.544 714.303 364.004 715.201C363.524 716.136 362.938 717.077 362.246 718.026C361.614 719.01 360.942 719.924 360.232 720.767C359.582 721.646 359.039 722.379 358.606 722.965C358.514 723.051 358.292 723.318 357.942 723.766C357.642 724.197 357.291 724.645 356.89 725.109C356.539 725.557 356.175 725.926 355.797 726.217C355.479 726.543 355.23 726.652 355.05 726.544C354.31 725.676 353.544 724.816 352.752 723.964C351.97 723.165 351.204 722.304 350.454 721.383C348.228 718.446 346.338 715.288 344.784 711.909C343.222 708.477 341.933 704.927 340.919 701.26C339.947 697.524 339.177 693.722 338.61 689.853C338.034 685.932 337.589 681.996 337.275 678.044C335.888 678.998 334.521 679.917 333.175 680.802C331.819 681.634 330.439 682.474 329.033 683.323C329.139 687.62 329.535 691.739 330.222 695.68C330.95 699.551 332.186 702.951 333.928 705.88C334.517 706.798 335.147 707.647 335.819 708.427C336.532 709.138 337.229 709.909 337.91 710.742C337.817 711.439 337.506 712.263 336.975 713.214C336.485 714.096 335.895 715.011 335.203 715.959C334.571 716.944 333.899 717.858 333.189 718.701C332.539 719.58 331.997 720.313 331.563 720.899C331.471 720.985 331.249 721.251 330.899 721.699C330.599 722.131 330.248 722.579 329.847 723.043C329.496 723.491 329.132 723.86 328.754 724.15C328.436 724.477 328.187 724.586 328.007 724.478C327.327 723.645 326.625 722.848 325.903 722.084C325.24 721.357 324.614 720.534 324.026 719.616C322.881 717.658 321.992 715.477 321.359 713.074C320.666 710.635 320.136 708.059 319.771 705.346C319.405 702.634 319.212 699.837 319.192 696.955C319.113 694.038 319.134 691.087 319.257 688.104C318.681 688.181 318.113 688.145 317.551 687.995C316.929 687.81 316.347 687.39 315.804 686.734C316.109 686.024 316.635 685.046 317.382 683.802C318.121 682.505 318.935 681.184 319.826 679.837C320.087 677.03 320.366 674.329 320.664 671.732C321.012 669.119 321.363 666.672 321.715 664.391C321.98 662.527 322.435 660.684 323.082 658.862C323.729 657.04 324.185 655.197 324.449 653.333C323.301 655.042 321.997 656.94 320.539 659.027C319.072 661.062 317.515 663.043 315.869 664.97C314.222 666.897 312.539 668.614 310.819 670.121C309.039 671.592 307.237 672.626 305.412 673.223C305.361 673.239 304.938 673.267 304.141 673.305C303.344 673.344 302.466 673.381 301.508 673.417C300.49 673.417 299.548 673.392 298.682 673.342C297.816 673.292 297.335 673.144 297.238 672.898C297.534 672.135 298.097 671.062 298.928 669.679C299.758 668.297 300.69 666.881 301.724 665.432C302.697 663.948 303.698 662.62 304.727 661.451C305.696 660.245 306.5 659.482 307.141 659.162C307.141 659.162 307.387 659.192 307.88 659.253C308.373 659.314 308.921 659.385 309.525 659.465C310.128 659.545 310.731 659.626 311.335 659.706C311.878 659.75 312.231 659.774 312.392 659.777C312.825 659.802 313.299 659.757 313.815 659.644C314.281 659.547 314.716 659.433 315.122 659.3C316.499 658.905 317.797 658.203 319.014 657.194C320.222 656.132 321.315 655.025 322.293 653.872C322.75 653.111 323.216 652.404 323.691 651.748C324.217 651.076 324.713 650.387 325.179 649.679C325.636 648.918 326.139 648.115 326.688 647.269C327.278 646.354 327.703 645.715 327.961 645.353C328.718 644.161 329.514 643.04 330.349 641.99C331.184 640.939 332.049 639.906 332.943 638.892C333.169 638.651 333.4 638.437 333.635 638.249C333.861 638.008 334.096 637.82 334.34 637.685C334.442 637.652 334.502 637.688 334.52 637.793C334.454 639.258 334.231 640.747 333.852 642.26C333.463 643.72 333.075 645.18 332.686 646.64C332.46 647.491 332.298 648.1 332.201 648.465C332.094 648.777 331.949 649.325 331.763 650.107C331.74 650.281 331.685 650.577 331.597 650.995C331.559 651.396 331.548 651.483 331.562 651.256L331.534 651.098C331.052 654.478 330.585 658.101 330.134 661.97C329.683 665.838 329.352 669.779 329.14 673.791C331.601 673.153 334.149 672.097 336.786 670.623C336.763 670.187 336.736 669.723 336.704 669.234C336.672 668.744 336.666 668.247 336.685 667.741C336.569 664.613 336.657 661.891 336.949 659.574C337.233 657.204 337.874 654.884 338.871 652.614C338.461 653.026 338.297 653.163 338.38 653.024C338.463 652.886 338.622 652.723 338.857 652.535L338.871 652.614C338.871 652.614 338.892 652.579 338.933 652.51L338.857 652.535C339.328 651.548 339.85 650.544 340.422 649.524C341.045 648.487 341.765 647.391 342.582 646.235C342.831 645.82 343.318 645.078 344.042 644.008C344.757 642.885 345.511 641.833 346.305 640.852C347.149 639.854 347.958 639.117 348.733 638.641C349.507 638.166 350.073 638.342 350.432 639.168ZM363.385 677.666C363.016 678.009 362.756 678.206 362.604 678.255C362.443 678.253 362.519 677.922 362.833 677.264C363.115 676.728 363.401 676.217 363.691 675.734C363.931 675.266 364.218 674.756 364.55 674.203C363.304 672.278 361.788 670.497 360.002 668.86C359.109 668.041 357.91 667.462 356.404 667.121C354.847 666.797 353.456 666.808 352.23 667.154C351.714 667.267 351.212 667.459 350.723 667.73C350.184 668.018 349.643 668.139 349.099 668.095C348.768 668.037 348.514 667.814 348.34 667.427C348.294 667.164 348.453 666.695 348.818 666.021C349.183 665.346 349.623 664.647 350.14 663.922C350.597 663.162 351.063 662.454 351.538 661.799C351.963 661.16 352.237 660.737 352.362 660.53C353.52 658.873 354.521 657.546 355.365 656.548C356.2 655.498 357.062 654.605 357.952 653.869L358.264 653.351C358.314 653.334 358.349 653.378 358.367 653.483C359.257 652.748 360.271 652.111 361.41 651.572C362.539 650.98 363.972 650.289 365.71 649.499C368.535 648.186 371.328 646.994 374.088 645.925C376.89 644.786 379.708 643.586 382.543 642.326C383.386 641.939 384.179 641.568 384.921 641.215C385.705 640.792 386.518 640.387 387.361 640C389.855 638.629 392.289 637.222 394.663 635.778C397.028 634.283 399.291 632.515 401.454 630.475C403.331 628.028 404.764 626.254 405.751 625.154C406.779 623.984 407.515 623.438 407.957 623.516C408.44 623.524 408.767 624.167 408.936 625.445C409.096 626.67 409.326 628.455 409.628 630.8C409.751 631.814 409.875 632.829 409.998 633.844C410.112 634.806 410.226 635.769 410.34 636.731C411.889 635.78 413.422 634.89 414.938 634.061C416.496 633.162 418.054 632.264 419.612 631.365C420.101 631.095 420.234 631.245 420.012 631.818C419.832 632.321 419.514 632.953 419.057 633.713C418.591 634.421 418.125 635.129 417.659 635.837C417.183 636.492 416.946 636.819 416.946 636.819C416.088 638.044 415.23 639.269 414.371 640.494C413.513 641.719 412.565 642.89 411.528 644.007C411.601 644.427 411.67 644.821 411.734 645.189C411.789 645.504 411.878 645.864 412.002 646.267C413.973 655.119 416.387 663.743 419.243 672.139C422.091 680.482 425.027 688.88 428.054 697.331C427.961 698.027 427.645 698.825 427.105 699.724C426.625 700.658 426.039 701.6 425.347 702.548C424.715 703.533 424.043 704.446 423.333 705.29C422.682 706.169 422.14 706.902 421.707 707.488C421.615 707.573 421.393 707.84 421.043 708.288C420.743 708.719 420.392 709.167 419.991 709.632C419.64 710.08 419.276 710.449 418.898 710.739C418.58 711.065 418.331 711.175 418.151 711.067C415.143 702.721 412.211 694.35 409.354 685.954C406.489 677.505 404.071 668.855 402.099 660.003C401.732 658.513 401.416 657.006 401.151 655.482C400.927 653.889 400.707 652.323 400.492 650.782C396.611 653.107 392.769 655.503 388.966 657.969C385.163 660.435 381.413 663.05 377.715 665.814C379.002 668.281 380.167 670.816 381.21 673.418C382.295 675.951 383.349 678.466 384.374 680.964C384.654 681.649 385.013 682.476 385.449 683.444C385.936 684.396 386.378 685.39 386.773 686.427C387.218 687.447 387.583 688.466 387.868 689.484C388.194 690.433 388.345 691.299 388.321 692.085L388.335 692.164C388.344 692.216 388.379 692.26 388.438 692.296L388.252 692.607C388.057 693.337 387.69 694.152 387.15 695.05C386.61 695.949 386.02 696.864 385.378 697.796C384.728 698.675 384.073 699.528 383.413 700.355C382.804 701.165 382.304 701.828 381.912 702.345C381.819 702.431 381.623 702.69 381.324 703.121C381.024 703.552 380.673 704 380.272 704.465C379.921 704.913 379.557 705.282 379.179 705.572C378.861 705.898 378.612 706.007 378.432 705.9C378.285 705.67 378.133 705.414 377.977 705.132C377.83 704.903 377.683 704.673 377.536 704.444C377.619 704.305 377.672 704.149 377.695 703.975C377.769 703.784 377.868 703.585 377.993 703.378C377.575 701.904 376.992 700.401 376.242 698.869C375.535 697.267 374.949 695.904 374.485 694.778C373.18 691.595 371.841 688.368 370.467 685.097C369.084 681.772 367.466 678.636 365.612 675.688C365.244 676.031 364.875 676.374 364.506 676.717C364.128 677.007 363.754 677.324 363.385 677.666ZM371.955 657.202C372.558 657.894 373.114 658.628 373.625 659.405C374.177 660.113 374.733 660.847 375.294 661.608C379.154 658.235 383.1 655.056 387.134 652.07C391.219 649.068 395.377 646.18 399.609 643.407C399.614 643.128 399.577 642.918 399.499 642.777C399.462 642.567 399.447 642.322 399.451 642.043C399.424 641.885 399.404 641.614 399.39 641.23C399.377 640.845 399.354 640.408 399.322 639.919C399.291 639.429 399.238 638.975 399.165 638.554C399.092 638.134 398.982 637.809 398.834 637.579C398.687 637.35 398.404 637.415 397.984 637.774C396.13 640.047 394.163 642.134 392.083 644.036C390.045 645.869 387.904 647.57 385.659 649.137C383.455 650.636 381.153 652.027 378.751 653.313C376.391 654.529 373.997 655.701 371.568 656.829C371.706 657.006 371.835 657.13 371.955 657.202ZM348.983 666.967C348.882 667 348.81 667.051 348.769 667.12C348.718 667.137 348.718 667.137 348.769 667.12C348.819 667.103 348.87 667.087 348.921 667.07C348.911 667.018 348.932 666.983 348.983 666.967ZM398.51 637.102L398.448 637.206L398.51 637.102ZM398.372 637.231L398.448 637.206L398.372 637.231ZM266.307 764.739C266.603 763.976 267.166 762.903 267.997 761.52C268.827 760.138 269.734 758.731 270.717 757.298C271.741 755.797 272.742 754.47 273.72 753.317C274.739 752.095 275.569 751.323 276.21 751.003C276.182 751.456 276.108 751.953 275.987 752.492C275.867 753.031 275.848 753.537 275.93 754.01C276.765 752.959 277.637 752.119 278.545 751.489C278.646 751.455 278.722 751.431 278.773 751.414C278.815 751.345 278.886 751.294 278.987 751.261C279.153 751.595 279.332 752.009 279.525 752.501C279.423 753.145 279.173 753.865 278.776 754.662C278.421 755.389 277.969 756.176 277.42 757.022C278.275 758.241 279.382 759.518 280.739 760.851C282.087 762.131 283.572 763.423 285.192 764.726C286.853 765.959 288.566 767.176 290.329 768.377C292.092 769.577 293.816 770.707 295.501 771.766C297.227 772.757 298.808 773.683 300.245 774.546C301.732 775.393 303 776.061 304.05 776.55C304.529 776.838 305.364 777.176 306.557 777.563C307.791 777.881 309.06 778.244 310.363 778.65C311.657 779.005 312.82 779.374 313.851 779.759C314.934 780.126 315.557 780.478 315.723 780.812C315.819 781.059 315.798 781.399 315.66 781.833C315.572 782.25 315.408 782.693 315.168 783.16C314.918 783.575 314.665 783.963 314.406 784.325C314.199 784.671 314.032 784.948 313.908 785.155C313.026 786.554 312.053 788.039 310.987 789.609C309.972 791.163 308.883 792.602 307.721 793.927C307.338 794.496 306.987 794.944 306.669 795.27C306.351 795.597 306.132 795.724 306.012 795.652C305.694 795.978 305.371 796.278 305.044 796.552C304.758 796.756 304.447 796.969 304.111 797.19C302.732 798.197 301.186 799.008 299.471 799.624C297.808 800.224 296.188 800.921 294.612 801.714C295.219 802.126 295.822 802.512 296.421 802.872C297.019 803.231 297.588 803.573 298.126 803.896C300.658 805.512 302.932 806.878 304.949 807.996C306.965 809.113 308.97 810.012 310.964 810.693C313.009 811.357 315.148 811.796 317.382 812.009C319.667 812.206 322.318 812.199 325.335 811.99C325.219 812.861 324.767 813.953 323.978 815.266C323.248 816.615 322.358 817.962 321.306 819.306C320.314 820.685 319.279 821.968 318.199 823.154C317.18 824.376 316.322 825.296 315.626 825.912C312.608 826.122 309.957 826.128 307.673 825.932C305.439 825.718 303.3 825.28 301.255 824.616C299.261 823.935 297.256 823.036 295.239 821.918C293.223 820.801 290.949 819.434 288.417 817.819C287.929 817.479 287.39 817.155 286.801 816.848C286.262 816.525 285.719 816.175 285.171 815.798C284.641 816.75 283.988 817.768 283.213 818.855C282.447 819.994 281.646 821.089 280.811 822.14C280.027 823.174 279.229 824.129 278.418 825.006C277.657 825.865 277.02 826.518 276.508 826.963C275.224 826.05 274.085 825.201 273.091 824.416C272.147 823.613 271.271 822.734 270.461 821.777C269.711 820.856 269.019 819.805 268.384 818.624C267.801 817.427 267.226 815.976 266.662 814.273C265.127 814.997 263.622 815.739 262.147 816.499C260.612 817.224 259.078 817.948 257.543 818.672C257.363 818.564 257.368 818.285 257.558 817.834C257.747 817.384 258.012 816.908 258.354 816.408C258.635 815.871 258.926 815.387 259.226 814.956C259.526 814.525 259.717 814.24 259.8 814.102C260.4 813.239 261.141 812.108 262.022 810.709C262.903 809.31 263.838 808.06 264.825 806.96C264.669 806.067 264.543 805.191 264.447 804.334C264.292 803.441 264.171 802.592 264.084 801.787C263.427 796.171 263.225 790.711 263.48 785.407C263.776 780.034 264.896 774.781 266.841 769.646C266.685 769.364 266.558 769.1 266.462 768.854C266.356 768.555 266.255 768.283 266.159 768.036C265.956 767.492 265.916 766.95 266.036 766.41C266.207 765.855 266.297 765.297 266.307 764.739ZM273.37 776.674C273.366 780.34 273.548 784.307 273.917 788.574C274.327 792.772 275.15 796.723 276.385 800.429C278.265 799.536 280.1 798.686 281.888 797.879C283.727 797.055 285.591 796.223 287.481 795.383C287.665 795.212 287.829 795.075 287.972 794.972C288.114 794.87 288.257 794.768 288.4 794.666L288.441 794.902C289.732 794.313 291.027 793.751 292.327 793.215C293.617 792.626 294.908 792.037 296.198 791.448C292.026 789.647 288.033 787.483 284.216 784.955C280.391 782.374 276.776 779.614 273.37 776.674ZM312.836 748.268C312.919 748.13 313.219 747.699 313.736 746.974C314.243 746.197 314.864 745.3 315.597 744.282C316.322 743.212 317.092 742.1 317.909 740.944C318.725 739.788 319.459 738.771 320.109 737.891C320.81 736.996 321.366 736.342 321.777 735.93C322.229 735.449 322.406 735.391 322.309 735.756C322.277 735.877 322.244 735.999 322.212 736.121C322.179 736.242 322.172 736.356 322.191 736.461C322.19 737.072 322.235 737.64 322.327 738.166C322.419 738.691 322.515 739.243 322.615 739.821C322.881 741.344 323.142 742.842 323.398 744.313C323.655 745.784 323.966 747.265 324.333 748.755C325.066 752.348 325.922 755.872 326.899 759.329C327.927 762.769 329.052 766.15 330.274 769.471C330.661 769.233 331.053 769.022 331.45 768.837C331.837 768.599 332.224 768.361 332.611 768.123C333.091 767.189 333.73 766.091 334.529 764.83C335.369 763.5 336.243 762.215 337.152 760.973C338.061 759.732 338.942 758.638 339.795 757.693C340.639 756.695 341.331 756.052 341.87 755.764C342.201 756.434 342.481 757.119 342.711 757.822C342.991 758.508 343.322 759.177 343.703 759.83C344.31 760.853 344.954 761.781 345.635 762.613C345.981 762.445 346.331 762.302 346.686 762.186C347.032 762.018 347.423 761.806 347.861 761.552C349.152 760.963 350.468 760.366 351.809 759.761C353.141 759.103 354.473 758.445 355.805 757.787C353.613 756.893 351.474 755.844 349.389 754.637C347.294 753.379 345.274 751.93 343.327 750.289C342.264 749.415 341.115 748.514 339.882 747.584C338.699 746.638 337.583 745.615 336.534 744.514C335.485 743.414 334.629 742.194 333.967 740.855C333.296 739.464 333.001 737.923 333.081 736.23C333.091 735.672 333.361 734.917 333.892 733.966C334.464 732.946 335.163 731.884 335.989 730.781C336.805 729.625 337.703 728.471 338.68 727.318C339.7 726.096 340.682 724.969 341.628 723.938C341.835 723.592 342.048 723.273 342.264 722.98C342.481 722.687 342.693 722.367 342.901 722.022C342.938 722.232 342.94 722.398 342.908 722.519C343.359 722.038 343.77 721.626 344.139 721.283C344.499 720.888 344.817 720.562 345.093 720.305C345.49 720.12 345.635 720.183 345.529 720.496C345.473 720.791 345.304 721.208 345.023 721.744C344.741 722.28 344.388 722.868 343.964 723.507C343.581 724.076 343.239 724.577 342.939 725.008C342.994 725.323 343.056 725.525 343.125 725.614C343.488 726.772 344.053 727.865 344.822 728.891C345.59 729.917 346.455 730.883 347.417 731.791C348.378 732.698 349.356 733.544 350.351 734.33C351.395 735.099 352.35 735.814 353.216 736.475C355.632 738.35 357.973 739.944 360.238 741.258C362.494 742.52 364.794 743.572 367.137 744.416C369.481 745.26 371.929 745.931 374.48 746.429C377.023 746.875 379.793 747.246 382.792 747.542L382.806 747.621L383.11 747.522C382.985 747.729 382.831 747.918 382.646 748.09C382.378 749.011 381.875 750.119 381.136 751.416C380.389 752.66 379.54 753.938 378.589 755.248C377.63 756.506 376.661 757.712 375.683 758.865C374.696 759.965 373.88 760.815 373.234 761.415L373.082 761.465C369.41 762.222 365.818 763.286 362.306 764.657C358.786 765.975 355.262 767.433 351.737 769.031C353.978 771.13 356.376 773.206 358.93 775.258C361.535 777.294 364.147 779.216 366.766 781.025C369.436 782.818 372.058 784.487 374.631 786.033C377.196 787.527 379.537 788.816 381.654 789.9C381.538 790.771 381.086 791.863 380.297 793.177C379.567 794.526 378.677 795.873 377.625 797.216C376.633 798.596 375.598 799.879 374.518 801.065C373.499 802.287 372.641 803.206 371.945 803.823C369.298 802.467 366.324 800.775 363.023 798.744C359.773 796.697 356.491 794.467 353.177 792.052C349.863 789.637 346.687 787.094 343.649 784.422C340.612 781.751 338.037 779.122 335.926 776.536C335.539 776.774 335.147 776.985 334.75 777.17C334.345 777.303 333.944 777.462 333.548 777.647C336.061 783.156 338.912 788.444 342.099 793.51C342.006 794.207 341.694 795.031 341.163 795.982C340.674 796.864 340.083 797.779 339.391 798.728C338.759 799.712 338.088 800.626 337.378 801.469C336.727 802.348 336.185 803.081 335.751 803.667C335.659 803.753 335.438 804.02 335.087 804.468C334.787 804.899 334.437 805.347 334.036 805.811C333.685 806.259 333.321 806.628 332.943 806.919C332.624 807.245 332.376 807.354 332.196 807.246C329.979 803.75 327.936 800.17 326.065 796.506C324.235 792.773 322.553 788.963 321.019 785.078C320.835 785.249 320.671 785.386 320.528 785.488C320.325 785.555 320.164 785.552 320.044 785.48L319.423 784.683L319.756 783.825C319.839 783.687 319.917 783.522 319.991 783.331C320.065 783.141 320.144 782.976 320.227 782.838C319.065 779.553 318.004 776.234 317.045 772.882C316.086 769.531 315.219 766.093 314.444 762.57C314.362 762.097 314.16 761.247 313.839 760.019C313.509 758.739 313.215 757.363 312.959 755.892C312.643 754.385 312.442 752.923 312.356 751.508C312.27 750.092 312.43 749.012 312.836 748.268ZM398.939 729.514C399.447 728.737 399.959 727.987 400.476 727.262C400.983 726.485 401.521 725.726 402.088 724.985C401.785 724.474 401.603 723.894 401.544 723.247C401.476 722.548 401.331 721.873 401.111 721.223C401.407 720.46 401.97 719.387 402.8 718.004C403.631 716.622 404.538 715.215 405.521 713.782C406.545 712.281 407.546 710.954 408.524 709.801C409.543 708.579 410.373 707.808 411.014 707.487C411.234 708.137 411.383 708.838 411.461 709.59C411.58 710.273 411.825 710.915 412.198 711.515C412.639 712.203 413.272 712.913 414.096 713.643C414.92 714.373 415.794 715.087 416.719 715.784C417.635 716.428 418.521 717.055 419.377 717.663C420.275 718.203 421.028 718.678 421.635 719.09C423.15 720.095 424.699 721.143 426.282 722.235C427.917 723.311 429.459 724.473 430.908 725.72C432.409 726.951 433.771 728.311 434.994 729.799C436.269 731.27 437.308 732.929 438.112 734.777C439.238 737.241 439.802 739.861 439.804 742.637C439.856 745.397 439.464 748.219 438.627 751.103C437.831 753.918 436.718 756.753 435.287 759.609C433.847 762.413 432.202 765.117 430.352 767.722C428.552 770.31 426.615 772.721 424.54 774.955C422.524 777.224 420.544 779.233 418.598 780.98C417.44 782.025 416.163 782.999 414.766 783.9C413.379 784.854 411.943 785.684 410.459 786.392C408.975 787.1 407.459 787.623 405.911 787.963C404.422 788.339 402.943 788.462 401.474 788.332C399.411 788.174 397.776 787.403 396.571 786.02C395.425 784.673 394.547 783.017 393.936 781.051C393.284 779.154 392.856 777.156 392.651 775.057C392.386 772.922 392.208 770.981 392.118 769.233C391.987 766.943 391.835 764.383 391.663 761.551C391.533 758.65 391.504 755.716 391.576 752.749C391.639 749.73 391.882 746.818 392.304 744.014C392.768 741.141 393.554 738.579 394.662 736.328C395.257 735.134 395.938 733.967 396.704 732.828C397.47 731.689 398.215 730.584 398.939 729.514ZM411.926 733.013C411.01 732.369 409.739 731.535 408.114 730.511C406.54 729.471 405.148 728.399 403.937 727.296C403.721 727.589 403.504 727.882 403.287 728.175C403.07 728.468 402.853 728.761 402.637 729.054C402.484 729.715 402.361 730.394 402.268 731.091C402.217 731.719 402.14 732.355 402.038 732.999C401.619 736.746 401.447 740.523 401.521 744.331C401.637 748.069 401.804 751.792 402.021 755.497C402.179 757.944 402.407 760.48 402.704 763.104C403.051 765.712 403.836 768.065 405.059 770.164C406.291 772.316 407.886 773.627 409.843 774.097C411.851 774.551 413.929 774.483 416.076 773.891C418.283 773.336 420.452 772.404 422.581 771.097C424.711 769.789 426.585 768.399 428.204 766.925C428.582 766.024 428.903 765.252 429.167 764.611C429.421 763.917 429.62 763.213 429.763 762.499C429.948 761.717 430.069 760.872 430.125 759.965C430.172 759.006 430.178 757.81 430.143 756.377C430.105 753.391 429.486 750.761 428.286 748.488C427.136 746.198 425.676 744.121 423.905 742.257C422.133 740.393 420.182 738.726 418.05 737.258C415.919 735.789 413.878 734.374 411.926 733.013ZM267.928 851.513C267.748 851.405 267.753 851.126 267.942 850.675C268.132 850.224 268.397 849.749 268.738 849.248C269.02 848.712 269.311 848.228 269.611 847.797C269.91 847.365 270.102 847.08 270.185 846.942C271.292 845.303 272.409 843.716 273.535 842.181C274.66 840.646 275.88 839.192 277.195 837.818C277.328 837.663 277.471 837.561 277.623 837.511C277.766 837.409 277.884 837.315 277.976 837.229C278.077 837.196 278.153 837.171 278.204 837.155C278.246 837.085 278.317 837.034 278.418 837.001C279.532 837.859 280.531 838.976 281.414 840.353C282.297 841.73 283.092 843.22 283.8 844.821C284.549 846.353 285.227 847.936 285.833 849.571C286.439 851.205 287.048 852.7 287.659 854.055C288.969 856.959 290.283 859.889 291.602 862.845C292.963 865.732 294.348 868.611 295.76 871.481C296.412 872.767 297.07 874.08 297.732 875.418C298.444 876.74 299.152 878.036 299.856 879.305C299.875 878.188 299.895 877.071 299.914 875.954C299.985 874.82 300.08 873.678 300.201 872.528C301.49 860.554 304.731 849.636 309.924 839.773C315.117 829.911 322.239 820.972 331.291 812.957C331.779 812.686 331.913 812.837 331.691 813.409C331.511 813.913 331.192 814.544 330.735 815.305C330.269 816.013 329.803 816.72 329.337 817.428C328.862 818.083 328.625 818.411 328.625 818.411C327.725 819.705 326.8 821.007 325.849 822.318C324.89 823.576 323.845 824.806 322.715 826.009C321.927 826.711 321.088 827.43 320.198 828.165C319.35 828.832 318.545 829.595 317.784 830.455C316.519 833.034 315.394 835.651 314.41 838.306C313.468 840.891 312.679 843.593 312.045 846.41C311.555 848.515 311.166 850.586 310.878 852.624C310.581 854.609 310.323 856.665 310.104 858.792C309.937 860.29 309.85 861.79 309.844 863.292C309.828 864.741 309.813 866.19 309.798 867.639C309.815 868.966 309.843 870.512 309.882 872.276C309.973 874.024 310.017 875.814 310.015 877.648C310.013 879.481 309.93 881.313 309.767 883.144C309.595 884.922 309.28 886.496 308.822 887.868C308.619 888.545 308.019 889.714 307.022 891.373C306.016 892.979 304.913 894.645 303.714 896.37C302.514 898.095 301.333 899.62 300.171 900.945C299.009 902.269 298.105 902.926 297.46 902.914C297.027 902.889 296.518 902.584 295.934 901.997C295.409 901.447 294.871 900.818 294.319 900.11C293.818 899.385 293.376 898.697 292.995 898.044C292.622 897.444 292.401 897.1 292.332 897.011C291.744 896.093 291.19 895.219 290.67 894.389C290.192 893.49 289.684 892.574 289.146 891.639C288.112 889.7 287.015 887.56 285.857 885.217C284.699 882.875 283.653 880.718 282.72 878.746C282.361 877.919 281.863 876.75 281.224 875.237C280.576 873.672 279.846 871.939 279.032 870.039C278.219 868.139 277.341 866.177 276.399 864.153C275.499 862.059 274.6 860.132 273.704 858.37C272.798 856.556 271.908 854.987 271.035 853.662C270.161 852.337 269.386 851.425 268.709 850.924C268.617 851.01 268.499 851.104 268.356 851.206C268.204 851.256 268.061 851.358 267.928 851.513Z" fill="#303030"/>
<path d="M31.15 578.65L27.67 578.65L27.67 605.35L31.15 605.35L31.15 578.65ZM11.2 580L7.54 581.05C8.35 585.07 9.43 590.53 10.51 595.57L14.05 595.24C12.94 589.81 11.83 583.87 11.2 580ZM26.2 602.47C24.07 600.52 21.46 597.28 19.96 594.85L17.8 597.52C19.33 599.95 21.7 603.1 23.98 605.53L26.2 602.47ZM35.47 590.05L28.96 590.05L28.96 593.8L35.47 593.8L35.47 590.05ZM29.08 594.91L28.45 591.37C19.54 592.72 13.06 595.06 7.39 603.82C8.56 604.3 9.94 605.5 10.69 606.46C15.19 598.39 20.92 596.11 29.08 594.91ZM29.92 590.2C26.2 587.89 22.33 582.88 20.26 577.72C19.51 578.32 18.04 579.28 17.14 579.7C19.6 585.4 23.86 590.56 28.48 593.83L29.92 590.2ZM21.22 584.26L10.66 584.26L10.66 587.92L23.92 587.92L24.16 587.23L21.22 584.26ZM35.32 612.67L7.36 612.67L7.36 616L35.32 616L35.32 612.67ZM25.48 608.14L22.12 608.14L22.12 620.44L25.48 620.44L25.48 608.14ZM23.68 612.04C20.71 611.2 16.54 609.37 14.32 607.57C13.3 608.11 11.71 608.89 10.6 609.22C13.48 611.2 18.7 613.06 22.72 614.02L23.68 612.04ZM21.94 615.94L20.53 614.29C19.06 615.37 15.73 617.38 14.02 618.16L16.84 620.38C17.68 619.72 21.16 616.81 21.94 615.94ZM33.01 608.08C30.82 608.8 27.91 609.37 26.02 609.43L26.74 612.13C28.63 611.98 31.48 611.38 33.67 610.6L33.01 608.08ZM33.82 617.98C31.69 617.65 28.66 616.93 26.74 616.33L26.11 618.58C27.88 619.33 30.73 620.23 33.16 621.01L33.82 617.98ZM35.5 629.32L7.33 629.32L7.33 632.71L35.5 632.71L35.5 629.32ZM16.72 620.35L13.36 620.92L16.15 636.31L19.48 635.77L16.72 620.35ZM31.39 622.06C30.31 623.74 28.66 625.84 27.49 626.74L30.22 628.63C31.33 627.64 32.83 625.51 33.85 623.83L31.39 622.06ZM23.83 620.71C22.81 622.45 21.19 624.64 20.08 625.66L22.93 627.46C24.04 626.38 25.48 624.13 26.41 622.39L23.83 620.71ZM30.85 646.69L30.85 657.25L26.8 657.25L26.8 646.69L30.85 646.69ZM34.27 643.21L23.38 643.21L23.38 660.94L34.27 660.94L34.27 643.21ZM20.86 639.1L7.3 639.1L7.3 642.49L17.44 642.49L17.44 646.96L7.48 646.96L7.48 650.56L20.86 650.56L20.86 639.1ZM20.86 653.11L7.3 653.11L7.3 656.56L17.44 656.56L17.44 661.36L7.45 661.36L7.45 664.99L20.86 664.99L20.86 653.11ZM12.25 640.6L8.8 640.6L8.8 648.46L12.25 648.46L12.25 640.6ZM12.25 654.76L8.8 654.76L8.8 663.16L12.25 663.16L12.25 654.76ZM11.71 669.76L8.2 670.24C8.41 675.64 8.77 683.56 9.19 690.91L12.49 691.03C12.16 683.47 11.86 675.13 11.71 669.76ZM20.65 669.61L17.29 669.61L17.29 694.57L20.65 694.57L20.65 669.61ZM26.41 674.95L23.11 674.95L23.11 689.02L26.41 689.02L26.41 674.95ZM18.46 676.96C15.94 676.21 12.61 674.77 10.42 673.54L9.37 676.69C11.38 678.04 14.5 679.66 17.32 681.07L18.46 676.96ZM15.37 684.4C12.97 686.98 9.55 689.86 7.27 691.12L9.28 694.45C11.56 693.07 14.71 690.28 17.02 687.58L15.37 684.4ZM31.96 681.97C28.48 684.52 24.7 689.59 22.6 694.09C23.68 694.75 24.97 695.56 25.87 696.43C27.58 691.66 31 686.89 35.41 683.71L35.41 679.9C31.87 677.68 27.58 672.88 25.33 667.75C24.55 668.5 23.2 669.46 22.33 669.88C24.7 674.86 28.54 679.54 31.96 681.97ZM11.68 709.27L8.14 709.27L8.14 726.37L11.68 726.37L11.68 709.27ZM26.17 710.5L22.72 710.5L22.72 725.65L26.17 725.65L26.17 710.5ZM35.17 716.23L9.97 716.23L9.97 719.92L35.17 719.92L35.17 716.23ZM29.92 698.5L26.65 698.5L26.65 708.34L29.92 708.34L29.92 698.5ZM19.66 702.79L7.27 702.79L7.27 706.36L23.92 706.36L19.66 702.79ZM35.44 702.79L28.39 702.79L28.39 706.36L35.44 706.36L35.44 702.79ZM22.9 706L21.16 704.02C19.84 705.37 17.08 707.89 15.52 709.06L18.43 711.25C19.18 710.44 22.18 707.05 22.9 706ZM29.92 707.02L29.26 707.02C24.85 705.43 20.44 701.47 18.22 697.39C17.53 697.93 15.76 698.77 14.8 699.1C17.62 703.57 22.87 708.1 28.72 710.38L30.04 708.37L29.92 707.74L29.92 707.02Z" fill="white"/>
</svg>
