<svg width="17" height="28" viewBox="0 0 17 28" fill="none" xmlns="http://www.w3.org/2000/svg">
<path d="M11.4764 4.424L10.0764 4.424L10.0764 9.604L11.4764 9.604L11.4764 4.424ZM3.72037 0.98L2.34837 0.98L2.34837 13.076L3.72037 13.076L3.72037 0.98ZM14.6964 1.792L13.3384 1.792L13.3384 5.712L14.6964 5.712L14.6964 1.792ZM14.6964 5.18L14.4164 5.18C12.3444 4.41 10.4404 2.324 9.55837 0.238C9.26437 0.574 8.69037 1.022 8.34037 1.246C9.47437 3.598 11.4764 5.81 14.2204 6.846L14.7664 5.754L14.6964 5.46L14.6964 5.18ZM15.1724 8.372L14.7244 6.944C11.9524 8.106 9.71237 10.024 8.53637 12.6C8.97037 12.852 9.60037 13.342 9.93637 13.734C10.8604 11.298 12.8904 9.338 15.1724 8.372ZM12.1764 1.12C11.7844 1.722 11.1824 2.478 10.7624 2.842L11.7844 3.78C12.2044 3.416 12.7504 2.646 13.1004 2.016L12.1764 1.12ZM15.0884 10.528C14.4724 9.996 13.6604 9.072 13.1844 8.4L12.4004 9.408C12.8484 10.108 13.5344 11.018 14.1924 11.788L15.0884 10.528ZM13.4504 12.11C12.8064 11.536 11.9804 10.556 11.4764 9.828L10.6924 10.836C11.1544 11.578 11.8824 12.544 12.5824 13.342L13.4504 12.11ZM7.93437 4.55L7.93437 9.338L6.70237 9.338L6.70237 4.55L7.93437 4.55ZM9.27837 2.912L5.37237 2.912L5.37237 11.074L9.27837 11.074L9.27837 2.912ZM5.19037 3.724C4.64437 4.046 3.90237 4.354 3.42637 4.452L3.88837 6.062C4.36437 5.936 5.07837 5.628 5.58237 5.264L5.19037 3.724ZM5.59637 8.722C5.06437 8.554 4.30837 8.204 3.81837 7.924L3.48237 9.394C3.93037 9.674 4.56037 9.996 5.24637 10.346L5.59637 8.722ZM8.91436 26.264C8.34036 25.914 7.54236 25.284 7.05236 24.822L6.35236 25.872C6.80036 26.376 7.47236 26.992 8.11636 27.58L8.91436 26.264ZM8.00437 20.034C7.45837 20.58 6.68837 21.182 6.15636 21.406L6.94036 22.582C7.47236 22.316 8.20037 21.7 8.71837 21.126L8.00437 20.034ZM14.7384 20.636L13.3664 20.636L13.3664 24.864L9.82436 24.864L9.82436 26.418L14.7384 26.418L14.7384 20.636ZM12.6244 20.944L11.3364 20.944L11.3364 25.746L12.6244 25.746L12.6244 20.944ZM10.6224 19.964L9.19437 19.964L9.19436 27.468L10.6224 27.468L10.6224 19.964ZM9.89436 22.848L3.69236 22.848C3.53836 22.848 3.49636 22.806 3.49636 22.666C3.49636 22.526 3.49636 22.106 3.51036 21.714C3.09036 21.896 2.48836 22.078 2.06836 22.12C2.06836 22.89 2.08236 23.45 2.32036 23.87C2.55836 24.318 2.96436 24.402 3.65036 24.402L9.89436 24.402L9.89436 22.848ZM4.36437 19.558L3.02037 20.328C3.55236 21.126 4.21036 22.036 4.84036 22.862L6.10036 22.358C5.42836 21.322 4.77037 20.272 4.36437 19.558ZM8.90036 24.36L8.00436 23.436C6.38036 23.87 3.97236 24.878 2.79636 26.712C3.21636 26.95 3.87436 27.454 4.16836 27.79C5.14836 25.872 7.23436 24.808 8.90036 24.36ZM11.7284 15.4L10.3284 15.4L10.3284 19.544L11.7284 19.544L11.7284 15.4ZM9.30637 14.728L7.87837 14.728L7.87837 19.838L9.30637 19.838L9.30637 14.728ZM7.09437 14.868C6.31037 15.078 5.30237 15.274 4.63037 15.302L4.92437 16.436C5.59637 16.366 6.57637 16.17 7.36037 15.932L7.09437 14.868ZM3.88837 14.574L2.36237 14.896C2.64237 16.31 3.03437 18.158 3.39837 19.908L4.78437 19.782C4.44837 17.892 4.08437 15.904 3.88837 14.574ZM7.47237 18.746C6.80037 18.648 5.82037 18.438 5.19037 18.256L4.91037 19.264C5.49837 19.474 6.38037 19.698 7.17837 19.95L7.47237 18.746ZM11.1684 16.646L3.37037 16.646L3.62237 18.088L11.1684 18.088L11.1684 16.646ZM15.2144 16.576C14.1224 16.142 12.8064 15.316 11.7984 14.14C11.5744 14.448 11.0424 14.924 10.7064 15.148C11.9664 16.534 13.4084 17.388 14.4724 17.934L14.9064 17.934L14.9064 17.458L15.2144 17.458L15.2144 16.576ZM15.2144 16.786L14.0244 16.786L14.0244 17.08C13.3944 17.836 12.2184 18.788 11.5044 19.236L12.7924 20.314C13.5064 19.81 14.5144 18.774 15.2144 17.962L15.2144 16.786Z" fill="white"/>
</svg>
