<svg width="25" height="25" viewBox="0 0 25 25" fill="none" xmlns="http://www.w3.org/2000/svg">
<path d="M17.0862 13.2889C18.2168 12.4043 19.042 11.1913 19.447 9.81855C19.8521 8.4458 19.8168 6.98164 19.3462 5.62975C18.8756 4.27786 17.9929 3.10547 16.8211 2.27569C15.6493 1.44591 14.2465 1 12.808 1C11.3695 1 9.96672 1.44591 8.79489 2.27569C7.62307 3.10547 6.74043 4.27786 6.26979 5.62975C5.79914 6.98164 5.76389 8.4458 6.16894 9.81855C6.57399 11.1913 7.39919 12.4043 8.52975 13.2889C6.59252 14.0608 4.90222 15.341 3.63905 16.9931C2.37587 18.6452 1.58718 20.6073 1.35705 22.6701C1.3404 22.8207 1.35373 22.9731 1.39629 23.1186C1.43885 23.264 1.50981 23.3998 1.60511 23.518C1.79758 23.7567 2.07753 23.9096 2.38337 23.9431C2.68921 23.9765 2.99589 23.8878 3.23594 23.6964C3.47599 23.505 3.62974 23.2266 3.66339 22.9224C3.9166 20.6805 4.99147 18.6101 6.68263 17.1065C8.37378 15.603 10.5627 14.7718 12.8311 14.7718C15.0995 14.7718 17.2883 15.603 18.9795 17.1065C20.6706 18.6101 21.7455 20.6805 21.9987 22.9224C22.0301 23.2042 22.1653 23.4645 22.3782 23.6529C22.5912 23.8414 22.8668 23.9448 23.1519 23.9431H23.2787C23.581 23.9085 23.8573 23.7565 24.0474 23.5202C24.2375 23.2839 24.326 22.9824 24.2935 22.6816C24.0623 20.6129 23.2694 18.6458 21.9997 16.9912C20.73 15.3365 19.0315 14.0567 17.0862 13.2889ZM12.808 12.4747C11.8957 12.4747 11.0039 12.2056 10.2453 11.7016C9.48679 11.1975 8.89557 10.4811 8.54645 9.64284C8.19733 8.80461 8.10598 7.88225 8.28396 6.99239C8.46194 6.10253 8.90125 5.28514 9.54635 4.64359C10.1914 4.00203 11.0133 3.56513 11.9081 3.38813C12.8029 3.21112 13.7303 3.30197 14.5732 3.64917C15.416 3.99638 16.1364 4.58435 16.6433 5.33874C17.1501 6.09312 17.4207 6.98004 17.4207 7.88734C17.4207 9.10398 16.9347 10.2708 16.0696 11.1311C15.2046 11.9914 14.0313 12.4747 12.808 12.4747Z" fill="#AEAEAE" stroke="black"/>
</svg>
