<svg width="118" height="189" viewBox="0 0 118 189" fill="none" xmlns="http://www.w3.org/2000/svg">
<path d="M12.2421 77.7294C12.3251 77.5911 12.625 77.1598 13.1418 76.4354C13.6493 75.6584 14.2699 74.7612 15.0034 73.7437C15.7278 72.6737 16.4983 71.5609 17.3149 70.4051C18.1315 69.2494 18.865 68.2319 19.5155 67.3527C20.2166 66.4569 20.7724 65.803 21.1828 65.391C21.6348 64.91 21.8122 64.8519 21.7151 65.2169C21.6827 65.3386 21.6503 65.4602 21.618 65.5819C21.5856 65.7036 21.5786 65.8169 21.5969 65.922C21.5962 66.5332 21.6417 67.1014 21.7332 67.6268C21.8248 68.1522 21.9209 68.7039 22.0217 69.2819C22.2872 70.8056 22.5482 72.303 22.8046 73.7742C23.0609 75.2453 23.3726 76.7262 23.7395 78.2167C24.4727 81.8089 25.328 85.3334 26.3055 88.7901C27.3337 92.2303 28.4586 95.611 29.6804 98.9323C30.0676 98.6945 30.4594 98.4831 30.8558 98.2979C31.243 98.0601 31.6302 97.8224 32.0174 97.5846C32.4975 96.6501 33.1367 95.5524 33.935 94.2916C34.7748 92.9616 35.6491 91.676 36.5579 90.4345C37.4668 89.1931 38.3478 88.0996 39.201 87.154C40.0451 86.1559 40.7368 85.5131 41.276 85.2256C41.607 85.8949 41.8872 86.5807 42.1168 87.2831C42.3971 87.969 42.728 88.6382 43.1097 89.2909C43.7166 90.3141 44.3606 91.242 45.0414 92.0744C45.3871 91.9058 45.7374 91.7635 46.0922 91.6474C46.4379 91.4788 46.8296 91.2673 47.2675 91.013C48.558 90.4242 49.8738 89.8272 51.215 89.2218C52.547 88.5639 53.879 87.906 55.211 87.2481C53.0192 86.3546 50.8806 85.3048 48.7951 84.0987C46.7005 82.8402 44.6798 81.3908 42.733 79.7507C41.6698 78.8767 40.5214 77.975 39.2879 77.0457C38.105 76.0997 36.989 75.0764 35.9399 73.9756C34.8908 72.8749 34.0353 71.6552 33.3734 70.3167C32.7023 68.9257 32.4069 67.384 32.487 65.6917C32.4968 65.1331 32.7671 64.3783 33.2979 63.4271C33.8702 62.4068 34.5692 61.3451 35.395 60.2419C36.2116 59.0862 37.1088 57.9318 38.0866 56.7789C39.106 55.5568 40.0884 54.4302 41.0339 53.3989C41.2415 53.0533 41.4538 52.7339 41.6706 52.4409C41.8874 52.1478 42.0997 51.8284 42.3073 51.4828C42.344 51.693 42.3461 51.8589 42.3137 51.9806C42.7657 51.4995 43.1761 51.0875 43.545 50.7447C43.9047 50.3494 44.2229 50.0231 44.4996 49.766C44.896 49.5808 45.041 49.6444 44.9347 49.9569C44.8791 50.2527 44.7105 50.6689 44.4289 51.2053C44.1474 51.7417 43.7943 52.3293 43.3698 52.968C42.9869 53.5375 42.6455 54.038 42.3456 54.4693C42.4005 54.7846 42.4625 54.9864 42.5315 55.0749C42.8942 56.2336 43.4596 57.326 44.2278 58.3521C44.996 59.3781 45.861 60.3447 46.8228 61.2519C47.7846 62.1591 48.7625 63.0054 49.7567 63.7909C50.8016 64.5598 51.7567 65.2748 52.622 65.9359C55.0384 67.8111 57.3791 69.4057 59.6441 70.7196C61.9 71.981 64.1998 73.0336 66.5437 73.8774C68.8875 74.7212 71.3351 75.3922 73.8866 75.8904C76.429 76.3361 79.1994 76.7071 82.198 77.0036L82.2117 77.0824L82.5158 76.9829C82.3912 77.1902 82.2367 77.3796 82.0523 77.551C81.7841 78.4718 81.2808 79.5806 80.5424 80.8774C79.7948 82.1216 78.9458 83.399 77.9954 84.7096C77.0359 85.9676 76.0672 87.1731 75.0894 88.326C74.1024 89.4264 73.2861 90.2766 72.6406 90.8765L72.4885 90.9262C68.8163 91.6833 65.2243 92.7472 61.7127 94.1182C58.1918 95.4366 54.6686 96.8946 51.1428 98.4923C53.384 100.592 55.7817 102.667 58.3362 104.72C60.9413 106.755 63.5534 108.678 66.1726 110.487C68.8425 112.279 71.4641 113.948 74.0375 115.494C76.6018 116.988 78.9428 118.277 81.0607 119.361C80.9446 120.233 80.492 121.325 79.7028 122.638C78.9735 123.987 78.083 125.334 77.0313 126.678C76.0394 128.057 75.0038 129.34 73.9246 130.526C72.9053 131.748 72.0475 132.668 71.3512 133.284C68.7039 131.929 65.7299 130.236 62.4292 128.206C59.1791 126.159 55.8971 123.928 52.5829 121.513C49.2688 119.099 46.093 116.555 43.0556 113.884C40.0181 111.212 37.4436 108.583 35.332 105.997C34.9448 106.235 34.553 106.446 34.1566 106.632C33.7511 106.764 33.3502 106.923 32.9538 107.108C35.4677 112.617 38.318 117.905 41.5049 122.971C41.412 123.668 41.1002 124.492 40.5694 125.443C40.0802 126.325 39.4896 127.241 38.7976 128.189C38.1654 129.173 37.4942 130.087 36.7839 130.93C36.1334 131.81 35.5913 132.542 35.1577 133.128C35.0655 133.214 34.8441 133.481 34.4935 133.929C34.1936 134.36 33.843 134.808 33.4417 135.273C33.0912 135.72 32.7269 136.09 32.3488 136.38C32.0306 136.706 31.7817 136.815 31.6022 136.707C29.3856 133.212 27.3418 129.632 25.4709 125.967C23.6415 122.234 21.9596 118.425 20.4252 114.539C20.2407 114.711 20.0771 114.847 19.9342 114.95C19.7314 115.016 19.5702 115.013 19.4505 114.941L18.8294 114.145L19.162 113.286C19.2451 113.148 19.3236 112.983 19.3975 112.793C19.4714 112.602 19.5499 112.437 19.633 112.299C18.471 109.014 17.4105 105.695 16.4513 102.344C15.4922 98.992 14.6252 95.5546 13.8505 92.0315C13.7681 91.5587 13.5663 90.7083 13.2452 89.4805C12.9149 88.2001 12.6216 86.8243 12.3652 85.3532C12.0489 83.8461 11.8478 82.3846 11.7618 80.9688C11.6758 79.5529 11.8359 78.4731 12.2421 77.7294ZM119.432 29.1684C119.316 30.0394 118.905 31.0625 118.199 32.2376C117.492 33.4127 116.706 34.5864 115.838 35.7587C115.769 36.2814 115.699 36.804 115.63 37.3266C115.56 37.8492 115.525 38.4161 115.524 39.0272C115.48 41.5408 115.521 44.0821 115.647 46.651C115.764 49.1674 115.902 51.6493 116.061 54.0965C117.398 53.1594 118.684 52.2388 119.919 51.3347C121.146 50.3782 122.351 49.4562 123.536 48.5688C124.025 48.2978 124.158 48.4486 123.936 49.0209C123.756 49.5242 123.438 50.156 122.981 50.9164C122.515 51.6242 122.049 52.332 121.583 53.0398C121.108 53.6951 120.87 54.0227 120.87 54.0227C120.187 55.0236 119.504 56.0245 118.821 57.0254C118.139 58.0263 117.396 58.9913 116.593 59.9203C117.072 64.2065 117.727 68.2688 118.556 72.1071C119.386 75.9454 120.481 79.6137 121.841 83.112C123.2 86.6103 124.86 89.9828 126.819 93.2295C128.778 96.4763 131.156 99.6692 133.953 102.808C133.86 103.505 133.544 104.303 133.004 105.201C132.524 106.136 131.938 107.077 131.246 108.026C130.614 109.01 129.942 109.924 129.232 110.767C128.582 111.646 128.039 112.379 127.606 112.965C127.514 113.051 127.292 113.318 126.942 113.766C126.642 114.197 126.291 114.645 125.89 115.109C125.539 115.557 125.175 115.926 124.797 116.217C124.479 116.543 124.23 116.652 124.05 116.544C123.31 115.676 122.544 114.816 121.752 113.964C120.97 113.165 120.204 112.304 119.454 111.383C117.228 108.446 115.338 105.288 113.784 101.909C112.222 98.4768 110.933 94.9273 109.919 91.2604C108.947 87.5244 108.177 83.722 107.61 79.8533C107.034 75.9321 106.589 71.9957 106.275 68.0441C104.888 68.9979 103.521 69.9171 102.175 70.8017C100.819 71.6338 99.4388 72.4742 98.0329 73.3229C98.1389 77.6201 98.5352 81.739 99.222 85.6796C99.9502 89.5511 101.186 92.9512 102.928 95.8799C103.517 96.7981 104.147 97.6471 104.819 98.427C105.532 99.1378 106.229 99.9095 106.91 100.742C106.817 101.439 106.506 102.263 105.975 103.214C105.485 104.096 104.895 105.011 104.203 105.959C103.571 106.944 102.899 107.858 102.189 108.701C101.539 109.58 100.997 110.313 100.563 110.899C100.471 110.985 100.249 111.251 99.8988 111.699C99.5989 112.131 99.2483 112.579 98.847 113.043C98.4965 113.491 98.1321 113.86 97.7541 114.15C97.4359 114.477 97.187 114.586 97.0075 114.478C96.3266 113.645 95.625 112.848 94.9026 112.084C94.24 111.357 93.6144 110.534 93.0257 109.616C91.8808 107.658 90.9918 105.477 90.3587 103.074C89.6657 100.635 89.1364 98.0592 88.7708 95.3465C88.4052 92.6337 88.2124 89.8366 88.1925 86.9552C88.1127 84.0378 88.1343 81.0873 88.2573 78.1036C87.6814 78.181 87.1125 78.1449 86.5507 77.9955C85.929 77.8101 85.3467 77.3897 84.8039 76.7342C85.1087 76.0236 85.6348 75.0462 86.3824 73.8019C87.1209 72.5052 87.9354 71.1835 88.8259 69.837C89.0869 67.0303 89.3662 64.3287 89.6638 61.7322C90.0121 59.1191 90.3625 56.6719 90.7151 54.3907C90.9796 52.5269 91.4354 50.684 92.0822 48.8618C92.7291 47.0396 93.1848 45.1966 93.4494 43.3329C92.3005 45.0416 90.9972 46.9397 89.5392 49.0272C88.0722 51.0622 86.5153 53.0432 84.8687 54.9703C83.2221 56.8974 81.5389 58.6143 79.819 60.1211C78.0393 61.5919 76.237 62.6257 74.4122 63.2227C74.3615 63.2393 73.9377 63.2669 73.1407 63.3055C72.3437 63.344 71.4661 63.3812 70.5079 63.417C69.4899 63.4168 68.5479 63.3917 67.6819 63.3418C66.8159 63.2919 66.3347 63.1438 66.2382 62.8977C66.5338 62.1346 67.097 61.0617 67.9277 59.6793C68.7583 58.2968 69.6904 56.8811 70.7238 55.4323C71.6974 53.9476 72.6984 52.6204 73.7269 51.4509C74.6956 50.2454 75.5003 49.4824 76.1409 49.1617C76.1409 49.1617 76.3874 49.1922 76.8802 49.2531C77.373 49.314 77.9211 49.3846 78.5245 49.4649C79.1279 49.5452 79.7312 49.6255 80.3346 49.7058C80.8781 49.7502 81.2305 49.7738 81.3917 49.7765C81.8247 49.8015 82.2993 49.7574 82.8153 49.6441C83.2807 49.5474 83.7161 49.4327 84.1216 49.3C85.4994 48.9048 86.7969 48.2027 88.0141 47.1936C89.2222 46.132 90.3151 45.0247 91.293 43.8717C91.7498 43.1114 92.2159 42.4036 92.691 41.7483C93.2169 41.0764 93.7129 40.3866 94.1789 39.6788C94.6357 38.9184 95.1387 38.1152 95.6878 37.2691C96.2784 36.3539 96.7029 35.7152 96.9613 35.353C97.718 34.1613 98.5139 33.0402 99.3488 31.9895C100.184 30.9389 101.049 29.9062 101.943 28.8915C102.169 28.651 102.4 28.4367 102.635 28.2487C102.861 28.0082 103.096 27.8202 103.34 27.6847C103.442 27.6516 103.502 27.6875 103.52 27.7926C103.454 29.2582 103.231 30.7472 102.852 32.2597C102.463 33.7197 102.075 35.1797 101.686 36.6397C101.46 37.4914 101.298 38.0997 101.201 38.4647C101.094 38.7771 100.949 39.3246 100.763 40.1072C100.74 40.2814 100.685 40.5772 100.597 40.9948C100.559 41.3957 100.548 41.4828 100.562 41.2561L100.534 41.0985C100.052 44.4775 99.5848 48.1013 99.1338 51.9698C98.6828 55.8383 98.3515 59.7787 98.1399 63.7911C100.601 63.1527 103.149 62.0969 105.786 60.6235C105.763 60.1865 105.736 59.7234 105.704 59.2339C105.672 58.7445 105.666 58.2467 105.685 57.7407C105.569 54.6131 105.657 51.8908 105.949 49.5735C106.233 47.2038 106.874 44.8838 107.871 42.6137C107.461 43.0257 107.297 43.1625 107.38 43.0243C107.463 42.8861 107.622 42.7229 107.857 42.5349L107.871 42.6137C107.871 42.6137 107.892 42.5792 107.933 42.5101L107.857 42.5349C108.328 41.5478 108.85 40.5441 109.422 39.5239C110.045 38.487 110.765 37.3907 111.582 36.235C111.831 35.8202 112.318 35.0779 113.042 34.0078C113.757 32.8853 114.511 31.8332 115.305 30.8517C116.149 29.8536 116.958 29.1168 117.733 28.6413C118.507 28.1658 119.073 28.3415 119.432 29.1684ZM132.385 67.6665C132.016 68.0093 131.756 68.2056 131.604 68.2553C131.443 68.2525 131.519 67.9221 131.833 67.264C132.115 66.7276 132.401 66.2175 132.691 65.7336C132.931 65.2663 133.218 64.7562 133.55 64.2032C132.304 62.2783 130.788 60.4973 129.002 58.8599C128.109 58.0412 126.91 57.4617 125.404 57.1213C123.847 56.7975 122.456 56.8083 121.23 57.1537C120.714 57.267 120.212 57.4591 119.723 57.73C119.184 58.0175 118.643 58.1391 118.099 58.0947C117.768 58.0366 117.514 57.814 117.34 57.4268C117.294 57.1641 117.453 56.6954 117.818 56.0208C118.183 55.3461 118.623 54.6466 119.14 53.9222C119.597 53.1618 120.063 52.454 120.538 51.7987C120.963 51.16 121.237 50.737 121.362 50.5296C122.52 48.8734 123.521 47.5463 124.365 46.5482C125.2 45.4975 126.062 44.6045 126.952 43.8691L127.264 43.3507C127.314 43.3341 127.349 43.3783 127.367 43.4834C128.257 42.748 129.271 42.1108 130.41 41.5718C131.539 40.9802 132.972 40.2892 134.71 39.4986C137.535 38.1856 140.328 36.9943 143.088 35.9247C145.89 34.7859 148.708 33.5863 151.543 32.3258C152.386 31.9388 153.179 31.5684 153.921 31.2146C154.705 30.7917 155.518 30.3867 156.361 29.9997C158.855 28.6286 161.289 27.2215 163.663 25.7785C166.028 24.2829 168.291 22.5149 170.454 20.4746C172.331 18.0276 173.764 16.254 174.751 15.1536C175.779 13.9841 176.515 13.4381 176.957 13.5156C177.44 13.524 177.767 14.1669 177.936 15.4445C178.096 16.6696 178.326 18.4546 178.628 20.7996C178.751 21.8144 178.875 22.8293 178.998 23.8442C179.112 24.8065 179.226 25.7688 179.34 26.7311C180.889 25.7802 182.422 24.89 183.938 24.0607C185.496 23.1623 187.054 22.2639 188.612 21.3655C189.101 21.0945 189.234 21.2453 189.012 21.8176C188.832 22.3209 188.514 22.9527 188.057 23.7131C187.591 24.4209 187.125 25.1287 186.659 25.8365C186.183 26.4918 185.946 26.8194 185.946 26.8194C185.088 28.0443 184.23 29.2691 183.371 30.494C182.513 31.7188 181.565 32.8898 180.528 34.0067C180.601 34.4271 180.67 34.8211 180.734 35.1889C180.789 35.5042 180.878 35.8637 181.002 36.2674C182.973 45.1193 185.387 53.7432 188.243 62.139C191.091 70.4823 194.027 78.8795 197.054 87.3307C196.961 88.0275 196.645 88.8252 196.105 89.7238C195.625 90.6584 195.039 91.5999 194.347 92.5482C193.715 93.5325 193.043 94.4463 192.333 95.2896C191.682 96.1688 191.14 96.9015 190.707 97.4877C190.615 97.5734 190.393 97.8402 190.043 98.2881C189.743 98.7194 189.392 99.1673 188.991 99.6318C188.64 100.08 188.276 100.449 187.898 100.739C187.58 101.065 187.331 101.175 187.151 101.067C184.143 92.7206 181.211 84.3497 178.354 75.9538C175.489 67.5055 173.071 58.8553 171.099 50.0034C170.732 48.5129 170.416 47.0058 170.151 45.4821C169.927 43.8892 169.707 42.3227 169.492 40.7824C165.611 43.1073 161.769 45.5027 157.966 47.9686C154.163 50.4345 150.413 53.0498 146.715 55.8144C148.002 58.2812 149.167 60.8158 150.21 63.4181C151.295 65.9512 152.349 68.4664 153.374 70.9636C153.654 71.6495 154.013 72.4763 154.449 73.4442C154.936 74.3956 155.378 75.3898 155.773 76.4268C156.218 77.4473 156.583 78.4663 156.868 79.484C157.194 80.4325 157.345 81.2995 157.321 82.0848L157.335 82.1636C157.344 82.2161 157.379 82.2604 157.438 82.2964L157.252 82.6074C157.057 83.3374 156.69 84.1517 156.15 85.0503C155.61 85.9489 155.02 86.8641 154.378 87.7959C153.728 88.6751 153.073 89.5281 152.413 90.3548C151.804 91.1649 151.304 91.8285 150.912 92.3455C150.819 92.4312 150.623 92.6897 150.324 93.121C150.024 93.5524 149.673 94.0003 149.272 94.4648C148.921 94.9127 148.557 95.2818 148.179 95.5721C147.861 95.8983 147.612 96.0075 147.432 95.8996C147.285 95.6701 147.133 95.4142 146.977 95.1322C146.83 94.9026 146.683 94.6731 146.536 94.4435C146.619 94.3053 146.672 94.1491 146.695 93.9749C146.769 93.7841 146.868 93.585 146.993 93.3776C146.575 91.9037 145.992 90.4006 145.242 88.8686C144.535 87.2673 143.949 85.904 143.485 84.7784C142.18 81.5954 140.841 78.3681 139.467 75.0966C138.084 71.7725 136.466 68.6364 134.612 65.6883C134.244 66.0311 133.875 66.374 133.506 66.7168C133.128 67.0071 132.754 67.3236 132.385 67.6665ZM140.955 47.2024C141.558 47.8938 142.114 48.6281 142.625 49.4052C143.177 50.1132 143.733 50.8475 144.294 51.608C148.154 48.2351 152.1 45.0557 156.134 42.07C160.219 39.0677 164.377 36.1801 168.609 33.4073C168.614 33.128 168.577 32.9179 168.499 32.7768C168.462 32.5666 168.447 32.3219 168.451 32.0426C168.424 31.885 168.404 31.614 168.39 31.2296C168.377 30.8453 168.354 30.4084 168.322 29.9189C168.291 29.4294 168.238 28.9745 168.165 28.5542C168.092 28.1339 167.982 27.8089 167.834 27.5794C167.687 27.3499 167.404 27.4148 166.984 27.7742C165.13 30.0469 163.163 32.1343 161.083 34.0364C159.045 35.8694 156.904 37.5697 154.659 39.1372C152.455 40.6356 150.153 42.0275 147.751 43.3129C145.391 44.5292 142.997 45.7012 140.568 46.829C140.706 47.006 140.835 47.1304 140.955 47.2024ZM117.983 56.9665C117.882 56.9997 117.81 57.0508 117.769 57.1199C117.718 57.1365 117.718 57.1365 117.769 57.1199C117.819 57.1034 117.87 57.0868 117.921 57.0702C117.911 57.0176 117.932 56.9831 117.983 56.9665ZM167.51 27.1023L167.448 27.206L167.51 27.1023ZM167.372 27.2309L167.448 27.206L167.372 27.2309ZM35.3072 154.739C35.6028 153.976 36.166 152.903 36.9967 151.52C37.8273 150.138 38.734 148.731 39.7168 147.298C40.741 145.797 41.7421 144.47 42.7199 143.317C43.7393 142.095 44.5693 141.323 45.2099 141.003C45.1818 141.456 45.1076 141.953 44.9872 142.492C44.8669 143.031 44.8479 143.537 44.9303 144.01C45.7652 142.959 46.6368 142.119 47.5449 141.489C47.6463 141.455 47.7223 141.431 47.773 141.414C47.8146 141.345 47.886 141.294 47.9874 141.261C48.1529 141.595 48.3321 142.009 48.525 142.501C48.423 143.145 48.1735 143.865 47.7765 144.662C47.421 145.389 46.9687 146.176 46.4196 147.022C47.2751 148.241 48.3816 149.518 49.7391 150.851C51.0874 152.131 52.5717 153.423 54.1918 154.726C55.8534 155.959 57.5657 157.176 59.3288 158.377C61.0918 159.577 62.8157 160.707 64.5006 161.766C66.227 162.757 67.8083 163.683 69.2446 164.546C70.7316 165.393 72 166.061 73.0498 166.55C73.5286 166.838 74.3643 167.176 75.557 167.563C76.7912 167.881 78.0599 168.244 79.3631 168.65C80.6572 169.005 81.8199 169.374 82.8514 169.759C83.9335 170.126 84.5574 170.478 84.7228 170.812C84.8193 171.059 84.7982 171.399 84.6595 171.833C84.5716 172.25 84.4076 172.693 84.1675 173.16C83.9183 173.575 83.6645 173.963 83.4062 174.325C83.1985 174.671 83.0324 174.948 82.9078 175.155C82.0264 176.554 81.0528 178.039 79.987 179.609C78.9719 181.163 77.8832 182.602 76.721 183.927C76.338 184.496 75.9874 184.944 75.6692 185.27C75.351 185.597 75.1321 185.724 75.0124 185.652C74.6942 185.978 74.3714 186.278 74.044 186.552C73.7582 186.756 73.447 186.969 73.1105 187.19C71.7321 188.197 70.1857 189.008 68.4714 189.624C66.8078 190.224 65.1878 190.921 63.6116 191.714C64.2192 192.126 64.8222 192.512 65.4207 192.872C66.0191 193.231 66.5877 193.573 67.1263 193.896C69.6582 195.512 71.9323 196.878 73.9488 197.996C75.9653 199.113 77.9705 200.012 79.9644 200.693C82.009 201.357 84.1482 201.796 86.3822 202.009C88.6668 202.206 91.3179 202.199 94.3354 201.99C94.2193 202.861 93.7667 203.953 92.9776 205.266C92.2483 206.615 91.3578 207.962 90.306 209.306C89.3141 210.685 88.2786 211.968 87.1994 213.154C86.18 214.376 85.3222 215.296 84.626 215.912C81.6084 216.122 78.9574 216.128 76.6727 215.932C74.4388 215.718 72.2995 215.28 70.2549 214.616C68.261 213.935 66.2558 213.036 64.2394 211.918C62.2229 210.801 59.9487 209.434 57.4168 207.819C56.9289 207.479 56.3903 207.155 55.801 206.848C55.2624 206.525 54.7192 206.175 54.1714 205.798C53.6406 206.75 52.9877 207.768 52.2126 208.855C51.4467 209.994 50.6463 211.089 49.8114 212.14C49.0272 213.174 48.2292 214.129 47.4175 215.006C46.6565 215.865 46.0201 216.518 45.5083 216.963C44.224 216.05 43.0848 215.201 42.0907 214.416C41.1472 213.613 40.2706 212.734 39.4609 211.777C38.711 210.856 38.0188 209.805 37.3844 208.624C36.8006 207.427 36.2264 205.976 35.6616 204.273C34.1268 204.997 32.622 205.739 31.1471 206.499C29.6123 207.224 28.0776 207.948 26.5428 208.672C26.3633 208.564 26.3682 208.285 26.5575 207.834C26.7469 207.384 27.0123 206.908 27.3537 206.408C27.6353 205.871 27.926 205.387 28.2259 204.956C28.5258 204.525 28.7173 204.24 28.8003 204.102C29.4001 203.239 30.1407 202.108 31.022 200.709C31.9034 199.31 32.8376 198.06 33.8246 196.96C33.6689 196.067 33.5431 195.191 33.4473 194.334C33.2917 193.441 33.1705 192.592 33.0839 191.787C32.4265 186.171 32.2251 180.711 32.4796 175.407C32.7756 170.034 33.896 164.781 35.8409 159.646C35.6846 159.364 35.5582 159.1 35.4617 158.854C35.3561 158.555 35.255 158.283 35.1585 158.036C34.9564 157.492 34.9156 156.95 35.0359 156.41C35.207 155.855 35.2974 155.297 35.3072 154.739ZM42.37 166.674C42.3661 170.34 42.5484 174.307 42.9169 178.574C43.327 182.772 44.1496 186.723 45.3848 190.429C47.2652 189.536 49.0996 188.686 50.8878 187.879C52.7267 187.055 54.5909 186.223 56.4805 185.383C56.665 185.212 56.8286 185.075 56.9715 184.972C57.1145 184.87 57.2574 184.768 57.4003 184.666L57.4415 184.902C58.732 184.313 60.027 183.751 61.3266 183.215C62.6171 182.626 63.9076 182.037 65.198 181.448C61.0264 179.647 57.0326 177.483 53.2165 174.955C49.3912 172.374 45.7757 169.614 42.37 166.674ZM81.8359 138.268C81.9189 138.13 82.2188 137.699 82.7355 136.974C83.2431 136.197 83.8637 135.3 84.5972 134.282C85.3216 133.212 86.0921 132.1 86.9087 130.944C87.7253 129.788 88.4588 128.771 89.1093 127.891C89.8104 126.996 90.3662 126.342 90.7766 125.93C91.2286 125.449 91.406 125.391 91.3089 125.756C91.2765 125.877 91.2441 125.999 91.2118 126.121C91.1794 126.242 91.1724 126.356 91.1907 126.461C91.19 127.072 91.2355 127.64 91.327 128.166C91.4186 128.691 91.5147 129.243 91.6155 129.821C91.881 131.344 92.142 132.842 92.3984 134.313C92.6547 135.784 92.9664 137.265 93.3333 138.755C94.0665 142.348 94.9218 145.872 95.8993 149.329C96.9275 152.769 98.0524 156.15 99.2742 159.471C99.6614 159.233 100.053 159.022 100.45 158.837C100.837 158.599 101.224 158.361 101.611 158.123C102.091 157.189 102.73 156.091 103.529 154.83C104.369 153.5 105.243 152.215 106.152 150.973C107.061 149.732 107.942 148.638 108.795 147.693C109.639 146.695 110.331 146.052 110.87 145.764C111.201 146.434 111.481 147.119 111.711 147.822C111.991 148.508 112.322 149.177 112.703 149.83C113.31 150.853 113.954 151.781 114.635 152.613C114.981 152.445 115.331 152.302 115.686 152.186C116.032 152.018 116.423 151.806 116.861 151.552C118.152 150.963 119.468 150.366 120.809 149.761C122.141 149.103 123.473 148.445 124.805 147.787C122.613 146.893 120.474 145.844 118.389 144.637C116.294 143.379 114.274 141.93 112.327 140.289C111.264 139.415 110.115 138.514 108.882 137.584C107.699 136.638 106.583 135.615 105.534 134.514C104.485 133.414 103.629 132.194 102.967 130.855C102.296 129.464 102.001 127.923 102.081 126.23C102.091 125.672 102.361 124.917 102.892 123.966C103.464 122.946 104.163 121.884 104.989 120.781C105.805 119.625 106.703 118.471 107.68 117.318C108.7 116.096 109.682 114.969 110.628 113.938C110.835 113.592 111.048 113.273 111.264 112.98C111.481 112.687 111.693 112.367 111.901 112.022C111.938 112.232 111.94 112.398 111.908 112.519C112.359 112.038 112.77 111.626 113.139 111.283C113.499 110.888 113.817 110.562 114.093 110.305C114.49 110.12 114.635 110.183 114.529 110.496C114.473 110.791 114.304 111.208 114.023 111.744C113.741 112.28 113.388 112.868 112.964 113.507C112.581 114.076 112.239 114.577 111.939 115.008C111.994 115.323 112.056 115.525 112.125 115.614C112.488 116.772 113.053 117.865 113.822 118.891C114.59 119.917 115.455 120.883 116.417 121.791C117.378 122.698 118.356 123.544 119.351 124.33C120.395 125.099 121.35 125.814 122.216 126.475C124.632 128.35 126.973 129.944 129.238 131.258C131.494 132.52 133.794 133.572 136.137 134.416C138.481 135.26 140.929 135.931 143.48 136.429C146.023 136.875 148.793 137.246 151.792 137.542L151.806 137.621L152.11 137.522C151.985 137.729 151.831 137.918 151.646 138.09C151.378 139.011 150.875 140.119 150.136 141.416C149.389 142.66 148.54 143.938 147.589 145.248C146.63 146.506 145.661 147.712 144.683 148.865C143.696 149.965 142.88 150.815 142.234 151.415L142.082 151.465C138.41 152.222 134.818 153.286 131.306 154.657C127.786 155.975 124.262 157.433 120.737 159.031C122.978 161.13 125.376 163.206 127.93 165.258C130.535 167.294 133.147 169.216 135.766 171.025C138.436 172.818 141.058 174.487 143.631 176.033C146.196 177.527 148.537 178.816 150.654 179.9C150.538 180.771 150.086 181.863 149.297 183.177C148.567 184.526 147.677 185.873 146.625 187.216C145.633 188.596 144.598 189.879 143.518 191.065C142.499 192.287 141.641 193.206 140.945 193.823C138.298 192.467 135.324 190.775 132.023 188.744C128.773 186.697 125.491 184.467 122.177 182.052C118.863 179.637 115.687 177.094 112.649 174.422C109.612 171.751 107.037 169.122 104.926 166.536C104.539 166.774 104.147 166.985 103.75 167.17C103.345 167.303 102.944 167.462 102.548 167.647C105.061 173.156 107.912 178.444 111.099 183.51C111.006 184.207 110.694 185.031 110.163 185.982C109.674 186.864 109.083 187.779 108.391 188.728C107.759 189.712 107.088 190.626 106.378 191.469C105.727 192.348 105.185 193.081 104.751 193.667C104.659 193.753 104.438 194.02 104.087 194.468C103.787 194.899 103.437 195.347 103.036 195.811C102.685 196.259 102.321 196.628 101.943 196.919C101.624 197.245 101.376 197.354 101.196 197.246C98.9794 193.75 96.9356 190.17 95.0647 186.506C93.2353 182.773 91.5534 178.963 90.019 175.078C89.8345 175.249 89.6709 175.386 89.528 175.488C89.3252 175.555 89.164 175.552 89.0443 175.48L88.4232 174.683L88.7558 173.825C88.8389 173.687 88.9174 173.522 88.9913 173.331C89.0652 173.141 89.1437 172.976 89.2268 172.838C88.0648 169.553 87.0043 166.234 86.0451 162.882C85.086 159.531 84.219 156.093 83.4443 152.57C83.3619 152.097 83.1601 151.247 82.839 150.019C82.5087 148.739 82.2154 147.363 81.959 145.892C81.6427 144.385 81.4416 142.923 81.3556 141.508C81.2696 140.092 81.4297 139.012 81.8359 138.268ZM167.939 119.514C168.447 118.737 168.959 117.987 169.476 117.262C169.983 116.485 170.521 115.726 171.088 114.985C170.785 114.474 170.603 113.894 170.544 113.247C170.476 112.548 170.331 111.873 170.111 111.223C170.407 110.46 170.97 109.387 171.8 108.004C172.631 106.622 173.538 105.215 174.521 103.782C175.545 102.281 176.546 100.954 177.524 99.801C178.543 98.5789 179.373 97.8076 180.014 97.4869C180.234 98.1368 180.383 98.8378 180.461 99.59C180.58 100.273 180.825 100.915 181.198 101.515C181.639 102.203 182.272 102.913 183.096 103.643C183.92 104.373 184.794 105.087 185.719 105.784C186.635 106.428 187.521 107.055 188.377 107.663C189.275 108.203 190.028 108.678 190.635 109.09C192.15 110.095 193.699 111.143 195.282 112.235C196.917 113.311 198.459 114.473 199.908 115.72C201.409 116.951 202.771 118.311 203.994 119.799C205.269 121.27 206.308 122.929 207.112 124.777C208.238 127.241 208.802 129.861 208.804 132.637C208.856 135.397 208.464 138.219 207.627 141.103C206.831 143.918 205.718 146.753 204.287 149.609C202.847 152.413 201.202 155.117 199.352 157.722C197.552 160.31 195.615 162.721 193.54 164.955C191.524 167.224 189.544 169.233 187.598 170.98C186.44 172.025 185.163 172.999 183.766 173.9C182.379 174.854 180.943 175.684 179.459 176.392C177.975 177.1 176.459 177.623 174.911 177.963C173.422 178.339 171.943 178.462 170.474 178.332C168.411 178.174 166.776 177.403 165.571 176.02C164.425 174.673 163.547 173.017 162.936 171.051C162.284 169.154 161.856 167.156 161.651 165.057C161.386 162.922 161.208 160.981 161.118 159.233C160.987 156.943 160.835 154.383 160.663 151.551C160.533 148.65 160.504 145.716 160.576 142.749C160.639 139.73 160.882 136.818 161.304 134.014C161.768 131.141 162.554 128.579 163.662 126.328C164.257 125.134 164.938 123.967 165.704 122.828C166.47 121.689 167.215 120.584 167.939 119.514ZM180.926 123.013C180.01 122.369 178.739 121.535 177.114 120.511C175.54 119.471 174.148 118.399 172.937 117.296C172.721 117.589 172.504 117.882 172.287 118.175C172.07 118.468 171.853 118.761 171.637 119.054C171.484 119.715 171.361 120.394 171.268 121.091C171.217 121.719 171.14 122.355 171.038 122.999C170.619 126.746 170.447 130.523 170.521 134.331C170.637 138.069 170.804 141.792 171.021 145.497C171.179 147.944 171.407 150.48 171.704 153.104C172.051 155.712 172.836 158.065 174.059 160.164C175.291 162.316 176.886 163.627 178.843 164.097C180.851 164.551 182.929 164.483 185.076 163.891C187.283 163.336 189.452 162.404 191.581 161.097C193.711 159.789 195.585 158.399 197.204 156.925C197.582 156.024 197.903 155.252 198.167 154.611C198.421 153.917 198.62 153.213 198.763 152.499C198.948 151.717 199.069 150.872 199.125 149.965C199.172 149.006 199.178 147.81 199.143 146.377C199.105 143.391 198.486 140.761 197.286 138.488C196.136 136.198 194.676 134.121 192.905 132.257C191.133 130.393 189.182 128.726 187.05 127.258C184.919 125.789 182.878 124.374 180.926 123.013ZM36.9275 241.513C36.748 241.405 36.7529 241.126 36.9422 240.675C37.1316 240.224 37.397 239.749 37.7384 239.248C38.02 238.712 38.3107 238.228 38.6106 237.797C38.9105 237.365 39.102 237.08 39.185 236.942C40.2924 235.303 41.4089 233.716 42.5345 232.181C43.6602 230.646 44.8802 229.192 46.1945 227.818C46.3283 227.663 46.4712 227.561 46.6232 227.511C46.7662 227.409 46.8837 227.315 46.976 227.229C47.0773 227.196 47.1534 227.171 47.2041 227.155C47.2456 227.085 47.317 227.034 47.4184 227.001C48.5323 227.859 49.5307 228.976 50.4137 230.353C51.2967 231.73 52.092 233.22 52.7997 234.821C53.5489 236.353 54.2267 237.936 54.833 239.571C55.4393 241.205 56.048 242.7 56.6593 244.055C57.969 246.959 59.2833 249.889 60.6022 252.845C61.9627 255.732 63.3484 258.611 64.7596 261.481C65.4123 262.767 66.0696 264.08 66.7315 265.418C67.4441 266.74 68.1522 268.036 68.8556 269.305C68.8752 268.188 68.8948 267.071 68.9145 265.954C68.9848 264.82 69.0805 263.678 69.2015 262.528C70.4904 250.554 73.7313 239.636 78.9243 229.773C84.1172 219.911 91.2394 210.972 100.291 202.957C100.779 202.686 100.913 202.837 100.691 203.409C100.511 203.913 100.192 204.544 99.7353 205.305C99.2693 206.013 98.8033 206.72 98.3373 207.428C97.8621 208.083 97.6245 208.411 97.6245 208.411C96.7248 209.705 95.7998 211.007 94.8495 212.318C93.8899 213.576 92.8452 214.806 91.7153 216.009C90.9269 216.711 90.0877 217.43 89.1978 218.165C88.3495 218.832 87.5449 219.595 86.7839 220.455C85.5189 223.034 84.3944 225.651 83.4103 228.306C82.4678 230.891 81.6795 233.593 81.0454 236.41C80.5548 238.515 80.1656 240.586 79.8778 242.624C79.5809 244.609 79.323 246.665 79.1042 248.792C78.9368 250.29 78.8499 251.79 78.8437 253.292C78.8283 254.741 78.8129 256.19 78.7976 257.639C78.8146 258.966 78.8428 260.512 78.8824 262.276C78.9727 264.024 79.0168 265.814 79.0148 267.648C79.0129 269.481 78.9303 271.313 78.7671 273.144C78.5947 274.922 78.2798 276.496 77.8223 277.868C77.6188 278.545 77.0187 279.714 76.0219 281.373C75.016 282.979 73.9132 284.645 72.7137 286.37C71.5141 288.095 70.3332 289.62 69.1709 290.945C68.0086 292.269 67.105 292.926 66.4601 292.914C66.0271 292.889 65.5184 292.584 64.934 291.997C64.4095 291.447 63.8712 290.818 63.3192 290.11C62.8178 289.385 62.3764 288.697 61.9947 288.044C61.6222 287.444 61.4015 287.1 61.3325 287.011C60.7438 286.093 60.1897 285.219 59.67 284.389C59.1919 283.49 58.6839 282.574 58.1459 281.639C57.1115 279.7 56.0152 277.56 54.8568 275.217C53.6985 272.875 52.6528 270.718 51.7198 268.746C51.3614 267.919 50.8628 266.75 50.2242 265.237C49.5763 263.672 48.8457 261.939 48.0324 260.039C47.2191 258.139 46.3414 256.177 45.3992 254.153C44.4986 252.059 43.6001 250.132 42.7037 248.37C41.7981 246.556 40.9085 244.987 40.0346 243.662C39.1608 242.337 38.3856 241.425 37.709 240.924C37.6167 241.01 37.4992 241.104 37.3563 241.206C37.2042 241.256 37.0613 241.358 36.9275 241.513Z" fill="#303030"/>
</svg>
