<svg width="27" height="27" viewBox="0 0 27 27" fill="none" xmlns="http://www.w3.org/2000/svg">
<path d="M10.6561 3.46366C8.41211 5.65301 8.08811 5.99931 8.15411 6.07562C8.22011 6.15779 8.41211 6.16953 9.42611 6.16953C10.0801 6.16953 10.6801 6.19301 10.7641 6.22823C10.8481 6.25757 10.9741 6.3691 11.0401 6.47475C11.1541 6.6567 11.1601 6.7741 11.1601 8.53497C11.1601 10.5658 11.1721 10.6421 11.4961 10.8065C11.6281 10.8769 12.0001 10.8945 13.5361 10.8945C15.3481 10.8945 15.4201 10.8887 15.5821 10.7713C15.8701 10.56 15.8941 10.4015 15.8941 8.41171C15.9001 7.27888 15.9241 6.52757 15.9601 6.46301C16.0861 6.22823 16.2481 6.19888 17.5201 6.16953C18.6901 6.14018 18.7501 6.13431 18.7681 6.02279C18.7801 5.93475 18.1141 5.25388 16.2481 3.42257C13.7581 0.998444 13.7041 0.945618 13.4701 0.945618C13.2361 0.945618 13.1821 0.998444 10.6561 3.46366Z" fill="#AEAEAE"/>
<path d="M3.1321 10.8241C0.648098 13.2541 0.600098 13.307 0.600098 13.5359C0.600098 13.7648 0.648098 13.8117 3.1081 16.2241C4.9501 18.032 5.6401 18.6717 5.7301 18.66C5.8501 18.6424 5.8501 18.5896 5.8681 13.5711C5.8801 8.62304 5.8741 8.3413 5.7061 8.3413C5.6881 8.3413 4.5301 9.45652 3.1321 10.8241Z" fill="#AEAEAE"/>
<path d="M21.18 8.57031C21.114 8.69357 21.09 18.1788 21.156 18.4194C21.18 18.4957 21.24 18.5544 21.294 18.5544C21.42 18.5544 26.232 13.8529 26.304 13.6592C26.34 13.5653 26.334 13.4597 26.286 13.3481C26.208 13.1603 21.426 8.45879 21.318 8.45879C21.276 8.45879 21.216 8.51162 21.18 8.57031Z" fill="#AEAEAE"/>
<path d="M11.4782 16.1479C11.3762 16.2066 11.2562 16.3122 11.2262 16.3768C11.1842 16.4531 11.1602 17.1809 11.1602 18.4546C11.1602 19.7401 11.1362 20.4796 11.0942 20.6029C10.9802 20.9257 10.8182 20.9609 9.57021 20.9609C8.47821 20.9609 8.22021 20.9961 8.22021 21.1546C8.22021 21.1957 9.33621 22.3168 10.6982 23.6433C13.1882 26.0792 13.3502 26.2142 13.6262 26.0909C13.8182 26.0029 18.6602 21.2368 18.6602 21.1311C18.6602 20.9844 18.4862 20.9609 17.3222 20.9609H16.2482L16.0742 20.7907L15.9002 20.6205V18.6483C15.9002 16.9931 15.8822 16.6409 15.8042 16.4472C15.6422 16.0422 15.5702 16.0305 13.4882 16.0305C11.7962 16.0305 11.6582 16.0364 11.4782 16.1479Z" fill="#AEAEAE"/>
</svg>
