<svg width="20" height="27" viewBox="0 0 20 27" fill="none" xmlns="http://www.w3.org/2000/svg">
<path d="M16.7028 0.800049H2.94735C1.90087 0.800049 1.05005 1.62165 1.05005 2.63219V24.6179C1.05005 25.6284 1.90087 26.45 2.94735 26.45H16.7028C17.7492 26.45 18.6 25.6284 18.6 24.6179V2.63219C18.6 1.62165 17.7492 0.800049 16.7028 0.800049ZM16.4656 24.3889H3.18451V2.86121H16.4656V24.3889ZM8.63924 21.4689C8.63924 21.7726 8.76417 22.0639 8.98655 22.2786C9.20894 22.4934 9.51055 22.614 9.82505 22.614C10.1395 22.614 10.4412 22.4934 10.6635 22.2786C10.8859 22.0639 11.0109 21.7726 11.0109 21.4689C11.0109 21.1652 10.8859 20.874 10.6635 20.6592C10.4412 20.4445 10.1395 20.3238 9.82505 20.3238C9.51055 20.3238 9.20894 20.4445 8.98655 20.6592C8.76417 20.874 8.63924 21.1652 8.63924 21.4689Z" fill="#AEAEAE" stroke="#0D0D0D"/>
</svg>
