<svg width="12" height="380" viewBox="0 0 12 380" fill="none" xmlns="http://www.w3.org/2000/svg">
<line x1="6.30762" y1="153.356" x2="6.30761" y2="19.8564" stroke="white"/>
<line x1="6.30762" y1="221.356" x2="6.30761" y2="354.856" stroke="white"/>
<circle cx="6" cy="367" r="1" fill="#D9D9D9"/>
<circle cx="6" cy="372.74" r="1" fill="#D9D9D9"/>
<circle cx="6" cy="378.479" r="1" fill="#D9D9D9"/>
<circle cx="6" cy="1" r="1" fill="#D9D9D9"/>
<circle cx="6" cy="6.7395" r="1" fill="#D9D9D9"/>
<circle cx="6" cy="12.4795" r="1" fill="#D9D9D9"/>
<path d="M10.1094 161.771L10.1094 163.759C10.1094 164.221 10.028 164.608 9.86523 164.921C9.70247 165.237 9.46159 165.474 9.14258 165.634C8.82682 165.797 8.43783 165.878 7.97559 165.878C7.65006 165.878 7.35221 165.824 7.08203 165.717C6.8151 165.609 6.58724 165.453 6.39844 165.248C6.21289 165.043 6.07454 164.794 5.9834 164.501L5.88086 164.257L5.88086 162.484L6.64746 162.475L6.64746 163.749C6.64746 164.022 6.70605 164.25 6.82324 164.433C6.94368 164.615 7.10482 164.752 7.30664 164.843C7.50846 164.934 7.73145 164.979 7.97559 164.979C8.24902 164.979 8.48828 164.939 8.69336 164.857C8.89844 164.776 9.05631 164.646 9.16699 164.467C9.28092 164.291 9.33789 164.055 9.33789 163.759L9.33789 162.67L3 162.67L3 161.771L10.1094 161.771ZM3 165.185L6.22266 163.769L6.22754 164.701L3.05859 166.146L3 166.146L3 165.185ZM3.7666 170.452L3 170.452L3 167.366L3.7666 167.366L3.7666 170.452ZM10.1094 167.528L3 167.528L3 166.629L10.1094 166.629L10.1094 167.528ZM7.05273 170.037L6.28613 170.037L6.28613 167.366L7.05273 167.366L7.05273 170.037ZM10.1094 170.404L9.33789 170.404L9.33789 167.366L10.1094 167.366L10.1094 170.404ZM6.54004 175.603L3.88867 175.603C3.7845 175.525 3.6543 175.406 3.49805 175.246C3.3418 175.09 3.20345 174.871 3.08301 174.587C2.96256 174.304 2.90234 173.933 2.90234 173.474C2.90234 173.106 2.96419 172.769 3.08789 172.463C3.21159 172.161 3.39714 171.899 3.64453 171.677C3.89518 171.459 4.20605 171.29 4.57715 171.169C4.9515 171.049 5.38932 170.989 5.89062 170.989L7.22363 170.989C7.72168 170.989 8.15788 171.039 8.53223 171.14C8.90658 171.241 9.21745 171.391 9.46484 171.589C9.71224 171.791 9.89779 172.04 10.0215 172.336C10.1452 172.636 10.207 172.984 10.207 173.381C10.207 173.84 10.1208 174.231 9.94824 174.553C9.77572 174.875 9.52669 175.124 9.20117 175.3C8.87565 175.479 8.48503 175.58 8.0293 175.603L8.0293 174.704C8.32227 174.682 8.57292 174.62 8.78125 174.519C8.99284 174.418 9.15397 174.275 9.26465 174.089C9.37858 173.904 9.43555 173.668 9.43555 173.381C9.43555 173.108 9.38997 172.877 9.29883 172.688C9.20768 172.499 9.07096 172.344 8.88867 172.224C8.70638 172.107 8.47689 172.021 8.20019 171.965C7.9235 171.913 7.60124 171.887 7.2334 171.887L5.89062 171.887C5.51302 171.887 5.18424 171.925 4.9043 171.999C4.62435 172.074 4.39323 172.18 4.21094 172.317C4.02865 172.457 3.89193 172.624 3.80078 172.82C3.71289 173.015 3.66894 173.235 3.66894 173.479C3.66894 173.756 3.69824 173.974 3.75684 174.133C3.81543 174.293 3.88216 174.415 3.95703 174.499C4.0319 174.587 4.09212 174.657 4.13769 174.709L5.77832 174.709L5.77832 173.406L6.54004 173.406L6.54004 175.603ZM10.1094 177.546L3 177.546L3 176.647L10.1094 176.647L10.1094 177.546ZM4.79687 181.768C4.96289 181.768 5.10937 181.749 5.23633 181.71C5.36654 181.671 5.48372 181.602 5.58789 181.505C5.69206 181.407 5.79134 181.27 5.88574 181.095C5.98014 180.919 6.07617 180.696 6.17383 180.426C6.27799 180.133 6.39355 179.867 6.52051 179.63C6.65072 179.392 6.79883 179.189 6.96484 179.019C7.13086 178.853 7.32129 178.725 7.53613 178.634C7.75098 178.542 7.99674 178.497 8.27344 178.497C8.55013 178.497 8.80566 178.544 9.04004 178.638C9.27441 178.736 9.47786 178.873 9.65039 179.049C9.82617 179.228 9.96289 179.443 10.0605 179.693C10.1582 179.944 10.207 180.224 10.207 180.533C10.207 180.995 10.1045 181.384 9.89941 181.7C9.69759 182.019 9.43229 182.26 9.10351 182.423C8.77799 182.585 8.42969 182.667 8.05859 182.667L8.05859 181.768C8.32552 181.768 8.56152 181.724 8.7666 181.637C8.97493 181.552 9.13769 181.418 9.25488 181.236C9.37532 181.057 9.43555 180.823 9.43555 180.533C9.43555 180.273 9.38509 180.058 9.28418 179.888C9.18327 179.722 9.04655 179.599 8.87402 179.517C8.7015 179.439 8.50456 179.4 8.2832 179.4C8.13346 179.4 7.99674 179.426 7.87305 179.478C7.7526 179.53 7.6403 179.61 7.53613 179.718C7.43197 179.828 7.33594 179.965 7.24805 180.128C7.16016 180.294 7.07552 180.489 6.99414 180.714C6.88021 181.062 6.75325 181.36 6.61328 181.607C6.47331 181.855 6.31543 182.056 6.13965 182.213C5.96712 182.369 5.77018 182.483 5.54883 182.554C5.33073 182.629 5.08333 182.667 4.80664 182.667C4.51693 182.667 4.25488 182.618 4.02051 182.52C3.78613 182.426 3.58594 182.288 3.41992 182.105C3.25391 181.923 3.12532 181.703 3.03418 181.446C2.94629 181.189 2.90234 180.899 2.90234 180.577C2.90234 180.297 2.94792 180.022 3.03906 179.752C3.13021 179.485 3.26693 179.242 3.44922 179.024C3.63151 178.806 3.85612 178.632 4.12305 178.502C4.39323 178.372 4.70573 178.306 5.06055 178.306L5.06055 179.205C4.81641 179.205 4.60644 179.241 4.43066 179.312C4.25814 179.384 4.11491 179.483 4.00098 179.61C3.88704 179.737 3.80241 179.882 3.74707 180.045C3.69499 180.211 3.66894 180.388 3.66894 180.577C3.66894 180.837 3.71452 181.055 3.80566 181.231C3.89681 181.41 4.02702 181.544 4.19629 181.632C4.36556 181.723 4.56575 181.768 4.79687 181.768ZM10.1094 185.679L3 185.679L3 184.79L10.1094 184.79L10.1094 185.679ZM10.1094 187.549L9.33789 187.549L9.33789 182.925L10.1094 182.925L10.1094 187.549ZM10.1094 188.154L10.1094 190.141C10.1094 190.603 10.028 190.99 9.86523 191.303C9.70247 191.619 9.46159 191.856 9.14258 192.016C8.82682 192.179 8.43782 192.26 7.97558 192.26C7.65006 192.26 7.35221 192.206 7.08203 192.099C6.8151 191.991 6.58724 191.835 6.39844 191.63C6.21289 191.425 6.07454 191.176 5.9834 190.883L5.88086 190.639L5.88086 188.866L6.64746 188.857L6.64746 190.131C6.64746 190.404 6.70605 190.632 6.82324 190.815C6.94368 190.997 7.10482 191.134 7.30664 191.225C7.50846 191.316 7.73144 191.362 7.97558 191.362C8.24902 191.362 8.48828 191.321 8.69336 191.239C8.89844 191.158 9.05631 191.028 9.16699 190.849C9.28092 190.673 9.33789 190.437 9.33789 190.141L9.33789 189.052L3 189.052L3 188.154L10.1094 188.154ZM3 191.567L6.22266 190.151L6.22754 191.083L3.05859 192.529L3 192.529L3 191.567ZM9.47949 195.316L3 193.372L3 192.454L10.1094 194.745L10.1094 195.321L9.47949 195.316ZM3 196.888L9.47949 194.945L10.1094 194.935L10.1094 195.516L3 197.806L3 196.888ZM5.63183 196.888L4.86035 196.888L4.86035 193.46L5.63183 193.46L5.63183 196.888ZM10.1094 199.983L3 199.983L3 199.094L10.1094 199.094L10.1094 199.983ZM10.1094 201.853L9.33789 201.853L9.33789 197.229L10.1094 197.229L10.1094 201.853ZM10.1094 203.39L3 203.39L3 202.492L10.1094 202.492L10.1094 203.39ZM7.16992 209.127L5.93457 209.127C5.43327 209.127 4.99219 209.072 4.61133 208.961C4.23372 208.854 3.91797 208.696 3.66406 208.487C3.41015 208.279 3.21973 208.028 3.09277 207.735C2.96582 207.442 2.90234 207.112 2.90234 206.744C2.90234 206.389 2.96582 206.065 3.09277 205.772C3.21973 205.479 3.41015 205.227 3.66406 205.016C3.91797 204.804 4.23372 204.64 4.61133 204.522C4.99219 204.409 5.43327 204.352 5.93457 204.352L7.16992 204.352C7.67122 204.352 8.11068 204.409 8.48828 204.522C8.86914 204.636 9.18652 204.799 9.44043 205.011C9.69433 205.222 9.88476 205.475 10.0117 205.768C10.1419 206.061 10.207 206.384 10.207 206.739C10.207 207.107 10.1419 207.437 10.0117 207.73C9.88476 208.027 9.69433 208.277 9.44043 208.482C9.18652 208.691 8.86914 208.85 8.48828 208.961C8.11068 209.072 7.67122 209.127 7.16992 209.127ZM5.93457 208.238L7.17969 208.238C7.57031 208.238 7.9056 208.206 8.18555 208.141C8.46875 208.076 8.69987 207.979 8.8789 207.853C9.05794 207.726 9.18978 207.569 9.27441 207.384C9.3623 207.198 9.40625 206.983 9.40625 206.739C9.40625 206.508 9.3623 206.3 9.27441 206.114C9.18978 205.932 9.05794 205.776 8.8789 205.646C8.69987 205.515 8.46875 205.414 8.18555 205.343C7.9056 205.274 7.57031 205.24 7.17969 205.24L5.93457 205.24C5.54069 205.24 5.20215 205.274 4.91894 205.343C4.639 205.414 4.40788 205.515 4.22558 205.646C4.04655 205.779 3.91308 205.938 3.82519 206.124C3.74056 206.31 3.69824 206.516 3.69824 206.744C3.69824 206.988 3.74056 207.203 3.82519 207.389C3.91308 207.577 4.04655 207.734 4.22558 207.857C4.40788 207.984 4.639 208.079 4.91894 208.141C5.20215 208.206 5.54069 208.238 5.93457 208.238ZM10.1094 214.717L3 214.717L3 213.814L8.4834 210.967L3 210.967L3 210.069L10.1094 210.069L10.1094 210.967L4.61133 213.828L10.1094 213.828L10.1094 214.717Z" fill="white"/>
</svg>
