<svg width="19.5" height="19.5" viewBox="0 0 13 13" fill="none" xmlns="http://www.w3.org/2000/svg">
<path d="M12.9296 3.33136L9.66864 0.07032C9.6236 0.02528 9.56256 0 9.49892 0C9.43528 0 9.37424 0.02528 9.32924 0.07032L0.07032 9.3292C-0.02344 9.42292 -0.02344 9.57488 0.07032 9.66856L3.33128 12.9296C3.37632 12.9747 3.43732 13 3.501 13C3.56464 13 3.62568 12.9747 3.67068 12.9296L4.64756 11.9528L4.6476 11.9527C4.6476 11.9527 4.6476 11.9527 4.64764 11.9527L5.84716 10.7532L5.8472 10.7531L5.84724 10.7531L7.04652 9.55384C7.04668 9.55368 7.04688 9.55356 7.04704 9.5534C7.0472 9.55324 7.04732 9.55304 7.04748 9.55288L8.24616 8.35416C8.24636 8.354 8.24656 8.35388 8.24672 8.35372C8.24688 8.35356 8.247 8.35336 8.24716 8.35316L9.44628 7.15408C9.44628 7.15408 9.44636 7.154 9.4464 7.15396C9.44644 7.15392 9.44648 7.15388 9.44652 7.15384L10.6459 5.95444C10.6459 5.9544 10.646 5.95436 10.646 5.95432C10.646 5.95432 10.6461 5.9542 10.6462 5.95416L12.9297 3.67064C13.0234 3.57704 13.0234 3.42508 12.9296 3.33136ZM10.4762 5.44532L9.94132 4.91044C9.84764 4.81676 9.69564 4.81672 9.60192 4.91048C9.5082 5.0042 9.5082 5.15616 9.60196 5.24988L10.1368 5.78472L9.2766 6.64496L8.74168 6.11008C8.648 6.0164 8.496 6.01636 8.40228 6.11012C8.30856 6.20384 8.30856 6.3558 8.40232 6.44952L8.9372 6.98436L8.07692 7.84464L7.54196 7.30972C7.44828 7.21604 7.29628 7.216 7.20256 7.30976C7.10884 7.40348 7.10884 7.55544 7.2026 7.64916L7.73752 8.18404L6.87728 9.04432L6.34228 8.5094C6.24852 8.41572 6.0966 8.41568 6.00288 8.50944C5.90916 8.60316 5.90916 8.75516 6.00292 8.84884L6.53788 9.38372L5.6776 10.244L5.14268 9.70908C5.04892 9.61536 4.89692 9.61532 4.80328 9.70904C4.70952 9.8028 4.70952 9.95476 4.80324 10.0484L5.33816 10.5834L4.47792 11.4437L3.94288 10.9088C3.84912 10.8151 3.6972 10.8151 3.60348 10.9088C3.50976 11.0026 3.50976 11.1546 3.60352 11.2482L4.13848 11.7831L3.501 12.4206L0.5794 9.49888L9.49892 0.5794L12.4205 3.50104L10.4762 5.44532Z" fill="black"/>
</svg>
