<svg width="24" height="24" viewBox="0 0 12 12" fill="white" xmlns="http://www.w3.org/2000/svg">
<path fill-rule="evenodd" clip-rule="evenodd" d="M6.67857 7.34385C6.01159 7.8426 5.18046 8.0702 4.35244 7.98084C3.52443 7.89149 2.76099 7.49182 2.21577 6.86227C1.67055 6.23272 1.38402 5.42002 1.41386 4.58773C1.44369 3.75544 1.78767 2.96534 2.37657 2.37645C2.96547 1.78755 3.75556 1.44357 4.58785 1.41374C5.42015 1.3839 6.23285 1.67043 6.8624 2.21565C7.49195 2.76086 7.89161 3.5243 7.98097 4.35232C8.07032 5.18034 7.84272 6.01147 7.34398 6.67844L9.77786 9.11232C9.86358 9.20108 9.91101 9.31995 9.90994 9.44334C9.90887 9.56672 9.85938 9.68475 9.77213 9.772C9.68488 9.85925 9.56685 9.90875 9.44346 9.90982C9.32007 9.91089 9.2012 9.86346 9.11245 9.77774L6.67857 7.34385ZM7.0588 4.70574C7.0588 5.32978 6.8109 5.92826 6.36964 6.36952C5.92838 6.81078 5.3299 7.05868 4.70586 7.05868C4.08182 7.05868 3.48334 6.81078 3.04208 6.36952C2.60082 5.92826 2.35292 5.32978 2.35292 4.70574C2.35292 4.0817 2.60082 3.48322 3.04208 3.04196C3.48334 2.6007 4.08182 2.3528 4.70586 2.3528C5.3299 2.3528 5.92838 2.6007 6.36964 3.04196C6.8109 3.48322 7.0588 4.0817 7.0588 4.70574Z" fill="white"/>
</svg>
