<svg width="14" height="28" viewBox="0 0 14 28" fill="none" xmlns="http://www.w3.org/2000/svg">
<path d="M9.854 4.396L8.944 4.396L8.944 9.59L9.854 9.59L9.854 4.396ZM2.084 0.91L1.202 0.91L1.202 13.104L2.084 13.104L2.084 0.91ZM13.214 1.75L12.332 1.75L12.332 5.894L13.214 5.894L13.214 1.75ZM13.214 5.558L13.018 5.558C10.792 4.69 8.832 2.422 7.964 0.364C7.782 0.574 7.418 0.854 7.194 0.994C8.23 3.22 10.232 5.558 12.92 6.608L13.27 5.936L13.214 5.74L13.214 5.558ZM13.718 7.924L13.424 7.042C10.764 8.232 8.482 10.374 7.362 12.852C7.642 13.02 8.02 13.314 8.23 13.566C9.168 11.144 11.338 9.002 13.718 7.924ZM11.24 1.372C10.792 2.1 10.092 2.94 9.602 3.36L10.246 3.948C10.75 3.542 11.394 2.674 11.814 1.932L11.24 1.372ZM13.634 10.738C13.018 10.178 12.164 9.184 11.646 8.47L11.142 9.114C11.632 9.842 12.388 10.808 13.074 11.536L13.634 10.738ZM11.982 12.306C11.352 11.718 10.498 10.682 9.994 9.926L9.49 10.57C9.966 11.34 10.722 12.348 11.422 13.09L11.982 12.306ZM6.928 4.144L6.928 9.814L5.08 9.814L5.08 4.144L6.928 4.144ZM7.796 3.108L4.212 3.108L4.212 10.892L7.796 10.892L7.796 3.108ZM3.988 3.92C3.372 4.298 2.518 4.648 1.972 4.788L2.28 5.782C2.826 5.642 3.652 5.278 4.254 4.886L3.988 3.92ZM4.296 9.128C3.68 8.904 2.77 8.456 2.224 8.106L1.958 9.002C2.504 9.352 3.274 9.772 4.016 10.15L4.296 9.128ZM7.61399 26.502C6.998 26.11 6.14399 25.382 5.612 24.864L5.14999 25.536C5.65399 26.082 6.39599 26.768 7.08199 27.328L7.61399 26.502ZM6.914 20.244C6.34 20.832 5.528 21.476 4.996 21.742L5.5 22.512C6.046 22.218 6.816 21.56 7.376 20.958L6.914 20.244ZM13.186 20.678L12.304 20.678L12.304 25.312L8.496 25.312L8.49599 26.292L13.186 26.292L13.186 20.678ZM11.1 20.958L10.246 20.958L10.246 25.872L11.1 25.872L11.1 20.958ZM9.028 19.95L8.104 19.95L8.10399 27.44L9.02799 27.44L9.028 19.95ZM8.594 23.1L2 23.1C1.832 23.1 1.79 23.058 1.79 22.904C1.79 22.736 1.776 22.26 1.804 21.728C1.524 21.854 1.132 21.98 0.865996 22.022C0.865995 22.792 0.879995 23.31 1.034 23.646C1.188 23.996 1.468 24.08 1.972 24.08L8.594 24.08L8.594 23.1ZM2.714 19.656L1.846 20.146C2.406 20.972 3.106 21.938 3.792 22.834L4.604 22.512C3.876 21.462 3.148 20.384 2.714 19.656ZM7.964 24.038L7.264 23.436C5.542 23.87 3.008 24.892 1.71999 27.006C1.98599 27.16 2.39199 27.482 2.58799 27.692C3.72199 25.536 6.102 24.458 7.964 24.038ZM10.288 15.512L9.378 15.512L9.378 19.502L10.288 19.502L10.288 15.512ZM7.894 14.756L6.97 14.756L6.97 19.88L7.894 19.88L7.894 14.756ZM6.046 15.078C5.192 15.344 4.1 15.568 3.372 15.582L3.568 16.366C4.296 16.31 5.374 16.086 6.228 15.806L6.046 15.078ZM2.28 14.63L1.3 14.84C1.594 16.24 2.014 18.102 2.392 19.908L3.288 19.824C2.896 17.92 2.504 15.946 2.28 14.63ZM6.354 18.97C5.612 18.844 4.506 18.592 3.82 18.382L3.624 19.068C4.282 19.306 5.29 19.544 6.144 19.782L6.354 18.97ZM9.952 16.954L2.168 16.954L2.322 17.878L9.952 17.878L9.952 16.954ZM13.746 16.912C12.626 16.436 11.198 15.54 10.134 14.266C9.994 14.462 9.686 14.77 9.476 14.924C10.694 16.31 12.178 17.22 13.256 17.766L13.522 17.766L13.522 17.458L13.746 17.458L13.746 16.912ZM13.746 17.08L13.004 17.08L13.004 17.276C12.304 18.088 11.142 19.04 10.428 19.516L11.226 20.216C11.926 19.726 13.004 18.69 13.746 17.864L13.746 17.08Z" fill="white"/>
</svg>
