<svg width="15" height="110" viewBox="0 0 15 110" fill="none" xmlns="http://www.w3.org/2000/svg">
<path d="M11.464 12.356L12.5 11.25C12.43 10.984 12.374 10.214 12.374 9.822C12.374 9.094 12.374 3.158 12.374 2.276C12.374 1.702 12.444 1.114 12.528 0.568L10.568 0.568C10.638 1.226 10.666 1.702 10.666 2.276C10.666 3.158 10.666 8.73 10.666 9.584C9.98 9.22 8.748 8.128 8.062 6.994L6.9 8.45C7.88 9.836 9.658 11.166 10.75 11.824C10.946 11.95 11.282 12.216 11.464 12.356ZM9.588 6.658L9.588 4.628C9.126 4.698 8.762 4.712 8.314 4.712C6.018 4.712 4.548 4.376 3.316 2.612C2.924 2.094 2.686 1.59 2.532 1.128L1.202 2.766C3.26 6.574 6.116 6.658 9.588 6.658ZM13.228 20.448L13.228 18.376C12.892 18.432 12.248 18.488 11.94 18.488C8.244 18.474 5.864 17.83 4.044 15.996C3.47 15.436 3.008 14.736 2.686 14.148L1.37 15.786C3.568 18.88 6.41 20.196 11.968 20.35C12.304 20.364 12.892 20.406 13.228 20.448ZM10.218 25.194L10.82 23.99C10.75 23.654 10.722 23.29 10.722 22.926L10.722 16.444C10.722 15.912 10.75 15.198 10.82 14.61L8.972 14.61C9.028 15.198 9.042 15.982 9.042 16.458L9.042 23.29C7.53 23.29 4.73 23.094 3.848 22.688C3.498 22.548 3.344 22.352 3.344 21.904C3.344 21.344 3.428 20.63 3.54 19.93L1.678 20.154C1.622 20.84 1.552 21.666 1.552 22.478C1.552 23.43 1.92999 23.976 2.62999 24.27C4.05799 24.872 7.964 25.054 9.49 25.11C9.64399 25.11 9.994 25.152 10.218 25.194ZM13.424 35.008L13.424 32.852C12.822 32.936 12.542 32.95 12.136 32.95C11.772 32.95 10.736 32.95 10.12 32.95L10.12 34.91C10.652 34.91 11.772 34.91 12.136 34.91C12.542 34.91 12.822 34.924 13.424 35.008ZM10.47 39.712L11.212 38.508C11.128 38.256 11.072 37.92 11.072 37.346L11.072 29.968C11.072 29.436 11.086 29.016 11.128 28.54C10.806 28.596 10.246 28.596 9.93799 28.596C9.40599 28.596 7.96399 28.596 7.50199 28.596C7.12399 28.596 6.67599 28.582 6.32599 28.54L6.32599 30.472C6.60599 30.43 7.05399 30.416 7.36199 30.416C7.79599 30.416 8.92999 30.416 9.41999 30.416L9.41999 37.36C8.17399 37.192 6.84399 36.828 5.80799 36.128C4.68799 35.33 3.86199 34.098 3.42799 32.95C3.18999 32.362 2.97999 31.606 2.86799 30.962L1.18799 32.418C1.84599 34.91 3.32999 37.024 5.38799 38.13C6.66199 38.83 8.01999 39.194 9.36399 39.446C9.62999 39.502 10.162 39.614 10.47 39.712ZM12.64 44.374L11.226 43.044C10.526 44.066 8.99999 45.83 8.21599 46.558L9.67199 47.986C10.526 47.16 11.982 45.34 12.64 44.374ZM3.31599 42.61L1.46799 43.8C1.80399 45.76 2.57399 47.566 3.42799 48.994C4.78599 51.248 6.71799 53.11 8.62199 54.16L10.582 53.082C8.69199 52.186 6.56399 50.366 5.13599 47.972C4.33799 46.614 3.62399 44.808 3.31599 42.61ZM3.32999 59.382C2.78399 59.382 1.92999 59.34 1.38399 59.242L1.38399 61.44C1.95799 61.37 2.93799 61.314 3.32999 61.314C4.36599 61.314 9.83999 61.3 11.38 61.3C11.968 61.3 12.57 61.37 13.074 61.426L13.074 59.242C12.57 59.34 11.884 59.382 11.38 59.382C10.204 59.382 4.40799 59.382 3.32999 59.382ZM9.44799 60.894L7.43199 60.894C6.92799 62.42 6.03199 64.772 5.20599 66.368L7.15199 67.152C7.82399 65.78 8.92999 62.756 9.44799 60.894ZM12.556 71.618L10.75 71.618C10.778 72.052 10.806 72.64 10.806 73.13C10.806 73.998 10.806 76.882 10.806 77.708C10.806 78.184 10.778 78.73 10.75 79.206L12.556 79.206C12.5 78.73 12.458 78.184 12.458 77.708C12.458 76.882 12.458 73.998 12.458 73.116C12.458 72.654 12.5 72.066 12.556 71.618ZM8.98599 70.008L7.15199 70.008C7.17999 70.386 7.19399 70.932 7.19399 71.338C7.19399 72.22 7.19398 79.682 7.19398 80.508C7.19398 80.9 7.17998 81.446 7.15198 81.796L8.98598 81.796C8.91598 81.418 8.88798 80.802 8.88798 80.508C8.88798 79.682 8.88799 72.22 8.88799 71.338C8.88799 70.904 8.92999 70.414 8.98599 70.008ZM8.00598 77.162L7.99199 75.216C6.49398 75.216 5.16398 75.034 4.11398 74.334C3.28799 73.774 2.48999 72.78 2.09799 71.786L0.907985 73.438C1.53798 74.684 2.62998 75.762 3.59598 76.252C4.77198 76.84 6.17198 77.162 8.00598 77.162ZM13.522 80.046L13.074 78.94C12.528 79.318 11.702 79.752 11.128 80.032L11.604 81.152C12.122 80.9 13.018 80.396 13.522 80.046ZM14.152 81.698L13.704 80.592C13.172 80.984 12.36 81.432 11.772 81.726L12.248 82.832C12.738 82.58 13.634 82.062 14.152 81.698ZM8.48198 84.274L6.26998 84.274C6.31198 84.806 6.35398 85.744 6.35398 86.528C6.35398 88.18 6.35398 92.786 6.35398 94.06C6.35398 94.648 6.28398 95.362 6.26998 95.698L8.48198 95.698C8.45398 95.32 8.38398 94.704 8.38398 94.046C8.38398 92.8 8.38398 88.18 8.38398 86.528C8.38398 85.8 8.43998 84.792 8.48198 84.274ZM8.55198 102.992L7.27798 101.746C6.24198 103.384 4.28198 106.044 3.13398 107.262L4.72998 108.606C5.76598 107.304 7.55798 104.714 8.55198 102.992ZM10.932 109.586L11.814 108.158C11.716 107.836 11.646 107.374 11.646 106.94L11.646 102.95L10.064 102.306L10.064 107.038C8.97198 106.772 7.36198 105.904 6.25598 104.966C4.85598 103.762 3.38598 102.096 2.47598 99.17L1.07598 100.794C2.08398 103.468 3.65198 105.26 5.28998 106.576C6.84398 107.836 8.63598 108.69 9.92398 109.11C10.274 109.236 10.666 109.418 10.932 109.586ZM13.088 104.952L13.718 102.922C13.228 102.796 12.584 102.502 12.248 102.292C11.03 101.578 9.11198 100.29 7.59998 97.84L6.43798 99.338C7.82398 101.354 9.96598 103.146 11.66 104.084C11.954 104.252 12.598 104.616 13.088 104.952Z" fill="white"/>
</svg>
