<svg width="51" height="32" viewBox="0 0 51 32" fill="none" xmlns="http://www.w3.org/2000/svg">
<g clip-path="url(#clip0_1473_797)">
<path d="M46.4272 0.666748L46.9453 0.667415C47.0874 0.668081 47.2295 0.670081 47.3723 0.673414C47.6314 0.680081 47.936 0.69408 48.2291 0.746078C48.5004 0.794076 48.7302 0.868073 48.9526 0.978735C49.4021 1.20224 49.7673 1.56047 49.995 2.00136C50.1078 2.21868 50.1826 2.44401 50.2316 2.71066C50.284 2.99532 50.2989 3.29464 50.305 3.54996C50.3091 3.68862 50.3112 3.82795 50.3118 3.96861C50.3132 4.13727 50.3132 4.30726 50.3132 4.47659V27.5236C50.3132 27.693 50.3132 27.8623 50.3118 28.0336C50.3113 28.1725 50.309 28.3114 50.305 28.4503C50.2982 28.7056 50.284 29.0049 50.2316 29.2916C50.1892 29.5376 50.1094 29.776 49.995 29.9989C49.7659 30.4394 49.4005 30.7975 48.9512 31.0222C48.7237 31.1347 48.4803 31.2131 48.2291 31.2548C47.9464 31.2992 47.6607 31.3233 47.3744 31.3268C47.2316 31.3301 47.0888 31.3321 46.9439 31.3321C46.7719 31.3335 46.5985 31.3335 46.4265 31.3335H4.56742C4.39675 31.3335 4.22607 31.3335 4.05336 31.3321C3.91057 31.3321 3.76777 31.3301 3.62838 31.3268C3.34139 31.3231 3.05505 31.2991 2.77161 31.2548C2.51955 31.2135 2.27536 31.1348 2.04744 31.0215C1.82401 30.9105 1.62016 30.7651 1.44363 30.5908C1.26655 30.4175 1.11874 30.2177 1.00573 29.9989C0.890736 29.7755 0.810734 29.5363 0.768417 29.2896C0.722179 29.012 0.697402 28.7315 0.6943 28.4503C0.690905 28.3112 0.688865 28.1721 0.68818 28.0329L0.6875 27.6263V4.37459L0.68818 3.96861C0.68886 3.82928 0.6909 3.68996 0.6943 3.54996C0.701099 3.29597 0.715379 2.99732 0.768417 2.70933C0.810424 2.46269 0.890442 2.22375 1.00573 2.00069C1.23388 1.5603 1.59892 1.20241 2.04812 0.978735C2.27576 0.866132 2.51945 0.787918 2.77093 0.746745C3.05448 0.70144 3.34111 0.67715 3.62838 0.674081C3.77049 0.670748 3.91261 0.668748 4.05404 0.668081L4.57354 0.666748H46.4272Z" fill="white"/>
<path d="M46.4274 0.666639L46.9456 0.667306C47.0877 0.667972 47.2298 0.669972 47.3726 0.673305C47.6317 0.679972 47.9363 0.693971 48.2294 0.745969C48.5007 0.793967 48.7305 0.867964 48.9529 0.978626C49.4024 1.20213 49.7676 1.56036 49.9952 2.00125C50.1081 2.21857 50.1829 2.4439 50.2319 2.71055C50.2842 2.99521 50.2992 3.29453 50.3053 3.54985C50.3094 3.68851 50.3114 3.82784 50.3121 3.9685C50.3135 4.13716 50.3135 4.30715 50.3135 4.47648V27.5235C50.3135 27.6928 50.3135 27.8622 50.3121 28.0335C50.3116 28.1724 50.3093 28.3113 50.3053 28.4501C50.2985 28.7055 50.2842 29.0048 50.2319 29.2914C50.1895 29.5375 50.1097 29.7759 49.9952 29.9987C49.7661 30.4392 49.4008 30.7974 48.9515 31.022C48.724 31.1346 48.4806 31.213 48.2294 31.2547C47.9466 31.2991 47.661 31.3232 47.3746 31.3267C47.2318 31.33 47.0891 31.332 46.9442 31.332C46.7722 31.3334 46.5988 31.3334 46.4268 31.3334H4.5677C4.39703 31.3334 4.22636 31.3334 4.05364 31.332C3.91085 31.332 3.76806 31.33 3.62866 31.3267C3.34167 31.323 3.05533 31.299 2.7719 31.2547C2.51983 31.2134 2.27565 31.1347 2.04773 31.0214C1.82429 30.9103 1.62044 30.765 1.44391 30.5907C1.26684 30.4174 1.11902 30.2176 1.00601 29.9987C0.89102 29.7753 0.811018 29.5362 0.768701 29.2894C0.722463 29.0119 0.697687 28.7313 0.694584 28.4501C0.691189 28.3111 0.689149 28.172 0.688464 28.0328L0.687784 27.6262V4.37448L0.688464 3.9685C0.689144 3.82917 0.691184 3.68985 0.694584 3.54985C0.701384 3.29586 0.715663 2.99721 0.768701 2.70922C0.810708 2.46258 0.890726 2.22364 1.00601 2.00058C1.23416 1.56019 1.59921 1.2023 2.04841 0.978626C2.27604 0.866023 2.51973 0.787809 2.77122 0.746635C3.05476 0.70133 3.34139 0.67704 3.62866 0.673972C3.77078 0.670639 3.91289 0.668639 4.05432 0.667972L4.57382 0.666639H46.4274ZM46.4274 0H4.57382L4.05092 0.000666639C3.90405 0.00133328 3.75718 0.00333319 3.6103 0.00733303C3.28907 0.0115222 2.96859 0.0391529 2.65154 0.0899962C2.33439 0.143419 2.02709 0.24272 1.7397 0.384651C1.16334 0.673611 0.694603 1.13339 0.400156 1.6986C0.254992 1.98019 0.153685 2.28153 0.0996087 2.59256C0.0471862 2.90333 0.0187733 3.21755 0.0146122 3.53252C0.0112124 3.67585 0.00917244 3.81984 0.00849247 3.96383L0.0078125 4.47648V27.5235L0.00849247 28.0368C0.00917244 28.1808 0.0112124 28.3248 0.0152922 28.4681C0.0241318 28.7815 0.043171 29.0975 0.100289 29.4074C0.157406 29.7228 0.251922 30.0154 0.400156 30.3014C0.693365 30.8677 1.16274 31.3279 1.74038 31.6153C2.03209 31.7613 2.3306 31.8533 2.65154 31.91C2.96773 31.9653 3.29004 31.984 3.6103 31.9927C3.75718 31.9967 3.90337 31.9987 4.05092 31.9987C4.225 32 4.39975 32 4.57382 32H46.4274C46.6015 32 46.7763 32 46.9503 31.9987C47.0972 31.998 47.2441 31.996 47.391 31.9927C47.7105 31.984 48.0329 31.9653 48.3497 31.91C48.6666 31.8566 48.9737 31.7573 49.2609 31.6153C49.8387 31.3282 50.3082 30.8679 50.6011 30.3014C50.75 30.0154 50.8439 29.7228 50.901 29.4074C50.9581 29.0975 50.9764 28.7815 50.9853 28.4681C50.9894 28.3242 50.9914 28.1802 50.9921 28.0368C50.9934 27.8655 50.9934 27.6948 50.9934 27.5235V4.47648C50.9934 4.30515 50.9934 4.13449 50.9921 3.96317C50.9915 3.81938 50.9893 3.67559 50.9853 3.53185C50.9813 3.2169 50.9531 2.90269 50.901 2.59189C50.8471 2.28089 50.746 1.97956 50.6011 1.69793C50.3072 1.13208 49.838 0.672085 49.2609 0.383984C48.9737 0.242061 48.6666 0.142759 48.3497 0.0893296C48.0327 0.0385425 47.7122 0.0109121 47.391 0.00666639C47.2434 0.00266656 47.0965 0.00133328 46.9503 0H46.4274V0Z" fill="black"/>
<path d="M15.2089 9.60099C15.6795 9.04168 15.997 8.26438 15.9107 7.48975C15.2307 7.51708 14.4086 7.93506 13.9245 8.49237C13.4859 8.98702 13.1065 9.77898 13.2112 10.5383C13.9673 10.5956 14.7384 10.1603 15.2089 9.60099ZM17.1625 14.5168C17.1475 12.8415 18.5564 12.0356 18.6217 11.9956C17.8268 10.8623 16.594 10.7049 16.1548 10.6876C15.1042 10.5856 14.1026 11.2943 13.5716 11.2943C13.0385 11.2943 12.2184 10.7036 11.3453 10.7216C10.2003 10.7376 9.14427 11.3743 8.55474 12.3789C7.36819 14.4075 8.25351 17.4033 9.41218 19.0439C9.97928 19.8472 10.6538 20.7499 11.5425 20.7172C12.3979 20.6845 12.7189 20.1746 13.7524 20.1746C14.784 20.1732 15.0757 20.7159 15.9766 20.7005C16.896 20.6812 17.4794 19.8806 18.0431 19.0733C18.6911 18.1433 18.9597 17.24 18.9733 17.1947C18.9549 17.1827 17.1829 16.52 17.1625 14.5168ZM28.1073 9.60033C27.7646 9.27634 27.3226 9.02435 26.7936 8.85102C26.2694 8.6797 25.6397 8.59303 24.9223 8.59303C24.4628 8.59103 24.0036 8.6144 23.5468 8.66303C23.1659 8.7047 22.7863 8.75694 22.4085 8.81969L22.2976 8.83836V20.6159H23.3944V15.6541C23.7637 15.7161 24.1866 15.7487 24.6531 15.7487C25.2739 15.7487 25.8553 15.6707 26.3816 15.5181C26.8879 15.3769 27.3595 15.1358 27.7673 14.8094C28.1602 14.4875 28.4761 14.0849 28.6928 13.6302C28.9172 13.1635 29.0314 12.6149 29.0314 11.9976C29.0314 11.4869 28.9491 11.0276 28.7887 10.6323C28.6335 10.2474 28.4019 9.89666 28.1073 9.60033ZM27.0996 14.0988C26.5366 14.5615 25.7397 14.7961 24.7285 14.7961C24.4504 14.7961 24.1873 14.7841 23.9459 14.7621C23.7602 14.7456 23.5761 14.7153 23.3951 14.6714V9.66299C23.54 9.63699 23.7195 9.61232 23.9303 9.59033C24.1975 9.56233 24.5191 9.54833 24.8877 9.54833C25.3109 9.54419 25.7327 9.59781 26.1408 9.70765C26.4887 9.80145 26.8155 9.95838 27.1044 10.1703C27.3675 10.3703 27.5742 10.6303 27.7177 10.9436C27.8625 11.2609 27.9353 11.6396 27.9353 12.0682C27.9346 12.9582 27.6531 13.6415 27.0996 14.0988ZM35.587 19.5132C35.5748 19.1799 35.57 18.8453 35.57 18.512V15.2381C35.57 14.8501 35.5299 14.4541 35.4517 14.0608C35.3763 13.6695 35.2219 13.2968 34.9975 12.9649C34.7744 12.6369 34.4623 12.3662 34.072 12.1596C33.6817 11.9536 33.1745 11.8496 32.5632 11.8496C32.1171 11.8496 31.6813 11.9062 31.2699 12.0189C30.8379 12.1407 30.4292 12.3312 30.0602 12.5829L29.9711 12.6435L30.3417 13.4935L30.4757 13.4048C30.7682 13.2124 31.088 13.0632 31.4249 12.9622C31.7654 12.8577 32.12 12.8043 32.4768 12.8035C32.9338 12.8035 33.2989 12.8849 33.5593 13.0448C33.8238 13.2068 34.0231 13.4075 34.1516 13.6422C34.2855 13.8841 34.3733 14.1415 34.412 14.4088C34.4535 14.6868 34.4732 14.9354 34.4732 15.1488V15.2434C32.8474 15.2361 31.5779 15.5014 30.7347 16.0341C29.8501 16.5927 29.4013 17.388 29.4013 18.3973C29.4013 18.6879 29.4543 18.9806 29.5591 19.2699C29.6651 19.5626 29.8263 19.8246 30.0371 20.0486C30.2492 20.2752 30.5233 20.4599 30.851 20.5979C31.1774 20.7372 31.5616 20.8072 31.9906 20.8072C32.5981 20.8172 33.1959 20.6569 33.7137 20.3452C33.9394 20.2086 34.14 20.0532 34.3114 19.8859C34.3844 19.814 34.4541 19.7388 34.5201 19.6606H34.5623L34.6629 20.6165H35.7203L35.691 20.4632C35.633 20.1494 35.5982 19.8319 35.587 19.5132ZM34.4732 17.836C34.4732 17.9506 34.4453 18.108 34.3923 18.2966C34.3213 18.5007 34.222 18.6943 34.0972 18.8719C33.8194 19.2707 33.416 19.5692 32.9487 19.7219C32.6651 19.8133 32.368 19.8577 32.0695 19.8532C31.8727 19.8533 31.6772 19.8206 31.4915 19.7566C31.3113 19.6951 31.1458 19.598 31.0054 19.4712C30.8583 19.3349 30.742 19.1698 30.664 18.9866C30.5777 18.7913 30.5341 18.5493 30.5341 18.268C30.5341 17.8073 30.6606 17.4333 30.9088 17.16C31.1761 16.8687 31.5117 16.6457 31.8866 16.51C32.3113 16.3535 32.7558 16.2541 33.2078 16.2147C33.6283 16.175 34.0507 16.1569 34.4732 16.1607V17.836ZM43.0307 12.0409L40.9839 17.496C40.8561 17.8253 40.7371 18.1573 40.6283 18.4806C40.5753 18.6419 40.525 18.7946 40.4753 18.9399H40.4366C40.3854 18.7807 40.3333 18.6219 40.2802 18.4633C40.1741 18.1433 40.0599 17.8293 39.9429 17.53L37.7541 12.0409H36.5839L39.7151 19.9326C39.7974 20.1226 39.8096 20.2099 39.8096 20.2452C39.8096 20.2559 39.8056 20.3205 39.7138 20.5605C39.5427 20.9888 39.3197 21.3952 39.0494 21.7712C38.7985 22.1058 38.5687 22.3778 38.364 22.5785C38.126 22.8118 37.8806 23.0031 37.631 23.1478C37.376 23.2951 37.1435 23.4144 36.9374 23.5044L36.8191 23.5564L37.2006 24.465L37.3216 24.421C37.4209 24.3844 37.6072 24.301 37.8901 24.1657C38.1757 24.0277 38.4918 23.8091 38.8291 23.5131C39.128 23.2551 39.3934 22.962 39.6192 22.6404C39.8504 22.3151 40.0816 21.9331 40.3087 21.5092C40.5331 21.0858 40.7575 20.6045 40.9765 20.0772C41.1954 19.5472 41.4307 18.9546 41.6734 18.318L44.2023 12.0409H43.0307Z" fill="black"/>
</g>
<defs>
<clipPath id="clip0_1473_797">
<rect width="51" height="32" fill="white"/>
</clipPath>
</defs>
</svg>
