<svg width="52" height="33" viewBox="0 0 52 33" fill="none" xmlns="http://www.w3.org/2000/svg">
<g clip-path="url(#clip0_1473_781)">
<path fill-rule="evenodd" clip-rule="evenodd" d="M47.3177 0.0109863H4.65432C4.47661 0.0109863 4.29857 0.0109863 4.12117 0.0119198C3.9714 0.0131644 3.82194 0.0147202 3.67216 0.0187653C3.34593 0.0274777 3.01687 0.0464583 2.69471 0.104022C2.36754 0.162209 2.06296 0.257423 1.76593 0.407401C1.47361 0.554579 1.2064 0.747185 0.974361 0.97682C0.742637 1.20677 0.548277 1.47125 0.39976 1.76125C0.248416 2.0556 0.152335 2.35743 0.0939333 2.68196C0.0355311 3.00152 0.0163777 3.32731 0.007586 3.65029C0.00350413 3.79871 0.00162019 3.94682 0.000678219 4.09493C-0.000263752 4.27105 5.02384e-05 4.44716 5.02384e-05 4.62359V28.3705C5.02384e-05 28.5469 -0.000263752 28.7228 0.000678219 28.8992C0.00162019 29.0473 0.00350413 29.1957 0.007586 29.3438C0.0163777 29.6665 0.0355311 29.9926 0.0939333 30.3118C0.152335 30.6364 0.248416 30.9382 0.39976 31.2329C0.548277 31.5225 0.742637 31.7873 0.974361 32.017C1.2064 32.2469 1.47361 32.4395 1.76593 32.5864C2.06296 32.7367 2.36754 32.8319 2.69471 32.8904C3.01687 32.9473 3.34593 32.9666 3.67216 32.9753C3.82194 32.9788 3.9714 32.9809 4.12117 32.9816C4.29857 32.9828 4.47661 32.9828 4.65432 32.9828H47.3177C47.4951 32.9828 47.6732 32.9828 47.8506 32.9816C48 32.9809 48.1495 32.9788 48.2999 32.9753C48.6255 32.9666 48.9546 32.9473 49.2773 32.8904C49.6042 32.8319 49.9088 32.7367 50.2061 32.5864C50.4984 32.4395 50.765 32.2469 50.9974 32.017C51.2288 31.7873 51.4231 31.5225 51.572 31.2329C51.7236 30.9382 51.8197 30.6364 51.8778 30.3118C51.9362 29.9926 51.955 29.6665 51.9638 29.3438C51.9679 29.1957 51.9698 29.0473 51.9707 28.8992C51.972 28.7228 51.972 28.5469 51.972 28.3705V4.62359C51.972 4.44716 51.972 4.27105 51.9707 4.09493C51.9698 3.94682 51.9679 3.79871 51.9638 3.65029C51.955 3.32731 51.9362 3.00152 51.8778 2.68196C51.8197 2.35743 51.7236 2.0556 51.572 1.76125C51.4231 1.47125 51.2288 1.20677 50.9974 0.97682C50.765 0.747185 50.4984 0.554579 50.2061 0.407401C49.9088 0.257423 49.6042 0.162209 49.2773 0.104022C48.9546 0.0464583 48.6255 0.0274777 48.2999 0.0187653C48.1495 0.0147202 48 0.0131644 47.8506 0.0119198C47.6732 0.0109863 47.4951 0.0109863 47.3177 0.0109863Z" fill="#3C4043"/>
<path fill-rule="evenodd" clip-rule="evenodd" d="M47.318 1.11011L47.843 1.11104C47.985 1.11197 48.1272 1.11353 48.2701 1.11758C48.5187 1.12411 48.8098 1.13749 49.0811 1.18572C49.3166 1.22773 49.5144 1.29182 49.7041 1.38735C49.8915 1.48163 50.0629 1.60547 50.2127 1.75358C50.3631 1.90294 50.4881 2.07314 50.5845 2.26077C50.6806 2.44746 50.7446 2.64225 50.787 2.87748C50.8354 3.14352 50.8489 3.43259 50.8555 3.68058C50.8595 3.82029 50.8614 3.96031 50.862 4.10376C50.8633 4.27707 50.8633 4.45007 50.8633 4.6237V28.3706C50.8633 28.5443 50.8633 28.7173 50.862 28.894C50.8614 29.034 50.8595 29.174 50.8555 29.3144C50.8489 29.5617 50.8354 29.8508 50.7864 30.1196C50.7446 30.3518 50.6806 30.5466 50.5839 30.7342C50.4878 30.9215 50.3631 31.0914 50.2133 31.2398C50.0626 31.3892 49.8918 31.5124 49.7022 31.6076C49.5138 31.7028 49.3166 31.7669 49.0833 31.8083C48.8064 31.8572 48.5034 31.8708 48.2751 31.8768C48.1316 31.8802 47.9887 31.882 47.8421 31.8827C47.6678 31.8839 47.4926 31.8839 47.318 31.8839H4.65464C4.65244 31.8839 4.65024 31.8839 4.64773 31.8839C4.47535 31.8839 4.30234 31.8839 4.12682 31.8827C3.98364 31.882 3.84077 31.8802 3.70262 31.8771C3.46901 31.8708 3.1657 31.8572 2.89127 31.8086C2.65578 31.7669 2.45859 31.7028 2.26768 31.6064C2.07992 31.5121 1.90911 31.3889 1.75839 31.2392C1.60893 31.0914 1.48459 30.9218 1.38851 30.7342C1.29212 30.5469 1.22775 30.3515 1.18536 30.1165C1.13669 29.848 1.12319 29.5605 1.11628 29.3144C1.11251 29.1737 1.11094 29.0328 1.11 28.8931L1.10938 28.4798V4.51479L1.11 4.10251C1.11094 3.96156 1.11251 3.82091 1.11628 3.68027C1.12319 3.43383 1.13669 3.14601 1.18599 2.8753C1.22775 2.64287 1.29212 2.44715 1.38883 2.2589C1.48428 2.07283 1.60893 1.90294 1.75902 1.7542C1.90879 1.60547 2.08055 1.48225 2.26925 1.38704C2.45796 1.29151 2.65578 1.22773 2.89127 1.18572C3.16256 1.13749 3.45363 1.12411 3.70293 1.11758C3.84486 1.11353 3.98709 1.11197 4.12808 1.11104L4.65464 1.11011H47.318Z" fill="#FFFFFE"/>
<path d="M25.0217 17.2584V21.9577H23.541V10.3574H27.4681C28.4154 10.3389 29.3351 10.6996 30.0065 11.3657C31.3492 12.6238 31.432 14.7422 30.172 16.102C30.1168 16.1575 30.0617 16.213 30.0065 16.2685C29.3167 16.9253 28.4706 17.2584 27.4681 17.2584H25.0217ZM25.0217 11.782V15.8338H27.5049C28.0567 15.8523 28.5901 15.6303 28.9672 15.2325C29.7398 14.4277 29.7214 13.1326 28.9212 12.3555C28.5442 11.9855 28.0383 11.782 27.5049 11.782H25.0217Z" fill="#3C4043"/>
<path d="M34.4853 13.7617C35.5798 13.7617 36.4443 14.0577 37.0789 14.6405C37.7135 15.2233 38.0262 16.0374 38.0262 17.0642V21.9578H36.6098V20.857H36.5455C35.9293 21.7636 35.1199 22.2168 34.0991 22.2168C33.2345 22.2168 32.4988 21.9578 31.9194 21.4398C31.3492 20.9587 31.0273 20.2464 31.0457 19.4971C31.0457 18.6738 31.3584 18.0263 31.9746 17.536C32.5908 17.0457 33.4185 16.8052 34.4485 16.8052C35.3315 16.8052 36.0488 16.9717 36.619 17.2862V16.944C36.619 16.4352 36.3983 15.9541 36.012 15.6211C35.6166 15.2696 35.1107 15.0753 34.5865 15.0753C33.7588 15.0753 33.1058 15.4268 32.6275 16.1299L31.3216 15.3066C32.0205 14.2798 33.0782 13.7617 34.4853 13.7617ZM32.5724 19.5249C32.5724 19.9134 32.7563 20.2742 33.0598 20.4962C33.3909 20.7552 33.7956 20.894 34.2094 20.8847C34.8348 20.8847 35.4326 20.635 35.8741 20.1909C36.3615 19.7284 36.6098 19.1826 36.6098 18.5536C36.15 18.1835 35.5062 17.9985 34.6785 18.0078C34.0807 18.0078 33.5748 18.1558 33.1702 18.4426C32.7747 18.7293 32.5724 19.0901 32.5724 19.5249Z" fill="#3C4043"/>
<path fill-rule="evenodd" clip-rule="evenodd" d="M46.1562 14.0208L41.2082 25.4453H39.6815L41.5209 21.449L38.2744 14.0208H39.8839L42.2291 19.7192H42.2567L44.5467 14.0208H46.1562Z" fill="#3C4043"/>
<path fill-rule="evenodd" clip-rule="evenodd" d="M19.0348 16.2407C19.0348 15.7875 18.998 15.3342 18.9244 14.8901H12.6797V17.4526H16.2573C16.1102 18.2759 15.6319 19.0159 14.9329 19.4785V21.1436H17.0666C18.3174 19.9873 19.0348 18.2759 19.0348 16.2407Z" fill="#4285F4"/>
<path fill-rule="evenodd" clip-rule="evenodd" d="M12.6802 22.7533C14.4645 22.7533 15.9728 22.1612 17.0672 21.1437L14.9335 19.4785C14.3357 19.8856 13.5724 20.1168 12.6802 20.1168C10.9512 20.1168 9.4889 18.942 8.96468 17.3694H6.7666V19.09C7.88863 21.3379 10.1787 22.7533 12.6802 22.7533Z" fill="#34A853"/>
<path fill-rule="evenodd" clip-rule="evenodd" d="M8.9642 17.3693C8.68829 16.546 8.68829 15.6487 8.9642 14.8161V13.1047H6.76613C5.81884 14.9826 5.81884 17.2028 6.76613 19.0807L8.9642 17.3693Z" fill="#FBBC04"/>
<path fill-rule="evenodd" clip-rule="evenodd" d="M12.6802 12.0687C13.6275 12.0502 14.538 12.411 15.2186 13.0678L17.1132 11.1622C15.9084 10.0336 14.3265 9.41379 12.6802 9.43229C10.1787 9.43229 7.88863 10.8569 6.7666 13.1048L8.96468 14.8254C9.4889 13.2436 10.9512 12.0687 12.6802 12.0687Z" fill="#EA4335"/>
</g>
<defs>
<clipPath id="clip0_1473_781">
<rect width="52" height="33" fill="white"/>
</clipPath>
</defs>
</svg>
