<svg width="24" height="8" viewBox="0 0 24 8" fill="none" xmlns="http://www.w3.org/2000/svg">
<path d="M17.445 0.623022C17.058 0.477022 16.455 0.322021 15.705 0.322021C13.785 0.322021 12.43 1.29002 12.42 2.67702C12.408 3.69702 13.384 4.27102 14.121 4.61302C14.878 4.96302 15.131 5.18302 15.129 5.49802C15.124 5.97502 14.524 6.19102 13.967 6.19102C13.201 6.19102 12.781 6.08402 12.136 5.81602L11.897 5.70502L11.626 7.30302C12.092 7.49802 12.932 7.66502 13.801 7.67802C15.842 7.67802 17.176 6.71702 17.192 5.23902C17.208 4.42602 16.682 3.80902 15.571 3.30102C14.897 2.97102 14.477 2.75002 14.477 2.41502C14.477 2.11902 14.836 1.80302 15.586 1.80302C16.231 1.79302 16.682 1.93202 17.041 2.07602L17.221 2.15702L17.492 0.613022L17.445 0.623022V0.623022ZM22.428 0.453022H20.928C20.461 0.453022 20.112 0.580022 19.907 1.04402L17.022 7.57802H19.063L19.471 6.50802L21.961 6.51002C22.022 6.76002 22.201 7.57802 22.201 7.57802H24L22.428 0.453022ZM9.66 0.393022H11.603L10.388 7.52202H8.444L9.66 0.391022V0.393022ZM4.721 4.32202L4.923 5.31202L6.824 0.453022H8.883L5.822 7.56802H3.768L2.088 1.54202C2.053 1.43902 2.01 1.36902 1.908 1.30502C1.34 1.00802 0.705 0.766022 0 0.598022L0.025 0.448022H3.156C3.58 0.464022 3.922 0.598022 4.039 1.05202L4.721 4.32502V4.32202V4.32202ZM20.029 5.04902L20.804 3.05502C20.794 3.07502 20.964 2.64302 21.062 2.37502L21.195 2.99002L21.644 5.04702H20.029V5.04902V5.04902Z" fill="white"/>
</svg>
