<svg width="12" height="365" viewBox="0 0 12 365" fill="white" xmlns="http://www.w3.org/2000/svg">
<line x1="5.5" y1="198.303" x2="5.5" y2="334.146" stroke="white"/>
<line x1="4.5" y1="160.764" x2="4.5" y2="27.2635" stroke="white"/>
<circle cx="4" cy="20" r="1" transform="rotate(-180 4 20)" fill="#D9D9D9"/>
<circle cx="4.00037" cy="10.6318" r="1" transform="rotate(-180 4.00037 10.6318)" fill="#D9D9D9"/>
<circle cx="4.00037" cy="1.26343" r="1" transform="rotate(-180 4.00037 1.26343)" fill="#D9D9D9"/>
<circle cx="6" cy="364" r="1" transform="rotate(-180 6 364)" fill="#D9D9D9"/>
<circle cx="6.00037" cy="354.632" r="1" transform="rotate(-180 6.00037 354.632)" fill="#D9D9D9"/>
<circle cx="6.00037" cy="345.263" r="1" transform="rotate(-180 6.00037 345.263)" fill="#D9D9D9"/>
<path d="M8.2334 185.705L9 185.705L9 188.654L8.2334 188.654L8.2334 185.705ZM1.89063 188.493L9 188.493L9 189.392L1.89063 189.392L1.89063 188.493ZM4.83008 180.784L6.06543 180.784C6.56673 180.784 7.00781 180.839 7.38867 180.95C7.76628 181.057 8.08203 181.215 8.33594 181.424C8.58984 181.632 8.78027 181.883 8.90723 182.176C9.03418 182.469 9.09766 182.799 9.09766 183.167C9.09766 183.522 9.03418 183.846 8.90723 184.138C8.78027 184.431 8.58984 184.684 8.33594 184.895C8.08203 185.107 7.76628 185.271 7.38867 185.388C7.00781 185.502 6.56673 185.559 6.06543 185.559L4.83008 185.559C4.32878 185.559 3.88932 185.502 3.51172 185.388C3.13086 185.275 2.81348 185.112 2.55957 184.9C2.30566 184.689 2.11523 184.436 1.98828 184.143C1.85807 183.85 1.79297 183.526 1.79297 183.172C1.79297 182.804 1.85807 182.473 1.98828 182.18C2.11523 181.884 2.30566 181.634 2.55957 181.429C2.81348 181.22 3.13086 181.061 3.51172 180.95C3.88932 180.839 4.32878 180.784 4.83008 180.784ZM6.06543 181.673L4.82031 181.673C4.42969 181.673 4.0944 181.705 3.81445 181.77C3.53125 181.835 3.30013 181.931 3.12109 182.058C2.94206 182.185 2.81022 182.342 2.72559 182.527C2.6377 182.713 2.59375 182.928 2.59375 183.172C2.59375 183.403 2.6377 183.611 2.72559 183.797C2.81022 183.979 2.94206 184.135 3.12109 184.265C3.30013 184.396 3.53125 184.497 3.81445 184.568C4.0944 184.637 4.42969 184.671 4.82031 184.671L6.06543 184.671C6.45931 184.671 6.79785 184.637 7.08106 184.568C7.361 184.497 7.59212 184.396 7.77441 184.265C7.95345 184.132 8.08691 183.972 8.17481 183.787C8.25944 183.601 8.30176 183.395 8.30176 183.167C8.30176 182.923 8.25944 182.708 8.17481 182.522C8.08691 182.333 7.95345 182.177 7.77441 182.054C7.59212 181.927 7.361 181.832 7.08106 181.77C6.79785 181.705 6.45931 181.673 6.06543 181.673ZM5.45996 175.389L8.11133 175.389C8.2155 175.467 8.3457 175.586 8.50195 175.746C8.6582 175.902 8.79655 176.122 8.91699 176.405C9.03744 176.688 9.09766 177.059 9.09766 177.518C9.09766 177.886 9.03581 178.223 8.91211 178.529C8.78841 178.832 8.60287 179.094 8.35547 179.315C8.10482 179.533 7.79395 179.702 7.42285 179.823C7.0485 179.943 6.61068 180.004 6.10938 180.004L4.77637 180.004C4.27832 180.004 3.84212 179.953 3.46777 179.852C3.09343 179.751 2.78255 179.601 2.53516 179.403C2.28776 179.201 2.10221 178.952 1.97852 178.656C1.85482 178.356 1.79297 178.008 1.79297 177.611C1.79297 177.152 1.87923 176.761 2.05176 176.439C2.22428 176.117 2.47331 175.868 2.79883 175.692C3.12435 175.513 3.51498 175.412 3.9707 175.389L3.9707 176.288C3.67774 176.31 3.42708 176.372 3.21875 176.473C3.00716 176.574 2.84603 176.717 2.73535 176.903C2.62142 177.088 2.56445 177.324 2.56445 177.611C2.56445 177.884 2.61003 178.115 2.70117 178.304C2.79232 178.493 2.92904 178.648 3.11133 178.768C3.29362 178.885 3.52311 178.972 3.79981 179.027C4.0765 179.079 4.39876 179.105 4.7666 179.105L6.10938 179.105C6.48698 179.105 6.81576 179.068 7.0957 178.993C7.37565 178.918 7.60677 178.812 7.78906 178.675C7.97135 178.535 8.10807 178.368 8.19922 178.172C8.28711 177.977 8.33106 177.757 8.33106 177.513C8.33106 177.237 8.30176 177.018 8.24317 176.859C8.18457 176.699 8.11784 176.577 8.04297 176.493C7.9681 176.405 7.90788 176.335 7.86231 176.283L6.22168 176.283L6.22168 177.587L5.45996 177.587L5.45996 175.389ZM1.89063 173.447L9 173.447L9 174.345L1.89063 174.345L1.89063 173.447ZM1.89063 167.686L9 167.686L9 168.589L3.5166 171.436L9 171.436L9 172.334L1.89063 172.334L1.89063 171.436L7.38867 168.574L1.89063 168.574L1.89063 167.686Z" fill="white"/>
</svg>
