<svg width="24" height="16" viewBox="0 0 24 16" fill="none" xmlns="http://www.w3.org/2000/svg">
<path d="M11.343 14.031C11.401 14.08 11.463 14.129 11.524 14.177C10.347 14.96 8.934 15.415 7.417 15.415C3.32 15.416 0 12.096 0 7.99998C0 3.90498 3.32 0.583984 7.416 0.583984C8.934 0.583984 10.347 1.03998 11.521 1.82198C11.461 1.87298 11.401 1.91998 11.356 1.97198C9.6 3.48898 8.595 5.68798 8.595 7.99998C8.595 10.311 9.596 12.51 11.343 14.031ZM16.584 0.583984C15.064 0.583984 13.653 1.03998 12.479 1.82198C12.539 1.87298 12.599 1.91998 12.644 1.97198C14.4 3.48898 15.405 5.68798 15.405 7.99998C15.405 10.31 14.404 12.507 12.657 14.031C12.599 14.08 12.537 14.129 12.476 14.177C13.653 14.96 15.064 15.415 16.583 15.415C20.68 15.416 24 12.096 24 7.99998C24 3.90598 20.68 0.583984 16.584 0.583984ZM12 2.17398C11.904 2.24898 11.811 2.32398 11.72 2.40498C10.156 3.76398 9.169 5.76498 9.169 7.99998C9.169 10.236 10.156 12.236 11.72 13.595C11.81 13.675 11.905 13.753 12 13.827C12.096 13.753 12.189 13.675 12.28 13.595C13.843 12.236 14.831 10.236 14.831 7.99998C14.831 5.76498 13.844 3.76398 12.28 2.40498C12.19 2.32498 12.096 2.24898 12 2.17398Z" fill="white"/>
</svg>