<svg width="31" height="31" viewBox="0 0 31 31" fill="none" xmlns="http://www.w3.org/2000/svg">
<path d="M20.9477 16.2057L20.2598 16.7439L21.0722 17.0645C23.6158 18.0685 25.8364 19.7417 27.496 21.9047C29.1555 24.0673 30.1918 26.6381 30.4941 29.3413C30.5234 29.6153 30.4427 29.8901 30.2691 30.106C30.1004 30.3157 29.8571 30.4534 29.5891 30.4906L29.449 30.4906L29.446 30.4907C29.1838 30.4922 28.9306 30.3971 28.7354 30.2243C28.5403 30.0516 28.4169 29.8137 28.3883 29.5567L28.3882 29.5558C28.0323 26.4047 26.5215 23.495 24.1453 21.3824C21.7692 19.2699 18.6943 18.1025 15.5081 18.1025C12.3218 18.1025 9.24689 19.2699 6.87077 21.3824C4.49457 23.495 2.98379 26.4047 2.62786 29.5558L2.62773 29.557C2.59696 29.8352 2.45626 30.0905 2.23559 30.2665C2.01482 30.4425 1.73225 30.5245 1.45008 30.4936C1.16794 30.4627 0.910388 30.3217 0.733715 30.1026C0.64625 29.9941 0.581244 29.8697 0.54228 29.7365C0.503344 29.6034 0.49114 29.4641 0.506333 29.3264C0.807118 26.6306 1.83788 24.0662 3.48903 21.9066C5.14023 19.747 7.35003 18.0732 9.88307 17.0639L10.6914 16.7419L10.0061 16.2057C8.56077 15.0748 7.50623 13.5243 6.98867 11.7703C6.47113 10.0163 6.51616 8.14549 7.11753 6.41808C7.71892 4.69064 8.84692 3.19208 10.3451 2.13121C11.8433 1.07031 13.6371 0.5 15.4769 0.5C17.3167 0.5 19.1105 1.07031 20.6087 2.13121C22.1069 3.19208 23.2349 4.69064 23.8363 6.41808C24.4376 8.14549 24.4827 10.0163 23.9651 11.7703C23.4476 13.5243 22.393 15.0748 20.9477 16.2057ZM11.7386 14.8717C12.8454 15.6072 14.1463 15.9996 15.4769 15.9996C17.2611 15.9996 18.9727 15.2947 20.2352 14.0392C21.4977 12.7836 22.2075 11.08 22.2075 9.30315C22.2075 7.97811 21.8124 6.68305 21.0725 5.58176C20.3326 4.4805 19.2812 3.62259 18.0517 3.11609C16.8222 2.6096 15.4694 2.47712 14.1643 2.7353C12.8593 2.99347 11.6601 3.63079 10.7186 4.56709C9.77711 5.50343 9.13563 6.69672 8.87571 7.99623C8.61579 9.29575 8.74922 10.6427 9.25899 11.8667C9.76876 13.0906 10.6318 14.1363 11.7386 14.8717Z" fill="white" stroke="black"/>
</svg>
