<svg width="28" height="34" viewBox="0 0 28 34" fill="none" xmlns="http://www.w3.org/2000/svg">
<path d="M27.432 32.8661L25.2424 10.6854C25.1962 10.2172 24.8022 9.86065 24.3317 9.86065H20.2369V6.24176C20.2369 2.79959 17.4369 0 13.9956 0C10.554 0 7.75433 2.79966 7.75433 6.24176V9.86072H3.65902C3.18856 9.86072 2.79494 10.2173 2.74841 10.6855L0.546215 32.9948C0.520718 33.2521 0.605191 33.5078 0.778602 33.699C0.951945 33.891 1.19853 34 1.45676 34H26.5345C26.5372 34 26.5402 34 26.5434 34C27.0488 34 27.4584 33.59 27.4584 33.0851C27.4584 33.0091 27.4494 32.9359 27.432 32.8661ZM9.58434 6.24176C9.58434 3.80948 11.5632 1.83007 13.9956 1.83007C16.4279 1.83007 18.4068 3.80955 18.4068 6.24176V9.86072H9.58434V6.24176ZM4.4882 11.6908H7.75426V13.5423C7.75426 14.0471 8.16405 14.4572 8.66933 14.4572C9.17468 14.4572 9.58434 14.0471 9.58434 13.5423V11.6908H18.4068V13.5423C18.4068 14.0471 18.8165 14.4572 19.3217 14.4572C19.8271 14.4572 20.2367 14.0471 20.2367 13.5423V11.6908H23.5024L25.1676 28.5564H2.82308L4.4882 11.6908ZM2.46645 32.1702L2.6425 30.3865H25.3487L25.5247 32.1702H2.46645Z" fill="white" stroke="black"/>
</svg>
